<svg version="1.1" viewBox="0.0 0.0 1179.238845144357 459.06561679790025" fill="none" stroke="none" stroke-linecap="square" stroke-miterlimit="10" xmlns:xlink="http://www.w3.org/1999/xlink" xmlns="http://www.w3.org/2000/svg"><clipPath id="p.0"><path d="m0 0l1179.2389 0l0 459.0656l-1179.2389 0l0 -459.0656z" clip-rule="nonzero"/></clipPath><g clip-path="url(#p.0)"><path fill="#000000" fill-opacity="0.0" d="m0 0l1179.2389 0l0 459.0656l-1179.2389 0z" fill-rule="evenodd"/><path fill="#ffffff" d="m472.39633 148.20735l162.23624 0l0 87.9055l-162.23624 0z" fill-rule="evenodd"/><path stroke="#000000" stroke-width="1.0" stroke-linejoin="round" stroke-linecap="butt" d="m472.39633 148.20735l162.23624 0l0 87.9055l-162.23624 0z" fill-rule="evenodd"/><path fill="#000000" d="m517.68243 174.1376l5.578125 13.921875l5.578125 -13.921875l2.921875 0l0 17.0625l-2.25 0l0 -6.640625l0.203125 -7.171875l-5.59375 13.8125l-1.734375 0l-5.578125 -13.78125l0.21875 7.140625l0 6.640625l-2.25 0l0 -17.0625l2.90625 0zm23.078125 9.453125q-2.90625 -0.828125 -4.21875 -2.03125q-1.3125 -1.21875 -1.3125 -3.0q0 -2.015625 1.609375 -3.328125q1.609375 -1.328125 4.1875 -1.328125q1.75 0 3.125 0.6875q1.390625 0.671875 2.140625 1.875q0.75 1.1875 0.75 2.609375l-2.25 0q0 -1.546875 -0.984375 -2.4375q-0.984375 -0.890625 -2.78125 -0.890625q-1.671875 0 -2.609375 0.734375q-0.921875 0.734375 -0.921875 2.03125q0 1.046875 0.875 1.765625q0.890625 0.71875 3.015625 1.328125q2.140625 0.59375 3.328125 1.3125q1.203125 0.71875 1.78125 1.6875q0.59375 0.953125 0.59375 2.25q0 2.078125 -1.625 3.328125q-1.609375 1.25 -4.328125 1.25q-1.75 0 -3.28125 -0.671875q-1.515625 -0.671875 -2.34375 -1.84375q-0.828125 -1.171875 -0.828125 -2.671875l2.265625 0q0 1.546875 1.140625 2.453125q1.140625 0.890625 3.046875 0.890625q1.78125 0 2.734375 -0.71875q0.953125 -0.734375 0.953125 -1.984375q0 -1.25 -0.890625 -1.9375q-0.875 -0.6875 -3.171875 -1.359375zm11.222656 7.609375l-2.171875 0l0 -12.6875l2.171875 0l0 12.6875zm-2.34375 -16.046875q0 -0.53125 0.3125 -0.890625q0.328125 -0.359375 0.953125 -0.359375q0.640625 0 0.96875 0.359375q0.328125 0.359375 0.328125 0.890625q0 0.53125 -0.328125 0.890625q-0.328125 0.34375 -0.96875 0.34375q-0.625 0 -0.953125 -0.34375q-0.3125 -0.359375 -0.3125 -0.890625zm16.292969 8.765625q0 3.8125 -1.3125 5.671875q-1.296875 1.84375 -4.0625 1.84375q-2.734375 0 -4.046875 -1.8125q-1.3125 -1.8125 -1.359375 -5.40625l0 -2.890625q0 -3.765625 1.296875 -5.59375q1.3125 -1.828125 4.09375 -1.828125q2.75 0 4.046875 1.765625q1.296875 1.765625 1.34375 5.4375l0 2.8125zm-2.171875 -2.96875q0 -2.75 -0.78125 -4.0q-0.765625 -1.265625 -2.4375 -1.265625q-1.671875 0 -2.4375 1.25q-0.75 1.25 -0.78125 3.859375l0 3.46875q0 2.765625 0.796875 4.09375q0.8125 1.3125 2.4375 1.3125q1.609375 0 2.390625 -1.234375q0.78125 -1.25 0.8125 -3.921875l0 -3.5625zm15.6484375 2.96875q0 3.8125 -1.3125 5.671875q-1.296875 1.84375 -4.0625 1.84375q-2.734375 0 -4.046875 -1.8125q-1.3125 -1.8125 -1.359375 -5.40625l0 -2.890625q0 -3.765625 1.296875 -5.59375q1.3125 -1.828125 4.09375 -1.828125q2.75 0 4.046875 1.765625q1.296875 1.765625 1.34375 5.4375l0 2.8125zm-2.171875 -2.96875q0 -2.75 -0.78125 -4.0q-0.765625 -1.265625 -2.4375 -1.265625q-1.671875 0 -2.4375 1.25q-0.75 1.25 -0.78125 3.859375l0 3.46875q0 2.765625 0.796875 4.09375q0.8125 1.3125 2.4375 1.3125q1.609375 0 2.390625 -1.234375q0.78125 -1.25 0.8125 -3.921875l0 -3.5625zm12.0703125 10.25l-2.1875 0l0 -14.453125l-4.359375 1.609375l0 -1.96875l6.203125 -2.328125l0.34375 0l0 17.140625z" fill-rule="nonzero"/><path fill="#000000" d="m531.7215 202.0201l0 2.046875l1.578125 0l0 1.109375l-1.578125 0l0 5.25q0 0.5 0.203125 0.765625q0.21875 0.25 0.71875 0.25q0.25 0 0.6875 -0.09375l0 1.171875q-0.5625 0.15625 -1.109375 0.15625q-0.96875 0 -1.46875 -0.578125q-0.484375 -0.59375 -0.484375 -1.671875l0 -5.25l-1.53125 0l0 -1.109375l1.53125 0l0 -2.046875l1.453125 0zm8.4765625 9.65625q-0.84375 1.0 -2.46875 1.0q-1.359375 0 -2.0625 -0.78125q-0.703125 -0.796875 -0.71875 -2.328125l0 -5.5l1.453125 0l0 5.453125q0 1.921875 1.5625 1.921875q1.65625 0 2.203125 -1.234375l0 -6.140625l1.4375 0l0 8.453125l-1.375 0l-0.03125 -0.84375zm4.9765625 -7.609375l0.046875 1.0625q0.96875 -1.21875 2.53125 -1.21875q2.671875 0 2.703125 3.015625l0 5.59375l-1.453125 0l0 -5.59375q0 -0.921875 -0.421875 -1.359375q-0.40625 -0.4375 -1.265625 -0.4375q-0.703125 0 -1.234375 0.375q-0.53125 0.375 -0.828125 0.984375l0 6.03125l-1.453125 0l0 -8.453125l1.375 0zm10.96875 8.609375q-1.71875 0 -2.796875 -1.125q-1.078125 -1.140625 -1.078125 -3.03125l0 -0.265625q0 -1.25 0.46875 -2.234375q0.484375 -1.0 1.34375 -1.546875q0.875 -0.5625 1.875 -0.5625q1.65625 0 2.5625 1.09375q0.921875 1.078125 0.921875 3.09375l0 0.609375l-5.734375 0q0.03125 1.25 0.734375 2.015625q0.703125 0.765625 1.78125 0.765625q0.765625 0 1.296875 -0.3125q0.53125 -0.3125 0.921875 -0.828125l0.890625 0.6875q-1.0625 1.640625 -3.1875 1.640625zm-0.1875 -7.578125q-0.875 0 -1.46875 0.640625q-0.59375 0.625 -0.734375 1.78125l4.234375 0l0 -0.109375q-0.0625 -1.109375 -0.59375 -1.703125q-0.53125 -0.609375 -1.4375 -0.609375zm9.2421875 0.265625q-0.328125 -0.0625 -0.71875 -0.0625q-1.421875 0 -1.921875 1.21875l0 6.0l-1.453125 0l0 -8.453125l1.40625 0l0.03125 0.96875q0.703125 -1.125 2.015625 -1.125q0.421875 0 0.640625 0.109375l0 1.34375zm9.890625 7.15625l-1.453125 0l0 -9.640625l-2.921875 1.078125l0 -1.3125l4.140625 -1.5625l0.234375 0l0 11.4375z" fill-rule="nonzero"/><path fill="#ffffff" d="m921.3858 148.38058l129.98431 0l0 225.07086l-129.98431 0z" fill-rule="evenodd"/><path stroke="#000000" stroke-width="1.0" stroke-linejoin="round" stroke-linecap="butt" d="m921.3858 148.38058l129.98431 0l0 225.07086l-129.98431 0z" fill-rule="evenodd"/><path fill="#000000" d="m943.8076 252.39351l5.578125 13.92189l5.578125 -13.92189l2.921875 0l0 17.062515l-2.25 0l0 -6.640625l0.203125 -7.1718903l-5.59375 13.812515l-1.734375 0l-5.578125 -13.781265l0.21875 7.1406403l0 6.640625l-2.25 0l0 -17.062515l2.90625 0zm23.078125 9.45314q-2.90625 -0.828125 -4.21875 -2.03125q-1.3125 -1.21875 -1.3125 -3.0q0 -2.0156403 1.609375 -3.3281403q1.609375 -1.328125 4.1875 -1.328125q1.75 0 3.125 0.6875q1.390625 0.671875 2.140625 1.875q0.75 1.1875 0.75 2.6093903l-2.25 0q0 -1.5468903 -0.984375 -2.4375153q-0.984375 -0.890625 -2.78125 -0.890625q-1.671875 0 -2.609375 0.734375q-0.921875 0.734375 -0.921875 2.0312653q0 1.046875 0.875 1.765625q0.890625 0.71875 3.015625 1.328125q2.140625 0.59375 3.328125 1.3125q1.203125 0.71875 1.78125 1.6875q0.59375 0.953125 0.59375 2.25q0 2.078125 -1.625 3.328125q-1.609375 1.25 -4.328125 1.25q-1.75 0 -3.28125 -0.671875q-1.515625 -0.671875 -2.34375 -1.84375q-0.828125 -1.171875 -0.828125 -2.671875l2.265625 0q0 1.546875 1.140625 2.453125q1.140625 0.890625 3.046875 0.890625q1.78125 0 2.734375 -0.71875q0.953125 -0.734375 0.953125 -1.984375q0 -1.25 -0.890625 -1.9375q-0.875 -0.6875 -3.171875 -1.359375zm11.222656 7.609375l-2.171875 0l0 -12.6875l2.171875 0l0 12.6875zm-2.34375 -16.04689q0 -0.53125 0.3125 -0.890625q0.328125 -0.359375 0.953125 -0.359375q0.640625 0 0.96875 0.359375q0.328125 0.359375 0.328125 0.890625q0 0.53125 -0.328125 0.890625q-0.328125 0.34375 -0.96875 0.34375q-0.625 0 -0.953125 -0.34375q-0.3125 -0.359375 -0.3125 -0.890625zm16.761719 16.04689l-11.171875 0l0 -1.5625l5.90625 -6.5625q1.3125 -1.484375 1.8125 -2.40625q0.5 -0.9375 0.5 -1.9375q0 -1.3437653 -0.8125 -2.1875153q-0.8125 -0.859375 -2.15625 -0.859375q-1.625 0 -2.515625 0.921875q-0.890625 0.921875 -0.890625 2.5625153l-2.171875 0q0 -2.3593903 1.515625 -3.8125153q1.515625 -1.453125 4.0625 -1.453125q2.375 0 3.75 1.25q1.390625 1.25 1.390625 3.3125153q0 2.53125 -3.203125 6.0l-4.578125 4.96875l8.5625 0l0 1.765625zm3.3046875 -8.5625l0.859375 -8.500015l8.75 0l0 2.0l-6.90625 0l-0.515625 4.6562653q1.25 -0.734375 2.84375 -0.734375q2.328125 0 3.703125 1.546875q1.375 1.53125 1.375 4.15625q0 2.640625 -1.421875 4.15625q-1.421875 1.515625 -3.984375 1.515625q-2.265625 0 -3.703125 -1.25q-1.421875 -1.265625 -1.609375 -3.46875l2.046875 0q0.203125 1.453125 1.046875 2.203125q0.84375 0.75 2.21875 0.75q1.515625 0 2.375 -1.03125q0.859375 -1.03125 0.859375 -2.859375q0 -1.703125 -0.9375 -2.734375q-0.921875 -1.046875 -2.46875 -1.046875q-1.421875 0 -2.234375 0.625l-0.5625 0.46875l-1.734375 -0.453125zm23.179688 1.28125q0 3.8125 -1.3125 5.671875q-1.296875 1.84375 -4.0625 1.84375q-2.734375 0 -4.046875 -1.8125q-1.3125 -1.8125 -1.359375 -5.40625l0 -2.890625q0 -3.7656403 1.296875 -5.5937653q1.3125 -1.828125 4.09375 -1.828125q2.75 0 4.046875 1.765625q1.296875 1.765625 1.34375 5.4375153l0 2.8125zm-2.171875 -2.96875q0 -2.75 -0.78125 -4.0000153q-0.765625 -1.265625 -2.4375 -1.265625q-1.671875 0 -2.4375 1.25q-0.75 1.2500153 -0.78125 3.8593903l0 3.46875q0 2.765625 0.796875 4.09375q0.8125 1.3125 2.4375 1.3125q1.609375 0 2.390625 -1.234375q0.78125 -1.25 0.8125 -3.921875l0 -3.5625zm15.6484375 2.96875q0 3.8125 -1.3125 5.671875q-1.296875 1.84375 -4.0625 1.84375q-2.734375 0 -4.046875 -1.8125q-1.3125 -1.8125 -1.359375 -5.40625l0 -2.890625q0 -3.7656403 1.296875 -5.5937653q1.3125 -1.828125 4.09375 -1.828125q2.75 0 4.046875 1.765625q1.296875 1.765625 1.34375 5.4375153l0 2.8125zm-2.171875 -2.96875q0 -2.75 -0.78125 -4.0000153q-0.765625 -1.265625 -2.4375 -1.265625q-1.671875 0 -2.4375 1.25q-0.75 1.2500153 -0.78125 3.8593903l0 3.46875q0 2.765625 0.796875 4.09375q0.8125 1.3125 2.4375 1.3125q1.609375 0 2.390625 -1.234375q0.78125 -1.25 0.8125 -3.921875l0 -3.5625z" fill-rule="nonzero"/><path fill="#000000" fill-opacity="0.0" d="m1051.3701 260.91602l67.87402 0.34646606" fill-rule="evenodd"/><path stroke="#000000" stroke-width="1.0" stroke-linejoin="round" stroke-linecap="butt" d="m1051.3701 260.91602l61.874023 0.31582642" fill-rule="evenodd"/><path fill="#000000" stroke="#000000" stroke-width="1.0" stroke-linecap="butt" d="m1113.2357 262.88354l4.546509 -1.62854l-4.529663 -1.6748657z" fill-rule="evenodd"/><path fill="#000000" fill-opacity="0.0" d="m1119.2441 244.28609l45.385742 0l0 33.606308l-45.385742 0z" fill-rule="evenodd"/><path fill="#000000" d="m1137.279 256.4205l0 6.4375q0 1.34375 -0.84375 2.203125q-0.828125 0.84375 -2.265625 0.9375l-0.328125 0.015625q-1.5625 0 -2.484375 -0.828125q-0.921875 -0.84375 -0.9375 -2.3125l0 -6.453125l1.234375 0l0 6.40625q0 1.03125 0.5625 1.609375q0.578125 0.5625 1.625 0.5625q1.0625 0 1.625 -0.5625q0.5625 -0.578125 0.5625 -1.59375l0 -6.421875l1.25 0zm4.767456 5.25q-1.609375 -0.46875 -2.34375 -1.140625q-0.734375 -0.671875 -0.734375 -1.65625q0 -1.125 0.890625 -1.859375q0.90625 -0.734375 2.34375 -0.734375q0.96875 0 1.734375 0.390625q0.765625 0.375 1.1875 1.046875q0.421875 0.65625 0.421875 1.4375l-1.265625 0q0 -0.859375 -0.546875 -1.34375q-0.546875 -0.5 -1.53125 -0.5q-0.921875 0 -1.453125 0.40625q-0.515625 0.40625 -0.515625 1.125q0 0.578125 0.484375 0.984375q0.5 0.40625 1.671875 0.734375q1.1875 0.328125 1.859375 0.734375q0.671875 0.390625 0.984375 0.9375q0.328125 0.53125 0.328125 1.25q0 1.15625 -0.90625 1.84375q-0.890625 0.6875 -2.390625 0.6875q-0.984375 0 -1.828125 -0.375q-0.84375 -0.375 -1.3125 -1.015625q-0.453125 -0.65625 -0.453125 -1.484375l1.265625 0q0 0.859375 0.625 1.359375q0.640625 0.5 1.703125 0.5q0.984375 0 1.515625 -0.40625q0.53125 -0.40625 0.53125 -1.09375q0 -0.703125 -0.5 -1.078125q-0.484375 -0.390625 -1.765625 -0.75zm5.1102295 4.21875l0 -9.46875l3.109375 0q1.53125 0 2.3125 0.640625q0.78125 0.625 0.78125 1.875q0 0.671875 -0.375 1.1875q-0.375 0.5 -1.03125 0.78125q0.765625 0.21875 1.203125 0.828125q0.453125 0.59375 0.453125 1.421875q0 1.28125 -0.828125 2.015625q-0.828125 0.71875 -2.328125 0.71875l-3.296875 0zm1.25 -4.4375l0 3.421875l2.0625 0q0.875 0 1.375 -0.453125q0.515625 -0.453125 0.515625 -1.25q0 -1.71875 -1.859375 -1.71875l-2.09375 0zm0 -1.0l1.890625 0q0.828125 0 1.3125 -0.40625q0.5 -0.40625 0.5 -1.109375q0 -0.78125 -0.46875 -1.140625q-0.453125 -0.359375 -1.375 -0.359375l-1.859375 0l0 3.015625z" fill-rule="nonzero"/><path fill="#000000" fill-opacity="0.0" d="m35.850395 313.29135l64.031494 0l0 33.606293l-64.031494 0z" fill-rule="evenodd"/><path fill="#000000" d="m55.546036 332.42575l-3.96875 0l-0.890625 2.46875l-1.28125 0l3.609375 -9.46875l1.09375 0l3.625 9.46875l-1.28125 0l-0.90625 -2.46875zm-3.59375 -1.03125l3.234375 0l-1.625 -4.4375l-1.609375 4.4375zm14.335144 3.5l-1.25 0l-4.765625 -7.296875l0 7.296875l-1.265625 0l0 -9.46875l1.265625 0l4.78125 7.328125l0 -7.328125l1.234375 0l0 9.46875zm8.578323 -8.453125l-3.046875 0l0 8.453125l-1.234375 0l0 -8.453125l-3.046875 0l0 -1.015625l7.328125 0l0 1.015625zm4.444824 8.453125l0 -9.46875l3.109375 0q1.53125 0 2.3125 0.640625q0.78125 0.625 0.78125 1.875q0 0.671875 -0.375 1.1875q-0.375 0.5 -1.03125 0.78125q0.765625 0.21875 1.203125 0.828125q0.453125 0.59375 0.453125 1.421875q0 1.28125 -0.828125 2.015625q-0.828125 0.71875 -2.328125 0.71875l-3.296875 0zm1.25 -4.4375l0 3.421875l2.0625 0q0.875 0 1.375 -0.453125q0.515625 -0.453125 0.515625 -1.25q0 -1.71875 -1.859375 -1.71875l-2.09375 0zm0 -1.0l1.890625 0q0.828125 0 1.3125 -0.40625q0.5 -0.40625 0.5 -1.109375q0 -0.78125 -0.46875 -1.140625q-0.453125 -0.359375 -1.375 -0.359375l-1.859375 0l0 3.015625z" fill-rule="nonzero"/><path fill="#ffffff" d="m713.0171 148.38058l129.98425 0l0 225.07086l-129.98425 0z" fill-rule="evenodd"/><path stroke="#000000" stroke-width="1.0" stroke-linejoin="round" stroke-linecap="butt" d="m713.0171 148.38058l129.98425 0l0 225.07086l-129.98425 0z" fill-rule="evenodd"/><path fill="#000000" d="m739.17664 267.836l-1.75 0l0 -13.26561l1.75 0l0 13.26561zm3.2615356 1.140625l-1.453125 0l5.546875 -14.406235l1.4375 0l-5.53125 14.406235zm17.750916 -7.34375q0 1.921875 -0.609375 3.3125q-0.609375 1.390625 -1.71875 2.171875l2.375 1.859375l-1.203125 1.09375l-2.796875 -2.21875q-0.65625 0.171875 -1.375 0.171875q-1.578125 0 -2.796875 -0.765625q-1.203125 -0.78125 -1.875 -2.203125q-0.65625 -1.421875 -0.671875 -3.296875l0 -0.96875q0 -1.90625 0.65625 -3.375q0.671875 -1.4687347 1.875 -2.2499847q1.21875 -0.78125 2.796875 -0.78125q1.59375 0 2.8125 0.78125q1.21875 0.78125 1.875 2.2343597q0.65625 1.453125 0.65625 3.390625l0 0.84375zm-1.75 -0.859375q0 -2.34375 -0.9375 -3.609375q-0.9375 -1.2656097 -2.65625 -1.2656097q-1.65625 0 -2.609375 1.2656097q-0.953125 1.25 -0.984375 3.5l0 0.96875q0 2.28125 0.953125 3.59375q0.953125 1.3125 2.640625 1.3125q1.703125 0 2.625 -1.234375q0.9375 -1.234375 0.96875 -3.546875l0 -0.984375zm14.538391 4.453125q0 -0.6875 -0.515625 -1.0625q-0.515625 -0.375 -1.796875 -0.640625q-1.28125 -0.28125 -2.03125 -0.65625q-0.75 -0.390625 -1.109375 -0.921875q-0.359375 -0.53125 -0.359375 -1.265625q0 -1.203125 1.015625 -2.03125q1.03125 -0.84375 2.625 -0.84375q1.671875 0 2.71875 0.859375q1.046875 0.859375 1.046875 2.21875l-1.6875 0q0 -0.703125 -0.59375 -1.203125q-0.59375 -0.5 -1.484375 -0.5q-0.921875 0 -1.4375 0.40625q-0.515625 0.390625 -0.515625 1.046875q0 0.609375 0.484375 0.921875q0.484375 0.3125 1.734375 0.59375q1.265625 0.28125 2.046875 0.671875q0.78125 0.390625 1.15625 0.9375q0.390625 0.546875 0.390625 1.34375q0 1.328125 -1.0625 2.125q-1.046875 0.796875 -2.734375 0.796875q-1.1875 0 -2.109375 -0.421875q-0.90625 -0.421875 -1.421875 -1.171875q-0.515625 -0.75 -0.515625 -1.625l1.6875 0q0.046875 0.84375 0.671875 1.34375q0.640625 0.5 1.6875 0.5q0.953125 0 1.53125 -0.390625q0.578125 -0.390625 0.578125 -1.03125zm12.604004 0.28125l1.890625 -7.53125l1.6875 0l-2.859375 9.859375l-1.375 0l-2.390625 -7.46875l-2.328125 7.46875l-1.375 0l-2.859375 -9.859375l1.671875 0l1.953125 7.375l2.28125 -7.375l1.359375 0l2.34375 7.53125zm7.1289062 2.328125l-1.6875 0l0 -9.859375l1.6875 0l0 9.859375zm-1.828125 -12.468735q0 -0.40625 0.25 -0.6875q0.25 -0.296875 0.734375 -0.296875q0.5 0 0.75 0.296875q0.265625 0.28125 0.265625 0.6875q0 0.40625 -0.265625 0.68748474q-0.25 0.265625 -0.75 0.265625q-0.484375 0 -0.734375 -0.265625q-0.25 -0.28123474 -0.25 -0.68748474zm6.808655 0.21875l0 2.3906097l1.84375 0l0 1.3125l-1.84375 0l0 6.109375q0 0.59375 0.234375 0.890625q0.25 0.296875 0.84375 0.296875q0.296875 0 0.8125 -0.109375l0 1.359375q-0.671875 0.1875 -1.296875 0.1875q-1.125 0 -1.703125 -0.6875q-0.578125 -0.6875 -0.578125 -1.9375l0 -6.109375l-1.796875 0l0 -1.3125l1.796875 0l0 -2.3906097l1.6875 0zm7.7661743 11.062485q0.890625 0 1.5625 -0.546875q0.6875 -0.546875 0.75 -1.375l1.59375 0q-0.046875 0.84375 -0.578125 1.609375q-0.53125 0.765625 -1.4375 1.234375q-0.890625 0.453125 -1.890625 0.453125q-2.015625 0 -3.203125 -1.34375q-1.1875 -1.34375 -1.1875 -3.6875l0 -0.28125q0 -1.4375 0.515625 -2.546875q0.53125 -1.125 1.515625 -1.734375q1.0 -0.625 2.34375 -0.625q1.65625 0 2.75 1.0q1.109375 0.984375 1.171875 2.5625l-1.59375 0q-0.0625 -0.953125 -0.71875 -1.5625q-0.65625 -0.625 -1.609375 -0.625q-1.28125 0 -2.0 0.921875q-0.703125 0.921875 -0.703125 2.671875l0 0.328125q0 1.703125 0.703125 2.625q0.703125 0.921875 2.015625 0.921875zm7.484131 -7.46875q1.125 -1.375 2.921875 -1.375q3.125 0 3.15625 3.515625l0 6.515625l-1.6875 0l0 -6.515625q-0.015625 -1.078125 -0.5 -1.578125q-0.46875 -0.515625 -1.484375 -0.515625q-0.8125 0 -1.4375 0.4375q-0.609375 0.4375 -0.96875 1.15625l0 7.015625l-1.671875 0l0 -13.999985l1.671875 0l0 5.3437347z" fill-rule="nonzero"/><path fill="#ffffff" d="m472.39633 286.2362l162.23624 0l0 87.90552l-162.23624 0z" fill-rule="evenodd"/><path stroke="#000000" stroke-width="1.0" stroke-linejoin="round" stroke-linecap="butt" d="m472.39633 286.2362l162.23624 0l0 87.90552l-162.23624 0z" fill-rule="evenodd"/><path fill="#000000" d="m517.68243 312.16647l5.578125 13.921875l5.578125 -13.921875l2.921875 0l0 17.0625l-2.25 0l0 -6.640625l0.203125 -7.171875l-5.59375 13.8125l-1.734375 0l-5.578125 -13.78125l0.21875 7.140625l0 6.640625l-2.25 0l0 -17.0625l2.90625 0zm23.078125 9.453125q-2.90625 -0.828125 -4.21875 -2.03125q-1.3125 -1.21875 -1.3125 -3.0q0 -2.015625 1.609375 -3.328125q1.609375 -1.328125 4.1875 -1.328125q1.75 0 3.125 0.6875q1.390625 0.671875 2.140625 1.875q0.75 1.1875 0.75 2.609375l-2.25 0q0 -1.546875 -0.984375 -2.4375q-0.984375 -0.890625 -2.78125 -0.890625q-1.671875 0 -2.609375 0.734375q-0.921875 0.734375 -0.921875 2.03125q0 1.046875 0.875 1.765625q0.890625 0.71875 3.015625 1.328125q2.140625 0.59375 3.328125 1.3125q1.203125 0.71875 1.78125 1.6875q0.59375 0.953125 0.59375 2.25q0 2.078125 -1.625 3.328125q-1.609375 1.25 -4.328125 1.25q-1.75 0 -3.28125 -0.671875q-1.515625 -0.671875 -2.34375 -1.84375q-0.828125 -1.171875 -0.828125 -2.671875l2.265625 0q0 1.546875 1.140625 2.453125q1.140625 0.890625 3.046875 0.890625q1.78125 0 2.734375 -0.71875q0.953125 -0.734375 0.953125 -1.984375q0 -1.25 -0.890625 -1.9375q-0.875 -0.6875 -3.171875 -1.359375zm11.222656 7.609375l-2.171875 0l0 -12.6875l2.171875 0l0 12.6875zm-2.34375 -16.046875q0 -0.53125 0.3125 -0.890625q0.328125 -0.359375 0.953125 -0.359375q0.640625 0 0.96875 0.359375q0.328125 0.359375 0.328125 0.890625q0 0.53125 -0.328125 0.890625q-0.328125 0.34375 -0.96875 0.34375q-0.625 0 -0.953125 -0.34375q-0.3125 -0.359375 -0.3125 -0.890625zm16.292969 8.765625q0 3.8125 -1.3125 5.671875q-1.296875 1.84375 -4.0625 1.84375q-2.734375 0 -4.046875 -1.8125q-1.3125 -1.8125 -1.359375 -5.40625l0 -2.890625q0 -3.765625 1.296875 -5.59375q1.3125 -1.828125 4.09375 -1.828125q2.75 0 4.046875 1.765625q1.296875 1.765625 1.34375 5.4375l0 2.8125zm-2.171875 -2.96875q0 -2.75 -0.78125 -4.0q-0.765625 -1.265625 -2.4375 -1.265625q-1.671875 0 -2.4375 1.25q-0.75 1.25 -0.78125 3.859375l0 3.46875q0 2.765625 0.796875 4.09375q0.8125 1.3125 2.4375 1.3125q1.609375 0 2.390625 -1.234375q0.78125 -1.25 0.8125 -3.921875l0 -3.5625zm15.6484375 2.96875q0 3.8125 -1.3125 5.671875q-1.296875 1.84375 -4.0625 1.84375q-2.734375 0 -4.046875 -1.8125q-1.3125 -1.8125 -1.359375 -5.40625l0 -2.890625q0 -3.765625 1.296875 -5.59375q1.3125 -1.828125 4.09375 -1.828125q2.75 0 4.046875 1.765625q1.296875 1.765625 1.34375 5.4375l0 2.8125zm-2.171875 -2.96875q0 -2.75 -0.78125 -4.0q-0.765625 -1.265625 -2.4375 -1.265625q-1.671875 0 -2.4375 1.25q-0.75 1.25 -0.78125 3.859375l0 3.46875q0 2.765625 0.796875 4.09375q0.8125 1.3125 2.4375 1.3125q1.609375 0 2.390625 -1.234375q0.78125 -1.25 0.8125 -3.921875l0 -3.5625zm12.0703125 10.25l-2.1875 0l0 -14.453125l-4.359375 1.609375l0 -1.96875l6.203125 -2.328125l0.34375 0l0 17.140625z" fill-rule="nonzero"/><path fill="#000000" d="m531.7215 340.04898l0 2.046875l1.578125 0l0 1.109375l-1.578125 0l0 5.25q0 0.5 0.203125 0.765625q0.21875 0.25 0.71875 0.25q0.25 0 0.6875 -0.09375l0 1.171875q-0.5625 0.15625 -1.109375 0.15625q-0.96875 0 -1.46875 -0.578125q-0.484375 -0.59375 -0.484375 -1.671875l0 -5.25l-1.53125 0l0 -1.109375l1.53125 0l0 -2.046875l1.453125 0zm8.4765625 9.65625q-0.84375 1.0 -2.46875 1.0q-1.359375 0 -2.0625 -0.78125q-0.703125 -0.796875 -0.71875 -2.328125l0 -5.5l1.453125 0l0 5.453125q0 1.921875 1.5625 1.921875q1.65625 0 2.203125 -1.234375l0 -6.140625l1.4375 0l0 8.453125l-1.375 0l-0.03125 -0.84375zm4.9765625 -7.609375l0.046875 1.0625q0.96875 -1.21875 2.53125 -1.21875q2.671875 0 2.703125 3.015625l0 5.59375l-1.453125 0l0 -5.59375q0 -0.921875 -0.421875 -1.359375q-0.40625 -0.4375 -1.265625 -0.4375q-0.703125 0 -1.234375 0.375q-0.53125 0.375 -0.828125 0.984375l0 6.03125l-1.453125 0l0 -8.453125l1.375 0zm10.96875 8.609375q-1.71875 0 -2.796875 -1.125q-1.078125 -1.140625 -1.078125 -3.03125l0 -0.265625q0 -1.25 0.46875 -2.234375q0.484375 -1.0 1.34375 -1.546875q0.875 -0.5625 1.875 -0.5625q1.65625 0 2.5625 1.09375q0.921875 1.078125 0.921875 3.09375l0 0.609375l-5.734375 0q0.03125 1.25 0.734375 2.015625q0.703125 0.765625 1.78125 0.765625q0.765625 0 1.296875 -0.3125q0.53125 -0.3125 0.921875 -0.828125l0.890625 0.6875q-1.0625 1.640625 -3.1875 1.640625zm-0.1875 -7.578125q-0.875 0 -1.46875 0.640625q-0.59375 0.625 -0.734375 1.78125l4.234375 0l0 -0.109375q-0.0625 -1.109375 -0.59375 -1.703125q-0.53125 -0.609375 -1.4375 -0.609375zm9.2421875 0.265625q-0.328125 -0.0625 -0.71875 -0.0625q-1.421875 0 -1.921875 1.21875l0 6.0l-1.453125 0l0 -8.453125l1.40625 0l0.03125 0.96875q0.703125 -1.125 2.015625 -1.125q0.421875 0 0.640625 0.109375l0 1.34375zm12.59375 7.15625l-7.453125 0l0 -1.046875l3.9375 -4.375q0.875 -0.984375 1.203125 -1.609375q0.328125 -0.625 0.328125 -1.28125q0 -0.890625 -0.546875 -1.453125q-0.53125 -0.578125 -1.421875 -0.578125q-1.078125 0 -1.6875 0.609375q-0.59375 0.609375 -0.59375 1.703125l-1.4375 0q0 -1.5625 1.0 -2.53125q1.015625 -0.96875 2.71875 -0.96875q1.578125 0 2.5 0.828125q0.921875 0.828125 0.921875 2.21875q0 1.671875 -2.140625 4.0l-3.046875 3.296875l5.71875 0l0 1.1875z" fill-rule="nonzero"/><path fill="#ffffff" d="m231.77428 148.20735l162.23622 0l0 87.9055l-162.23622 0z" fill-rule="evenodd"/><path stroke="#000000" stroke-width="1.0" stroke-linejoin="round" stroke-linecap="butt" d="m231.77428 148.20735l162.23622 0l0 87.9055l-162.23622 0z" fill-rule="evenodd"/><path fill="#000000" d="m251.37091 198.85635l8.078125 0l0 1.84375l-10.34375 0l0 -17.0625l2.265625 0l0 15.21875zm23.757812 1.84375l-2.265625 0l-8.578125 -13.15625l0 13.15625l-2.265625 0l0 -17.0625l2.265625 0l8.609375 13.203125l0 -13.203125l2.234375 0l0 17.0625zm13.6328125 -4.453125l-7.15625 0l-1.59375 4.453125l-2.328125 0l6.515625 -17.0625l1.96875 0l6.53125 17.0625l-2.3125 0l-1.625 -4.453125zm-6.46875 -1.859375l5.796875 0l-2.90625 -7.96875l-2.890625 7.96875zm24.519531 -2.84375l4.75 0l0 2.046875l-4.75 0l0 5.390625l-2.1875 0l0 -5.390625l-4.75 0l0 -2.046875l4.75 0l0 -4.984375l2.1875 0l0 4.984375zm14.0625 9.15625l0 -11.0l-2.015625 0l0 -1.6875l2.015625 0l0 -1.078125q0 -2.109375 1.203125 -3.296875q1.21875 -1.1875 3.4375 -1.1875q1.3125 0 3.3125 0.71875l-0.359375 1.828125q-1.46875 -0.59375 -2.796875 -0.59375q-1.390625 0 -2.015625 0.640625q-0.609375 0.625 -0.609375 1.875l0 1.09375l2.59375 0l0 1.6875l-2.59375 0l0 11.0l-2.171875 0zm9.03125 0l-2.1875 0l0 -12.6875l2.1875 0l0 12.6875zm5.8828125 0l-2.171875 0l0 -18.0l2.171875 0l0 18.0zm6.4023438 -15.75l0 3.0625l2.375 0l0 1.6875l-2.375 0l0 7.859375q0 0.765625 0.3125 1.140625q0.328125 0.375 1.09375 0.375q0.375 0 1.03125 -0.140625l0 1.765625q-0.859375 0.234375 -1.671875 0.234375q-1.453125 0 -2.1875 -0.875q-0.734375 -0.890625 -0.734375 -2.5l0 -7.859375l-2.3125 0l0 -1.6875l2.3125 0l0 -3.0625l2.15625 0zm10.167969 15.984375q-2.578125 0 -4.203125 -1.6875q-1.609375 -1.703125 -1.609375 -4.53125l0 -0.40625q0 -1.890625 0.71875 -3.359375q0.71875 -1.484375 2.015625 -2.328125q1.296875 -0.84375 2.8125 -0.84375q2.46875 0 3.828125 1.640625q1.375 1.625 1.375 4.65625l0 0.90625l-8.578125 0q0.046875 1.875 1.09375 3.03125q1.046875 1.15625 2.65625 1.15625q1.15625 0 1.953125 -0.46875q0.796875 -0.46875 1.390625 -1.25l1.328125 1.03125q-1.59375 2.453125 -4.78125 2.453125zm-0.265625 -11.375q-1.3125 0 -2.203125 0.96875q-0.890625 0.953125 -1.109375 2.671875l6.359375 0l0 -0.171875q-0.09375 -1.640625 -0.890625 -2.546875q-0.796875 -0.921875 -2.15625 -0.921875zm13.839844 0.40625q-0.484375 -0.078125 -1.0625 -0.078125q-2.125 0 -2.890625 1.8125l0 9.0l-2.171875 0l0 -12.6875l2.109375 0l0.03125 1.46875q1.078125 -1.703125 3.03125 -1.703125q0.625 0 0.953125 0.171875l0 2.015625zm9.386719 7.375q0 -0.890625 -0.671875 -1.375q-0.65625 -0.484375 -2.3125 -0.828125q-1.640625 -0.359375 -2.609375 -0.84375q-0.96875 -0.5 -1.4375 -1.171875q-0.453125 -0.6875 -0.453125 -1.625q0 -1.5625 1.3125 -2.640625q1.328125 -1.078125 3.375 -1.078125q2.15625 0 3.5 1.125q1.34375 1.109375 1.34375 2.84375l-2.1875 0q0 -0.890625 -0.75 -1.53125q-0.75 -0.65625 -1.90625 -0.65625q-1.1875 0 -1.859375 0.515625q-0.65625 0.515625 -0.65625 1.359375q0 0.78125 0.609375 1.1875q0.625 0.390625 2.25 0.75q1.625 0.359375 2.625 0.875q1.015625 0.5 1.5 1.21875q0.484375 0.703125 0.484375 1.71875q0 1.703125 -1.359375 2.734375q-1.359375 1.015625 -3.515625 1.015625q-1.53125 0 -2.703125 -0.53125q-1.171875 -0.546875 -1.84375 -1.515625q-0.65625 -0.96875 -0.65625 -2.09375l2.171875 0q0.0625 1.09375 0.875 1.734375q0.8125 0.640625 2.15625 0.640625q1.21875 0 1.96875 -0.5q0.75 -0.5 0.75 -1.328125z" fill-rule="nonzero"/><path fill="#ffffff" d="m231.77428 286.2362l162.23622 0l0 87.90552l-162.23622 0z" fill-rule="evenodd"/><path stroke="#000000" stroke-width="1.0" stroke-linejoin="round" stroke-linecap="butt" d="m231.77428 286.2362l162.23622 0l0 87.90552l-162.23622 0z" fill-rule="evenodd"/><path fill="#000000" d="m251.37091 336.88522l8.078125 0l0 1.84375l-10.34375 0l0 -17.0625l2.265625 0l0 15.21875zm23.757812 1.84375l-2.265625 0l-8.578125 -13.15625l0 13.15625l-2.265625 0l0 -17.0625l2.265625 0l8.609375 13.203125l0 -13.203125l2.234375 0l0 17.0625zm13.6328125 -4.453125l-7.15625 0l-1.59375 4.453125l-2.328125 0l6.515625 -17.0625l1.96875 0l6.53125 17.0625l-2.3125 0l-1.625 -4.453125zm-6.46875 -1.859375l5.796875 0l-2.90625 -7.96875l-2.890625 7.96875zm24.519531 -2.84375l4.75 0l0 2.046875l-4.75 0l0 5.390625l-2.1875 0l0 -5.390625l-4.75 0l0 -2.046875l4.75 0l0 -4.984375l2.1875 0l0 4.984375zm14.0625 9.15625l0 -11.0l-2.015625 0l0 -1.6875l2.015625 0l0 -1.078125q0 -2.109375 1.203125 -3.296875q1.21875 -1.1875 3.4375 -1.1875q1.3125 0 3.3125 0.71875l-0.359375 1.828125q-1.46875 -0.59375 -2.796875 -0.59375q-1.390625 0 -2.015625 0.640625q-0.609375 0.625 -0.609375 1.875l0 1.09375l2.59375 0l0 1.6875l-2.59375 0l0 11.0l-2.171875 0zm9.03125 0l-2.1875 0l0 -12.6875l2.1875 0l0 12.6875zm5.8828125 0l-2.171875 0l0 -18.0l2.171875 0l0 18.0zm6.4023438 -15.75l0 3.0625l2.375 0l0 1.6875l-2.375 0l0 7.859375q0 0.765625 0.3125 1.140625q0.328125 0.375 1.09375 0.375q0.375 0 1.03125 -0.140625l0 1.765625q-0.859375 0.234375 -1.671875 0.234375q-1.453125 0 -2.1875 -0.875q-0.734375 -0.890625 -0.734375 -2.5l0 -7.859375l-2.3125 0l0 -1.6875l2.3125 0l0 -3.0625l2.15625 0zm10.167969 15.984375q-2.578125 0 -4.203125 -1.6875q-1.609375 -1.703125 -1.609375 -4.53125l0 -0.40625q0 -1.890625 0.71875 -3.359375q0.71875 -1.484375 2.015625 -2.328125q1.296875 -0.84375 2.8125 -0.84375q2.46875 0 3.828125 1.640625q1.375 1.625 1.375 4.65625l0 0.90625l-8.578125 0q0.046875 1.875 1.09375 3.03125q1.046875 1.15625 2.65625 1.15625q1.15625 0 1.953125 -0.46875q0.796875 -0.46875 1.390625 -1.25l1.328125 1.03125q-1.59375 2.453125 -4.78125 2.453125zm-0.265625 -11.375q-1.3125 0 -2.203125 0.96875q-0.890625 0.953125 -1.109375 2.671875l6.359375 0l0 -0.171875q-0.09375 -1.640625 -0.890625 -2.546875q-0.796875 -0.921875 -2.15625 -0.921875zm13.839844 0.40625q-0.484375 -0.078125 -1.0625 -0.078125q-2.125 0 -2.890625 1.8125l0 9.0l-2.171875 0l0 -12.6875l2.109375 0l0.03125 1.46875q1.078125 -1.703125 3.03125 -1.703125q0.625 0 0.953125 0.171875l0 2.015625zm9.386719 7.375q0 -0.890625 -0.671875 -1.375q-0.65625 -0.484375 -2.3125 -0.828125q-1.640625 -0.359375 -2.609375 -0.84375q-0.96875 -0.5 -1.4375 -1.171875q-0.453125 -0.6875 -0.453125 -1.625q0 -1.5625 1.3125 -2.640625q1.328125 -1.078125 3.375 -1.078125q2.15625 0 3.5 1.125q1.34375 1.109375 1.34375 2.84375l-2.1875 0q0 -0.890625 -0.75 -1.53125q-0.75 -0.65625 -1.90625 -0.65625q-1.1875 0 -1.859375 0.515625q-0.65625 0.515625 -0.65625 1.359375q0 0.78125 0.609375 1.1875q0.625 0.390625 2.25 0.75q1.625 0.359375 2.625 0.875q1.015625 0.5 1.5 1.21875q0.484375 0.703125 0.484375 1.71875q0 1.703125 -1.359375 2.734375q-1.359375 1.015625 -3.515625 1.015625q-1.53125 0 -2.703125 -0.53125q-1.171875 -0.546875 -1.84375 -1.515625q-0.65625 -0.96875 -0.65625 -2.09375l2.171875 0q0.0625 1.09375 0.875 1.734375q0.8125 0.640625 2.15625 0.640625q1.21875 0 1.96875 -0.5q0.75 -0.5 0.75 -1.328125z" fill-rule="nonzero"/><path fill="#000000" fill-opacity="0.0" d="m394.0105 192.16011l78.39371 0" fill-rule="evenodd"/><path stroke="#000000" stroke-width="1.0" stroke-linejoin="round" stroke-linecap="butt" d="m394.0105 192.16011l72.39371 0" fill-rule="evenodd"/><path fill="#000000" stroke="#000000" stroke-width="1.0" stroke-linecap="butt" d="m466.4042 193.81184l4.538086 -1.6517334l-4.538086 -1.6517334z" fill-rule="evenodd"/><path fill="#000000" fill-opacity="0.0" d="m394.0105 330.18896l78.39371 0" fill-rule="evenodd"/><path stroke="#000000" stroke-width="1.0" stroke-linejoin="round" stroke-linecap="butt" d="m394.0105 330.18896l72.39371 0" fill-rule="evenodd"/><path fill="#000000" stroke="#000000" stroke-width="1.0" stroke-linecap="butt" d="m466.4042 331.8407l4.538086 -1.6517334l-4.538086 -1.6517334z" fill-rule="evenodd"/><path fill="#000000" fill-opacity="0.0" d="m843.00134 260.91602l78.39368 0" fill-rule="evenodd"/><path stroke="#000000" stroke-width="1.0" stroke-linejoin="round" stroke-linecap="butt" d="m843.00134 260.91602l72.39368 0" fill-rule="evenodd"/><path fill="#000000" stroke="#000000" stroke-width="1.0" stroke-linecap="butt" d="m915.395 262.56775l4.538086 -1.6517334l-4.538086 -1.6517334z" fill-rule="evenodd"/><path fill="#000000" fill-opacity="0.0" d="m634.63257 192.16011l78.48816 0.3464508" fill-rule="evenodd"/><path stroke="#000000" stroke-width="1.0" stroke-linejoin="round" stroke-linecap="butt" d="m634.63257 192.16011l72.48822 0.31996155" fill-rule="evenodd"/><path fill="#000000" stroke="#000000" stroke-width="1.0" stroke-linecap="butt" d="m707.1135 194.13179l4.545349 -1.6316833l-4.5307617 -1.6717529z" fill-rule="evenodd"/><path fill="#000000" fill-opacity="0.0" d="m634.63257 330.18896l78.96063 -0.18896484" fill-rule="evenodd"/><path stroke="#000000" stroke-width="1.0" stroke-linejoin="round" stroke-linecap="butt" d="m634.63257 330.18896l72.96063 -0.17462158" fill-rule="evenodd"/><path fill="#000000" stroke="#000000" stroke-width="1.0" stroke-linecap="butt" d="m707.59717 331.66608l4.5341187 -1.6625671l-4.542053 -1.6408691z" fill-rule="evenodd"/><path fill="#000000" fill-opacity="0.0" d="m231.77428 330.18896l-131.90552 -0.1574707" fill-rule="evenodd"/><path stroke="#000000" stroke-width="1.0" stroke-linejoin="round" stroke-linecap="butt" d="m225.77428 330.18182l-125.90551 -0.15032959" fill-rule="evenodd"/><path fill="#000000" stroke="#000000" stroke-width="1.0" stroke-linecap="butt" d="m225.77231 331.83356l4.5400696 -1.6463318l-4.5361176 -1.657135z" fill-rule="evenodd"/><path fill="#000000" fill-opacity="0.0" d="m231.77428 192.16011l-133.51181 -0.40945435" fill-rule="evenodd"/><path stroke="#000000" stroke-width="1.0" stroke-linejoin="round" stroke-linecap="butt" d="m225.77429 192.14171l-127.511826 -0.39105225" fill-rule="evenodd"/><path fill="#000000" stroke="#000000" stroke-width="1.0" stroke-linecap="butt" d="m225.76924 193.79343l4.5431366 -1.6378021l-4.5330048 -1.6656494z" fill-rule="evenodd"/><path fill="#000000" fill-opacity="0.0" d="m34.230972 175.53018l64.031494 0l0 33.606308l-64.031494 0z" fill-rule="evenodd"/><path fill="#000000" d="m53.728127 194.66458l-3.96875 0l-0.890625 2.46875l-1.28125 0l3.609375 -9.46875l1.09375 0l3.625 9.46875l-1.28125 0l-0.90625 -2.46875zm-3.59375 -1.03125l3.234375 0l-1.625 -4.4375l-1.609375 4.4375zm14.335144 3.5l-1.25 0l-4.765625 -7.296875l0 7.296875l-1.265625 0l0 -9.46875l1.265625 0l4.78125 7.328125l0 -7.328125l1.234375 0l0 9.46875zm8.578323 -8.453125l-3.046875 0l0 8.453125l-1.234375 0l0 -8.453125l-3.046875 0l0 -1.015625l7.328125 0l0 1.015625zm9.679199 5.984375l-3.96875 0l-0.890625 2.46875l-1.28125 0l3.609375 -9.46875l1.09375 0l3.625 9.46875l-1.28125 0l-0.90625 -2.46875zm-3.59375 -1.03125l3.234375 0l-1.625 -4.4375l-1.609375 4.4375z" fill-rule="nonzero"/><path fill="#ffffff" d="m231.77428 39.480316l162.23622 0l0 87.90551l-162.23622 0z" fill-rule="evenodd"/><path stroke="#000000" stroke-width="1.0" stroke-linejoin="round" stroke-linecap="butt" d="m231.77428 39.480316l162.23622 0l0 87.90551l-162.23622 0z" fill-rule="evenodd"/><path fill="#000000" d="m291.3006 84.44182l-7.15625 0l0 7.53125l-2.25 0l0 -17.0625l10.5625 0l0 1.84375l-8.3125 0l0 5.84375l7.15625 0l0 1.84375zm5.875 7.53125l-2.171875 0l0 -12.6875l2.171875 0l0 12.6875zm-2.34375 -16.046875q0 -0.53125 0.3125 -0.890625q0.328125 -0.359375 0.953125 -0.359375q0.640625 0 0.96875 0.359375q0.328125 0.359375 0.328125 0.890625q0 0.53125 -0.328125 0.890625q-0.328125 0.34375 -0.96875 0.34375q-0.625 0 -0.953125 -0.34375q-0.3125 -0.359375 -0.3125 -0.890625zm8.167969 16.046875l-2.171875 0l0 -18.0l2.171875 0l0 18.0zm6.4023438 -15.75l0 3.0625l2.375 0l0 1.6875l-2.375 0l0 7.859375q0 0.765625 0.3125 1.140625q0.328125 0.375 1.09375 0.375q0.375 0 1.03125 -0.140625l0 1.765625q-0.859375 0.234375 -1.671875 0.234375q-1.453125 0 -2.1875 -0.875q-0.734375 -0.890625 -0.734375 -2.5l0 -7.859375l-2.3125 0l0 -1.6875l2.3125 0l0 -3.0625l2.15625 0zm10.167969 15.984375q-2.578125 0 -4.203125 -1.6875q-1.609375 -1.703125 -1.609375 -4.53125l0 -0.40625q0 -1.890625 0.71875 -3.359375q0.71875 -1.484375 2.015625 -2.328125q1.296875 -0.84375 2.8125 -0.84375q2.46875 0 3.828125 1.640625q1.375 1.625 1.375 4.65625l0 0.90625l-8.578125 0q0.046875 1.875 1.09375 3.03125q1.046875 1.15625 2.65625 1.15625q1.15625 0 1.953125 -0.46875q0.796875 -0.46875 1.390625 -1.25l1.328125 1.03125q-1.59375 2.453125 -4.78125 2.453125zm-0.265625 -11.375q-1.3125 0 -2.203125 0.96875q-0.890625 0.953125 -1.109375 2.671875l6.359375 0l0 -0.171875q-0.09375 -1.640625 -0.890625 -2.546875q-0.796875 -0.921875 -2.15625 -0.921875zm13.839844 0.40625q-0.484375 -0.078125 -1.0625 -0.078125q-2.125 0 -2.890625 1.8125l0 9.0l-2.171875 0l0 -12.6875l2.109375 0l0.03125 1.46875q1.078125 -1.703125 3.03125 -1.703125q0.625 0 0.953125 0.171875l0 2.015625zm9.386719 7.375q0 -0.890625 -0.671875 -1.375q-0.65625 -0.484375 -2.3125 -0.828125q-1.640625 -0.359375 -2.609375 -0.84375q-0.96875 -0.5 -1.4375 -1.171875q-0.453125 -0.6875 -0.453125 -1.625q0 -1.5625 1.3125 -2.640625q1.328125 -1.078125 3.375 -1.078125q2.15625 0 3.5 1.125q1.34375 1.109375 1.34375 2.84375l-2.1875 0q0 -0.890625 -0.75 -1.53125q-0.75 -0.65625 -1.90625 -0.65625q-1.1875 0 -1.859375 0.515625q-0.65625 0.515625 -0.65625 1.359375q0 0.78125 0.609375 1.1875q0.625 0.390625 2.25 0.75q1.625 0.359375 2.625 0.875q1.015625 0.5 1.5 1.21875q0.484375 0.703125 0.484375 1.71875q0 1.703125 -1.359375 2.734375q-1.359375 1.015625 -3.515625 1.015625q-1.53125 0 -2.703125 -0.53125q-1.171875 -0.546875 -1.84375 -1.515625q-0.65625 -0.96875 -0.65625 -2.09375l2.171875 0q0.0625 1.09375 0.875 1.734375q0.8125 0.640625 2.15625 0.640625q1.21875 0 1.96875 -0.5q0.75 -0.5 0.75 -1.328125z" fill-rule="nonzero"/><path fill="#000000" fill-opacity="0.0" d="m232.57742 83.74803l-133.51181 -0.40944672" fill-rule="evenodd"/><path stroke="#000000" stroke-width="1.0" stroke-linejoin="round" stroke-linecap="butt" d="m226.57745 83.72963l-127.51183 -0.39104462" fill-rule="evenodd"/><path fill="#000000" stroke="#000000" stroke-width="1.0" stroke-linecap="butt" d="m226.57239 85.381355l4.543152 -1.6378098l-4.53302 -1.6656418z" fill-rule="evenodd"/><path fill="#000000" fill-opacity="0.0" d="m34.230972 66.74016l64.031494 0l0 33.6063l-64.031494 0z" fill-rule="evenodd"/><path fill="#000000" d="m53.129456 88.34331l-1.25 0l0 -4.375l-4.78125 0l0 4.375l-1.25 0l0 -9.46875l1.25 0l0 4.0625l4.78125 0l0 -4.0625l1.25 0l0 9.46875zm3.5639954 0l-1.25 0l0 -9.46875l1.25 0l0 9.46875zm9.281143 -1.25q-0.484375 0.703125 -1.34375 1.046875q-0.859375 0.328125 -2.0 0.328125q-1.171875 0 -2.0625 -0.53125q-0.890625 -0.546875 -1.390625 -1.546875q-0.484375 -1.015625 -0.5 -2.328125l0 -0.828125q0 -2.140625 1.0 -3.3125q1.0 -1.1875 2.796875 -1.1875q1.484375 0 2.390625 0.765625q0.90625 0.75 1.109375 2.140625l-1.25 0q-0.34375 -1.875 -2.234375 -1.875q-1.265625 0 -1.90625 0.890625q-0.640625 0.875 -0.65625 2.546875l0 0.78125q0 1.59375 0.71875 2.53125q0.734375 0.9375 1.984375 0.9375q0.703125 0 1.234375 -0.15625q0.53125 -0.15625 0.875 -0.53125l0 -2.125l-2.203125 0l0 -1.015625l3.4375 0l0 3.46875zm9.359741 1.25l-1.25 0l0 -4.375l-4.78125 0l0 4.375l-1.25 0l0 -9.46875l1.25 0l0 4.0625l4.78125 0l0 -4.0625l1.25 0l0 9.46875zm6.457245 -1.015625l5.421875 0l0 1.015625l-6.890625 0l0 -0.9375l5.1875 -7.515625l-5.109375 0l0 -1.015625l6.609375 0l0 0.90625l-5.21875 7.546875z" fill-rule="nonzero"/><path fill="#000000" fill-opacity="0.0" d="m394.0105 83.43307l47.40158 0.25196838" fill-rule="evenodd"/><path stroke="#000000" stroke-width="1.0" stroke-linejoin="round" stroke-linecap="butt" d="m394.0105 83.43307l47.40158 0.25196838" fill-rule="evenodd"/><path fill="#000000" fill-opacity="0.0" d="m440.7874 83.821526l-0.34646606 108.56693" fill-rule="evenodd"/><path stroke="#000000" stroke-width="1.0" stroke-linejoin="round" stroke-linecap="butt" d="m440.7874 83.821526l-0.32733154 102.56696" fill-rule="evenodd"/><path fill="#000000" stroke="#000000" stroke-width="1.0" stroke-linecap="butt" d="m438.80838 186.38321l1.6372375 4.54335l1.6661987 -4.5328064z" fill-rule="evenodd"/><path fill="#ffffff" d="m134.65617 374.14172l60.72441 0l0 50.362213l-60.72441 0z" fill-rule="evenodd"/><path stroke="#000000" stroke-width="1.0" stroke-linejoin="round" stroke-linecap="butt" d="m134.65617 374.14172l60.72441 0l0 50.362213l-60.72441 0z" fill-rule="evenodd"/><path fill="#000000" d="m146.07283 404.40283l0 -10.421875l3.40625 0q1.703125 0 2.546875 0.703125q0.859375 0.703125 0.859375 2.078125q0 0.734375 -0.421875 1.296875q-0.40625 0.546875 -1.125 0.859375q0.859375 0.234375 1.34375 0.90625q0.484375 0.65625 0.484375 1.578125q0 1.390625 -0.90625 2.203125q-0.90625 0.796875 -2.5625 0.796875l-3.625 0zm1.375 -4.875l0 3.75l2.28125 0q0.953125 0 1.5 -0.5q0.5625 -0.5 0.5625 -1.359375q0 -1.890625 -2.046875 -1.890625l-2.296875 0zm0 -1.09375l2.078125 0q0.90625 0 1.4375 -0.453125q0.546875 -0.453125 0.546875 -1.234375q0 -0.859375 -0.5 -1.234375q-0.5 -0.390625 -1.53125 -0.390625l-2.03125 0l0 3.3125zm8.983749 5.96875l-1.328125 0l0 -7.75l1.328125 0l0 7.75zm-1.421875 -9.796875q0 -0.328125 0.1875 -0.546875q0.203125 -0.21875 0.578125 -0.21875q0.390625 0 0.59375 0.21875q0.203125 0.21875 0.203125 0.546875q0 0.328125 -0.203125 0.546875q-0.203125 0.203125 -0.59375 0.203125q-0.375 0 -0.578125 -0.203125q-0.1875 -0.21875 -0.1875 -0.546875zm8.322342 9.796875q-0.109375 -0.234375 -0.1875 -0.8125q-0.921875 0.953125 -2.203125 0.953125q-1.140625 0 -1.875 -0.640625q-0.734375 -0.65625 -0.734375 -1.640625q0 -1.21875 0.921875 -1.875q0.921875 -0.671875 2.578125 -0.671875l1.296875 0l0 -0.609375q0 -0.703125 -0.421875 -1.109375q-0.40625 -0.40625 -1.21875 -0.40625q-0.703125 0 -1.1875 0.359375q-0.484375 0.34375 -0.484375 0.859375l-1.328125 0q0 -0.578125 0.40625 -1.109375q0.421875 -0.546875 1.125 -0.859375q0.703125 -0.328125 1.546875 -0.328125q1.34375 0 2.09375 0.671875q0.765625 0.671875 0.796875 1.84375l0 3.5625q0 1.0625 0.265625 1.703125l0 0.109375l-1.390625 0zm-2.203125 -1.015625q0.625 0 1.1875 -0.3125q0.5625 -0.328125 0.8125 -0.84375l0 -1.578125l-1.046875 0q-2.421875 0 -2.421875 1.421875q0 0.625 0.40625 0.96875q0.421875 0.34375 1.0625 0.34375zm9.9096985 -1.03125q0 -0.546875 -0.40625 -0.84375q-0.40625 -0.296875 -1.421875 -0.5q-1.0 -0.21875 -1.59375 -0.515625q-0.578125 -0.3125 -0.875 -0.71875q-0.28125 -0.421875 -0.28125 -1.0q0 -0.9375 0.8125 -1.59375q0.8125 -0.671875 2.0625 -0.671875q1.3125 0 2.125 0.6875q0.828125 0.671875 0.828125 1.734375l-1.328125 0q0 -0.546875 -0.46875 -0.9375q-0.453125 -0.390625 -1.15625 -0.390625q-0.734375 0 -1.140625 0.3125q-0.40625 0.3125 -0.40625 0.828125q0 0.46875 0.375 0.71875q0.390625 0.25 1.375 0.46875q1.0 0.21875 1.609375 0.53125q0.609375 0.296875 0.90625 0.734375q0.296875 0.4375 0.296875 1.0625q0 1.03125 -0.828125 1.65625q-0.828125 0.625 -2.15625 0.625q-0.921875 0 -1.640625 -0.328125q-0.71875 -0.328125 -1.125 -0.921875q-0.390625 -0.59375 -0.390625 -1.28125l1.3125 0q0.046875 0.671875 0.53125 1.0625q0.5 0.390625 1.3125 0.390625q0.75 0 1.203125 -0.296875q0.46875 -0.3125 0.46875 -0.8125zm13.789581 -7.234375l-3.34375 0l0 9.28125l-1.375 0l0 -9.28125l-3.34375 0l0 -1.140625l8.0625 0l0 1.140625z" fill-rule="nonzero"/><path fill="#000000" fill-opacity="0.0" d="m165.01837 374.14172l-0.03149414 -43.905518" fill-rule="evenodd"/><path stroke="#000000" stroke-width="1.0" stroke-linejoin="round" stroke-linecap="butt" d="m165.01837 374.14172l-0.027191162 -37.905518" fill-rule="evenodd"/><path fill="#000000" stroke="#000000" stroke-width="1.0" stroke-linecap="butt" d="m166.64291 336.23505l-1.6549835 -4.5369263l-1.6484833 4.539276z" fill-rule="evenodd"/></g></svg>