<svg version="1.1" viewBox="0.0 0.0 527.498687664042 152.57742782152232" fill="none" stroke="none" stroke-linecap="square" stroke-miterlimit="10" xmlns:xlink="http://www.w3.org/1999/xlink" xmlns="http://www.w3.org/2000/svg"><clipPath id="p.0"><path d="m0 0l527.49866 0l0 152.57742l-527.49866 0l0 -152.57742z" clip-rule="nonzero"/></clipPath><g clip-path="url(#p.0)"><path fill="#000000" fill-opacity="0.0" d="m0 0l527.49866 0l0 152.57742l-527.49866 0z" fill-rule="evenodd"/><path fill="#d9ead3" d="m389.12598 33.227036l115.40158 0l0 63.1811l-115.40158 0z" fill-rule="evenodd"/><path stroke="#000000" stroke-width="1.0" stroke-linejoin="round" stroke-linecap="butt" d="m389.12598 33.227036l115.40158 0l0 63.1811l-115.40158 0z" fill-rule="evenodd"/><path fill="#000000" d="m425.29553 65.64633l-4.765625 0l0 5.03125l-1.5 0l0 -11.374996l7.046875 0l0 1.234375l-5.546875 0l0 3.8906212l4.765625 0l0 1.21875zm8.84375 0l-4.765625 0l0 5.03125l-1.5 0l0 -11.374996l7.046875 0l0 1.234375l-5.546875 0l0 3.8906212l4.765625 0l0 1.21875zm10.59375 -5.109371l-3.65625 0l0 10.140621l-1.5 0l0 -10.140621l-3.640625 0l0 -1.234375l8.796875 0l0 1.234375zm12.2421875 5.999996q0 1.9375 -0.890625 3.125q-0.875 1.171875 -2.375 1.171875q-1.546875 0 -2.421875 -0.984375l0 4.078125l-1.453125 0l0 -11.703121l1.328125 0l0.0625 0.9375q0.890625 -1.09375 2.453125 -1.09375q1.53125 0 2.40625 1.15625q0.890625 1.1406212 0.890625 3.1874962l0 0.125zm-1.4375 -0.15625q0 -1.4375 -0.609375 -2.265625q-0.609375 -0.8281212 -1.671875 -0.8281212q-1.3125 0 -1.96875 1.1718712l0 4.03125q0.640625 1.15625 1.984375 1.15625q1.03125 0 1.640625 -0.8125q0.625 -0.828125 0.625 -2.453125zm4.8515625 4.296875l-1.453125 0l0 -11.999996l1.453125 0l0 11.999996zm1.9296875 -4.3125q0 -1.234375 0.484375 -2.21875q0.484375 -0.9999962 1.359375 -1.5312462q0.875 -0.546875 1.984375 -0.546875q1.734375 0 2.796875 1.203125q1.0625 1.1874962 1.0625 3.1718712l0 0.09375q0 1.234375 -0.46875 2.21875q-0.46875 0.984375 -1.359375 1.53125q-0.875 0.546875 -2.015625 0.546875q-1.71875 0 -2.78125 -1.1875q-1.0625 -1.203125 -1.0625 -3.171875l0 -0.109375zm1.453125 0.171875q0 1.40625 0.640625 2.265625q0.65625 0.84375 1.75 0.84375q1.109375 0 1.75 -0.859375q0.65625 -0.859375 0.65625 -2.421875q0 -1.390625 -0.671875 -2.25q-0.65625 -0.8593712 -1.75 -0.8593712q-1.0625 0 -1.71875 0.8593712q-0.65625 0.84375 -0.65625 2.421875zm10.015625 -6.359371l0 2.046875l1.578125 0l0 1.109375l-1.578125 0l0 5.249996q0 0.5 0.203125 0.765625q0.21875 0.25 0.71875 0.25q0.25 0 0.6875 -0.09375l0 1.171875q-0.5625 0.15625 -1.109375 0.15625q-0.96875 0 -1.46875 -0.578125q-0.484375 -0.59375 -0.484375 -1.671875l0 -5.249996l-1.53125 0l0 -1.109375l1.53125 0l0 -2.046875l1.453125 0z" fill-rule="nonzero"/><path fill="#f5d0d0" d="m208.24278 33.227036l115.401566 0l0 63.1811l-115.401566 0z" fill-rule="evenodd"/><path stroke="#000000" stroke-width="1.0" stroke-linejoin="round" stroke-linecap="butt" d="m208.24278 33.227036l115.401566 0l0 63.1811l-115.401566 0z" fill-rule="evenodd"/><path fill="#000000" d="m230.7756 65.59946q-1.921875 -0.546875 -2.8125 -1.359375q-0.875 -0.8124962 -0.875 -1.9999962q0 -1.34375 1.078125 -2.21875q1.078125 -0.875 2.796875 -0.875q1.171875 0 2.078125 0.453125q0.921875 0.453125 1.421875 1.25q0.515625 0.796875 0.515625 1.734375l-1.515625 0q0 -1.03125 -0.65625 -1.609375q-0.65625 -0.59375 -1.84375 -0.59375q-1.109375 0 -1.734375 0.484375q-0.625 0.484375 -0.625 1.359375q0 0.6875 0.59375 1.171875q0.59375 0.484375 2.0 0.8906212q1.421875 0.390625 2.21875 0.875q0.8125 0.46875 1.1875 1.109375q0.390625 0.640625 0.390625 1.515625q0 1.375 -1.078125 2.21875q-1.078125 0.828125 -2.875 0.828125q-1.171875 0 -2.1875 -0.453125q-1.015625 -0.453125 -1.578125 -1.234375q-0.546875 -0.78125 -0.546875 -1.765625l1.515625 0q0 1.03125 0.75 1.625q0.765625 0.59375 2.046875 0.59375q1.1875 0 1.8125 -0.484375q0.640625 -0.484375 0.640625 -1.3125q0 -0.84375 -0.59375 -1.296875q-0.578125 -0.453125 -2.125 -0.90625zm6.1484375 5.078125l0 -11.374996l3.203125 0q1.484375 0 2.625 0.65625q1.140625 0.65625 1.765625 1.875q0.625 1.203125 0.625 2.7656212l0 0.734375q0 1.609375 -0.625 2.828125q-0.609375 1.203125 -1.765625 1.859375q-1.15625 0.640625 -2.6875 0.65625l-3.140625 0zm1.5 -10.140621l0 8.906246l1.578125 0q1.734375 0 2.6875 -1.078125q0.96875 -1.078125 0.96875 -3.0625l0 -0.671875q0 -1.9374962 -0.90625 -2.9999962q-0.90625 -1.078125 -2.578125 -1.09375l-1.75 0zm13.1640625 5.531246l-2.671875 0l0 4.609375l-1.515625 0l0 -11.374996l3.765625 0q1.921875 0 2.953125 0.875q1.046875 0.875 1.046875 2.546875q0 1.0625 -0.578125 1.8593712q-0.578125 0.78125 -1.59375 1.171875l2.671875 4.828125l0 0.09375l-1.609375 0l-2.46875 -4.609375zm-2.671875 -1.21875l2.296875 0q1.125 0 1.78125 -0.578125q0.65625 -0.5781212 0.65625 -1.5468712q0 -1.0625 -0.625 -1.625q-0.625 -0.5625 -1.8125 -0.5625l-2.296875 0l0 4.312496zm11.734375 1.53125q0 -1.953125 0.921875 -3.1249962q0.921875 -1.1875 2.40625 -1.1875q1.484375 0 2.359375 1.015625l0 -4.40625l1.4375 0l0 11.999996l-1.328125 0l-0.0625 -0.90625q-0.875 1.0625 -2.421875 1.0625q-1.46875 0 -2.390625 -1.203125q-0.921875 -1.203125 -0.921875 -3.140625l0 -0.109375zm1.4375 0.15625q0 1.4375 0.59375 2.25q0.59375 0.8125 1.640625 0.8125q1.375 0 2.015625 -1.234375l0 -3.875q-0.65625 -1.2031212 -2.0 -1.2031212q-1.0625 0 -1.65625 0.8281212q-0.59375 0.8125 -0.59375 2.421875zm11.4453125 4.296875q-1.71875 0 -2.796875 -1.125q-1.078125 -1.140625 -1.078125 -3.03125l0 -0.265625q0 -1.25 0.46875 -2.234375q0.484375 -0.9999962 1.34375 -1.5468712q0.875 -0.5625 1.875 -0.5625q1.65625 0 2.5625 1.09375q0.921875 1.0781212 0.921875 3.0937462l0 0.609375l-5.734375 0q0.03125 1.25 0.734375 2.015625q0.703125 0.765625 1.78125 0.765625q0.765625 0 1.296875 -0.3125q0.53125 -0.3125 0.921875 -0.828125l0.890625 0.6875q-1.0625 1.640625 -3.1875 1.640625zm-0.1875 -7.578121q-0.875 0 -1.46875 0.640625q-0.59375 0.6249962 -0.734375 1.7812462l4.234375 0l0 -0.109375q-0.0625 -1.109375 -0.59375 -1.7031212q-0.53125 -0.609375 -1.4375 -0.609375zm7.84375 5.453121l2.09375 -6.484371l1.46875 0l-3.03125 8.453121l-1.09375 0l-3.0625 -8.453121l1.46875 0l2.15625 6.484371zm6.53125 1.96875l-1.453125 0l0 -8.453121l1.453125 0l0 8.453121zm-1.5625 -10.703121q0 -0.34375 0.203125 -0.578125q0.21875 -0.25 0.640625 -0.25q0.421875 0 0.640625 0.25q0.21875 0.234375 0.21875 0.59375q0 0.34375 -0.21875 0.578125q-0.21875 0.234375 -0.640625 0.234375q-0.421875 0 -0.640625 -0.234375q-0.203125 -0.234375 -0.203125 -0.59375zm7.2578125 9.671871q0.78125 0 1.359375 -0.46875q0.578125 -0.46875 0.640625 -1.171875l1.359375 0q-0.03125 0.734375 -0.5 1.390625q-0.453125 0.65625 -1.234375 1.046875q-0.765625 0.390625 -1.625 0.390625q-1.71875 0 -2.75 -1.15625q-1.015625 -1.15625 -1.015625 -3.15625l0 -0.234375q0 -1.234375 0.453125 -2.1875q0.453125 -0.9687462 1.296875 -1.4999962q0.859375 -0.53125 2.015625 -0.53125q1.421875 0 2.359375 0.859375q0.9375 0.84375 1.0 2.2031212l-1.359375 0q-0.0625 -0.828125 -0.625 -1.3437462q-0.5625 -0.53125 -1.375 -0.53125q-1.109375 0 -1.71875 0.7968712q-0.59375 0.78125 -0.59375 2.28125l0 0.28125q0 1.453125 0.59375 2.25q0.609375 0.78125 1.71875 0.78125zm8.5 1.1875q-1.71875 0 -2.796875 -1.125q-1.078125 -1.140625 -1.078125 -3.03125l0 -0.265625q0 -1.25 0.46875 -2.234375q0.484375 -0.9999962 1.34375 -1.5468712q0.875 -0.5625 1.875 -0.5625q1.65625 0 2.5625 1.09375q0.921875 1.0781212 0.921875 3.0937462l0 0.609375l-5.734375 0q0.03125 1.25 0.734375 2.015625q0.703125 0.765625 1.78125 0.765625q0.765625 0 1.296875 -0.3125q0.53125 -0.3125 0.921875 -0.828125l0.890625 0.6875q-1.0625 1.640625 -3.1875 1.640625zm-0.1875 -7.578121q-0.875 0 -1.46875 0.640625q-0.59375 0.6249962 -0.734375 1.7812462l4.234375 0l0 -0.109375q-0.0625 -1.109375 -0.59375 -1.7031212q-0.53125 -0.609375 -1.4375 -0.609375z" fill-rule="nonzero"/><path fill="#000000" fill-opacity="0.0" d="m323.64435 64.81759l65.480316 0" fill-rule="evenodd"/><path stroke="#000000" stroke-width="1.0" stroke-linejoin="round" stroke-linecap="butt" d="m323.64435 64.81759l59.480316 0" fill-rule="evenodd"/><path fill="#000000" stroke="#000000" stroke-width="1.0" stroke-linecap="butt" d="m383.12466 66.469315l4.5381165 -1.6517258l-4.5381165 -1.6517372z" fill-rule="evenodd"/><path fill="#f3f3f3" d="m27.362206 33.227036l115.40157 0l0 63.1811l-115.40157 0z" fill-rule="evenodd"/><path stroke="#000000" stroke-width="1.0" stroke-linejoin="round" stroke-linecap="butt" d="m27.362206 33.227036l115.40157 0l0 63.1811l-115.40157 0z" fill-rule="evenodd"/><path fill="#000000" d="m59.727055 55.47446l0.578125 -5.671875l5.828121 0l0 1.328125l-4.593746 0l-0.34375 3.109375q0.828125 -0.5 1.890625 -0.5q1.5624962 0 2.4687462 1.03125q0.921875 1.03125 0.921875 2.78125q0 1.75 -0.953125 2.765625q-0.953125 1.015625 -2.6562462 1.015625q-1.5 0 -2.453125 -0.828125q-0.953125 -0.84375 -1.09375 -2.328125l1.375 0q0.125 0.984375 0.6875 1.484375q0.5625 0.484375 1.484375 0.484375q1.015625 0 1.5781212 -0.6875q0.578125 -0.6875 0.578125 -1.890625q0 -1.140625 -0.625 -1.828125q-0.6093712 -0.703125 -1.6406212 -0.703125q-0.953125 0 -1.484375 0.421875l-0.390625 0.3125l-1.15625 -0.296875zm15.453121 0.84375q0 2.546875 -0.875 3.78125q-0.859375 1.234375 -2.703125 1.234375q-1.8125 0 -2.6875 -1.203125q-0.875 -1.21875 -0.90625 -3.609375l0 -1.9375q0 -2.5 0.859375 -3.71875q0.875 -1.21875 2.71875 -1.21875q1.84375 0 2.703125 1.171875q0.875 1.171875 0.890625 3.625l0 1.875zm-1.4375 -1.96875q0 -1.84375 -0.515625 -2.671875q-0.515625 -0.84375 -1.640625 -0.84375q-1.109375 0 -1.625 0.84375q-0.5 0.828125 -0.515625 2.5625l0 2.3125q0 1.84375 0.53125 2.71875q0.546875 0.875 1.625 0.875q1.078125 0 1.59375 -0.828125q0.515625 -0.828125 0.546875 -2.609375l0 -2.359375zm7.0234375 2.515625q0 -1.234375 0.484375 -2.21875q0.484375 -1.0 1.359375 -1.53125q0.875 -0.546875 1.984375 -0.546875q1.734375 0 2.796875 1.203125q1.0625 1.1875 1.0625 3.171875l0 0.09375q0 1.234375 -0.46875 2.21875q-0.46875 0.984375 -1.359375 1.53125q-0.875 0.546875 -2.015625 0.546875q-1.71875 0 -2.78125 -1.1875q-1.0625 -1.203125 -1.0625 -3.171875l0 -0.109375zm1.453125 0.171875q0 1.40625 0.640625 2.265625q0.65625 0.84375 1.75 0.84375q1.109375 0 1.75 -0.859375q0.65625 -0.859375 0.65625 -2.421875q0 -1.390625 -0.671875 -2.25q-0.65625 -0.859375 -1.75 -0.859375q-1.0625 0 -1.71875 0.859375q-0.65625 0.84375 -0.65625 2.421875zm9.500008 -3.296875q0.953125 -1.171875 2.5 -1.171875q2.671875 0 2.703125 3.015625l0 5.59375l-1.453125 0l0 -5.59375q0 -0.921875 -0.421875 -1.359375q-0.40625 -0.4375 -1.265625 -0.4375q-0.703125 0 -1.234375 0.375q-0.53125 0.375 -0.828125 0.984375l0 6.03125l-1.4531326 0l0 -12.0l1.4531326 0l0 4.5625zm8.71875 -1.015625l0.046875 0.9375q0.921875 -1.09375 2.5 -1.09375q1.78125 0 2.421875 1.359375q0.421875 -0.609375 1.09375 -0.984375q0.671875 -0.375 1.59375 -0.375q2.78125 0 2.828125 2.9375l0 5.671875l-1.4375 0l0 -5.578125q0 -0.90625 -0.421875 -1.359375q-0.40625 -0.453125 -1.390625 -0.453125q-0.796875 0 -1.328125 0.484375q-0.53125 0.484375 -0.625 1.296875l0 5.609375l-1.453125 0l0 -5.546875q0 -1.84375 -1.796875 -1.84375q-1.421875 0 -1.953125 1.21875l0 6.171875l-1.4375 0l0 -8.453125l1.359375 0z" fill-rule="nonzero"/><path fill="#000000" d="m51.04346 69.67758l0 2.046875l1.578125 0l0 1.109375l-1.578125 0l0 5.25q0 0.5 0.203125 0.765625q0.21875 0.25 0.71875 0.25q0.25 0 0.6875 -0.09375l0 1.171875q-0.5625 0.15625 -1.109375 0.15625q-0.96875 0 -1.46875 -0.578125q-0.484375 -0.59375 -0.484375 -1.671875l0 -5.25l-1.53125 0l0 -1.109375l1.53125 0l0 -2.046875l1.453125 0zm6.7734375 10.65625q-1.71875 0 -2.796875 -1.125q-1.078125 -1.140625 -1.078125 -3.03125l0 -0.265625q0 -1.25 0.46875 -2.234375q0.484375 -1.0 1.34375 -1.546875q0.875 -0.5625 1.875 -0.5625q1.65625 0 2.5625 1.09375q0.921875 1.078125 0.921875 3.09375l0 0.609375l-5.734375 0q0.03125 1.25 0.734375 2.015625q0.703125 0.765625 1.78125 0.765625q0.765625 0 1.296875 -0.3125q0.53125 -0.3125 0.921875 -0.828125l0.890625 0.6875q-1.0625 1.640625 -3.1875 1.640625zm-0.1875 -7.578125q-0.875 0 -1.46875 0.640625q-0.59375 0.625 -0.734375 1.78125l4.234375 0l0 -0.109375q-0.0625 -1.109375 -0.59375 -1.703125q-0.53125 -0.609375 -1.4375 -0.609375zm9.242184 0.265625q-0.328125 -0.0625 -0.71875 -0.0625q-1.421875 0 -1.921875 1.21875l0 6.0l-1.4531212 0l0 -8.453125l1.4062462 0l0.03125 0.96875q0.703125 -1.125 2.015625 -1.125q0.421875 0 0.640625 0.109375l0 1.34375zm2.6796875 -1.296875l0.046875 0.9375q0.921875 -1.09375 2.5 -1.09375q1.78125 0 2.421875 1.359375q0.421875 -0.609375 1.09375 -0.984375q0.671875 -0.375 1.59375 -0.375q2.78125 0 2.828125 2.9375l0 5.671875l-1.4375 0l0 -5.578125q0 -0.90625 -0.421875 -1.359375q-0.40625 -0.453125 -1.390625 -0.453125q-0.796875 0 -1.328125 0.484375q-0.53125 0.484375 -0.625 1.296875l0 5.609375l-1.453125 0l0 -5.546875q0 -1.84375 -1.796875 -1.84375q-1.421875 0 -1.953125 1.21875l0 6.171875l-1.4375 0l0 -8.453125l1.359375 0zm14.2421875 8.453125l-1.453125 0l0 -8.453125l1.453125 0l0 8.453125zm-1.5625 -10.703125q0 -0.34375 0.203125 -0.578125q0.21875 -0.25 0.640625 -0.25q0.421875 0 0.640625 0.25q0.21875 0.234375 0.21875 0.59375q0 0.34375 -0.21875 0.578125q-0.21875 0.234375 -0.640625 0.234375q-0.421875 0 -0.640625 -0.234375q-0.203125 -0.234375 -0.203125 -0.59375zm5.2421875 2.25l0.046875 1.0625q0.96875 -1.21875 2.53125 -1.21875q2.6718826 0 2.7031326 3.015625l0 5.59375l-1.4531326 0l0 -5.59375q0 -0.921875 -0.421875 -1.359375q-0.40625 -0.4375 -1.265625 -0.4375q-0.703125 0 -1.234375 0.375q-0.53125 0.375 -0.828125 0.984375l0 6.03125l-1.453125 0l0 -8.453125l1.375 0zm12.671883 8.453125q-0.125 -0.25 -0.203125 -0.890625q-1.0 1.046875 -2.40625 1.046875q-1.25 0 -2.046875 -0.703125q-0.796875 -0.71875 -0.796875 -1.796875q0 -1.328125 1.0 -2.046875q1.0 -0.734375 2.828125 -0.734375l1.40625 0l0 -0.671875q0 -0.75 -0.453125 -1.203125q-0.453125 -0.453125 -1.34375 -0.453125q-0.765625 0 -1.296875 0.390625q-0.515625 0.390625 -0.515625 0.953125l-1.453125 0q0 -0.640625 0.4375 -1.21875q0.453125 -0.59375 1.21875 -0.9375q0.78125 -0.34375 1.703125 -0.34375q1.453125 0 2.28125 0.734375q0.828125 0.71875 0.859375 2.0l0 3.890625q0 1.171875 0.296875 1.859375l0 0.125l-1.515625 0zm-2.390625 -1.109375q0.671875 0 1.28125 -0.34375q0.609375 -0.359375 0.890625 -0.921875l0 -1.734375l-1.140625 0q-2.65625 0 -2.65625 1.5625q0 0.671875 0.453125 1.0625q0.453125 0.375 1.171875 0.375zm7.84375 -9.390625l0 2.046875l1.578125 0l0 1.109375l-1.578125 0l0 5.25q0 0.5 0.203125 0.765625q0.21875 0.25 0.71875 0.25q0.25 0 0.6875 -0.09375l0 1.171875q-0.5625 0.15625 -1.109375 0.15625q-0.96875 0 -1.46875 -0.578125q-0.484375 -0.59375 -0.484375 -1.671875l0 -5.25l-1.53125 0l0 -1.109375l1.53125 0l0 -2.046875l1.453125 0zm2.7265625 6.1875q0 -1.234375 0.484375 -2.21875q0.484375 -1.0 1.359375 -1.53125q0.875 -0.546875 1.984375 -0.546875q1.734375 0 2.796875 1.203125q1.0625 1.1875 1.0625 3.171875l0 0.09375q0 1.234375 -0.46875 2.21875q-0.46875 0.984375 -1.359375 1.53125q-0.875 0.546875 -2.015625 0.546875q-1.71875 0 -2.78125 -1.1875q-1.0625 -1.203125 -1.0625 -3.171875l0 -0.109375zm1.453125 0.171875q0 1.40625 0.640625 2.265625q0.65625 0.84375 1.75 0.84375q1.109375 0 1.75 -0.859375q0.65625 -0.859375 0.65625 -2.421875q0 -1.390625 -0.671875 -2.25q-0.65625 -0.859375 -1.75 -0.859375q-1.0625 0 -1.71875 0.859375q-0.65625 0.84375 -0.65625 2.421875zm12.140625 -3.015625q-0.328125 -0.0625 -0.71875 -0.0625q-1.421875 0 -1.921875 1.21875l0 6.0l-1.453125 0l0 -8.453125l1.40625 0l0.03125 0.96875q0.703125 -1.125 2.015625 -1.125q0.421875 0 0.640625 0.109375l0 1.34375z" fill-rule="nonzero"/><path fill="#000000" fill-opacity="0.0" d="m142.76378 64.81759l65.480316 0" fill-rule="evenodd"/><path stroke="#000000" stroke-width="1.0" stroke-linejoin="round" stroke-linecap="butt" d="m142.76378 64.81759l59.480316 0" fill-rule="evenodd"/><path fill="#000000" stroke="#000000" stroke-width="1.0" stroke-linecap="butt" d="m202.2441 66.469315l4.538101 -1.6517258l-4.538101 -1.6517372z" fill-rule="evenodd"/><path fill="#000000" fill-opacity="0.0" d="m389.12598 96.40945l115.40158 0l0 48.850395l-115.40158 0z" fill-rule="evenodd"/><path fill="#000000" d="m410.5573 121.41589q-1.609375 -0.46875 -2.34375 -1.140625q-0.734375 -0.671875 -0.734375 -1.65625q0 -1.125 0.890625 -1.859375q0.90625 -0.734375 2.34375 -0.734375q0.96875 0 1.734375 0.390625q0.765625 0.375 1.1875 1.046875q0.421875 0.65625 0.421875 1.4375l-1.265625 0q0 -0.859375 -0.546875 -1.34375q-0.546875 -0.5 -1.53125 -0.5q-0.921875 0 -1.453125 0.40625q-0.515625 0.40625 -0.515625 1.125q0 0.578125 0.484375 0.984375q0.5 0.40625 1.671875 0.734375q1.1875 0.328125 1.859375 0.734375q0.671875 0.390625 0.984375 0.9375q0.328125 0.53125 0.328125 1.25q0 1.15625 -0.90625 1.84375q-0.890625 0.6875 -2.390625 0.6875q-0.984375 0 -1.828125 -0.375q-0.84375 -0.375 -1.3125 -1.015625q-0.453125 -0.65625 -0.453125 -1.484375l1.265625 0q0 0.859375 0.625 1.359375q0.640625 0.5 1.703125 0.5q0.984375 0 1.515625 -0.40625q0.53125 -0.40625 0.53125 -1.09375q0 -0.703125 -0.5 -1.078125q-0.484375 -0.390625 -1.765625 -0.75zm5.110199 4.21875l0 -9.46875l2.6875 0q1.234375 0 2.171875 0.546875q0.953125 0.546875 1.46875 1.5625q0.53125 1.0 0.53125 2.296875l0 0.609375q0 1.34375 -0.515625 2.359375q-0.515625 1.0 -1.484375 1.546875q-0.953125 0.53125 -2.234375 0.546875l-2.625 0zm1.25 -8.453125l0 7.4375l1.3125 0q1.453125 0 2.25 -0.890625q0.8125 -0.90625 0.8125 -2.578125l0 -0.546875q0 -1.609375 -0.765625 -2.5q-0.75 -0.90625 -2.140625 -0.921875l-1.46875 0zm10.974457 4.625l-2.234375 0l0 3.828125l-1.25 0l0 -9.46875l3.140625 0q1.59375 0 2.453125 0.734375q0.875 0.71875 0.875 2.109375q0 0.890625 -0.484375 1.546875q-0.484375 0.65625 -1.328125 0.984375l2.21875 4.015625l0 0.078125l-1.34375 0l-2.046875 -3.828125zm-2.234375 -1.03125l1.921875 0q0.9375 0 1.484375 -0.46875q0.546875 -0.484375 0.546875 -1.296875q0 -0.875 -0.53125 -1.34375q-0.515625 -0.46875 -1.5 -0.484375l-1.921875 0l0 3.59375zm14.177795 2.984375q0 -0.484375 -0.375 -0.75q-0.359375 -0.265625 -1.28125 -0.453125q-0.90625 -0.203125 -1.453125 -0.46875q-0.53125 -0.28125 -0.796875 -0.65625q-0.25 -0.390625 -0.25 -0.90625q0 -0.859375 0.734375 -1.453125q0.734375 -0.609375 1.875 -0.609375q1.1875 0 1.9375 0.625q0.75 0.609375 0.75 1.578125l-1.21875 0q0 -0.5 -0.421875 -0.859375q-0.421875 -0.359375 -1.046875 -0.359375q-0.65625 0 -1.03125 0.296875q-0.375 0.28125 -0.375 0.75q0 0.421875 0.34375 0.65625q0.34375 0.21875 1.25 0.421875q0.90625 0.203125 1.453125 0.484375q0.5625 0.265625 0.828125 0.671875q0.28125 0.390625 0.28125 0.953125q0 0.9375 -0.765625 1.515625q-0.75 0.5625 -1.953125 0.5625q-0.84375 0 -1.5 -0.296875q-0.640625 -0.296875 -1.015625 -0.828125q-0.359375 -0.546875 -0.359375 -1.171875l1.203125 0q0.03125 0.609375 0.484375 0.96875q0.453125 0.34375 1.1875 0.34375q0.6875 0 1.09375 -0.265625q0.421875 -0.28125 0.421875 -0.75zm2.4504395 -1.703125q0 -1.046875 0.40625 -1.875q0.40625 -0.828125 1.125 -1.265625q0.734375 -0.453125 1.65625 -0.453125q1.4375 0 2.328125 1.0q0.890625 0.984375 0.890625 2.640625l0 0.09375q0 1.015625 -0.390625 1.84375q-0.390625 0.8125 -1.125 1.265625q-0.734375 0.453125 -1.6875 0.453125q-1.421875 0 -2.3125 -0.984375q-0.890625 -1.0 -0.890625 -2.640625l0 -0.078125zm1.203125 0.140625q0 1.171875 0.546875 1.875q0.546875 0.703125 1.453125 0.703125q0.921875 0 1.453125 -0.71875q0.546875 -0.71875 0.546875 -2.0q0 -1.171875 -0.546875 -1.890625q-0.546875 -0.71875 -1.46875 -0.71875q-0.890625 0 -1.4375 0.71875q-0.546875 0.703125 -0.546875 2.03125zm7.3043213 3.4375l0 -6.109375l-1.109375 0l0 -0.9375l1.109375 0l0 -0.71875q0 -1.125 0.609375 -1.734375q0.609375 -0.625 1.703125 -0.625q0.421875 0 0.828125 0.109375l-0.0625 0.96875q-0.296875 -0.0625 -0.640625 -0.0625q-0.59375 0 -0.921875 0.34375q-0.3125 0.34375 -0.3125 0.984375l0 0.734375l1.5 0l0 0.9375l-1.5 0l0 6.109375l-1.203125 0zm5.6739807 -8.75l0 1.703125l1.3125 0l0 0.9375l-1.3125 0l0 4.359375q0 0.421875 0.171875 0.640625q0.171875 0.21875 0.59375 0.21875q0.21875 0 0.578125 -0.078125l0 0.96875q-0.46875 0.125 -0.921875 0.125q-0.8125 0 -1.21875 -0.484375q-0.40625 -0.484375 -0.40625 -1.390625l0 -4.359375l-1.28125 0l0 -0.9375l1.28125 0l0 -1.703125l1.203125 0zm8.94754 7.09375l1.359375 -5.390625l1.203125 0l-2.046875 7.046875l-0.984375 0l-1.703125 -5.34375l-1.671875 5.34375l-0.96875 0l-2.046875 -7.046875l1.203125 0l1.375 5.28125l1.640625 -5.28125l0.96875 0l1.671875 5.390625zm8.140625 1.65625q-0.109375 -0.203125 -0.171875 -0.734375q-0.84375 0.859375 -2.015625 0.859375q-1.03125 0 -1.703125 -0.578125q-0.671875 -0.59375 -0.671875 -1.5q0 -1.09375 0.828125 -1.703125q0.84375 -0.609375 2.359375 -0.609375l1.171875 0l0 -0.5625q0 -0.625 -0.375 -1.0q-0.375 -0.375 -1.109375 -0.375q-0.640625 0 -1.078125 0.328125q-0.4375 0.328125 -0.4375 0.78125l-1.203125 0q0 -0.515625 0.359375 -1.0q0.375 -0.5 1.015625 -0.78125q0.65625 -0.296875 1.421875 -0.296875q1.21875 0 1.90625 0.609375q0.6875 0.609375 0.71875 1.671875l0 3.25q0 0.96875 0.234375 1.53125l0 0.109375l-1.25 0zm-2.0 -0.921875q0.5625 0 1.0625 -0.28125q0.515625 -0.296875 0.734375 -0.765625l0 -1.453125l-0.9375 0q-2.21875 0 -2.21875 1.296875q0 0.5625 0.375 0.890625q0.390625 0.3125 0.984375 0.3125zm8.296631 -5.046875q-0.265625 -0.03125 -0.59375 -0.03125q-1.1875 0 -1.609375 1.0l0 5.0l-1.203125 0l0 -7.046875l1.171875 0l0.03125 0.8125q0.578125 -0.9375 1.671875 -0.9375q0.34375 0 0.53125 0.09375l0 1.109375zm3.901886 6.09375q-1.421875 0 -2.328125 -0.9375q-0.890625 -0.9375 -0.890625 -2.515625l0 -0.21875q0 -1.046875 0.390625 -1.859375q0.40625 -0.828125 1.125 -1.296875q0.71875 -0.46875 1.5625 -0.46875q1.375 0 2.125 0.90625q0.765625 0.90625 0.765625 2.59375l0 0.5l-4.765625 0q0.015625 1.03125 0.59375 1.671875q0.59375 0.640625 1.484375 0.640625q0.640625 0 1.078125 -0.25q0.453125 -0.265625 0.78125 -0.6875l0.734375 0.5625q-0.875 1.359375 -2.65625 1.359375zm-0.140625 -6.3125q-0.734375 0 -1.234375 0.53125q-0.484375 0.53125 -0.609375 1.484375l3.53125 0l0 -0.078125q-0.046875 -0.921875 -0.5 -1.421875q-0.4375 -0.515625 -1.1875 -0.515625z" fill-rule="nonzero"/><path fill="#000000" fill-opacity="0.0" d="m27.362206 96.40945l115.40157 0l0 48.850395l-115.40157 0z" fill-rule="evenodd"/><path fill="#000000" d="m60.654423 123.16589l-3.96875 0l-0.890625 2.46875l-1.28125 0l3.609375 -9.46875l1.09375 0l3.625 9.46875l-1.28125 0l-0.90625 -2.46875zm-3.59375 -1.03125l3.234375 0l-1.625 -4.4375l-1.609375 4.4375zm14.33514 3.5l-1.25 0l-4.765625 -7.296875l0 7.296875l-1.265625 0l0 -9.46875l1.265625 0l4.78125 7.328125l0 -7.328125l1.234375 0l0 9.46875zm9.501495 0l-1.25 0l-4.765625 -7.296875l0 7.296875l-1.265625 0l0 -9.46875l1.265625 0l4.78125 7.328125l0 -7.328125l1.234375 0l0 9.46875zm7.5796204 -4.375l-4.109375 0l0 3.359375l4.78125 0l0 1.015625l-6.03125 0l0 -9.46875l5.953125 0l0 1.015625l-4.703125 0l0 3.046875l4.109375 0l0 1.03125zm4.5439224 0.84375l-3.1875076 0l0 -0.984375l3.1875076 0l0 0.984375zm1.5988312 -1.21875l0.484375 -4.71875l4.84375 0l0 1.109375l-3.828125 0l-0.28125 2.578125q0.6875 -0.40625 1.578125 -0.40625q1.296875 0 2.046875 0.859375q0.765625 0.84375 0.765625 2.3125q0 1.453125 -0.796875 2.296875q-0.78125 0.84375 -2.203125 0.84375q-1.25 0 -2.046875 -0.6875q-0.796875 -0.703125 -0.90625 -1.9375l1.140625 0q0.109375 0.828125 0.578125 1.234375q0.46875 0.40625 1.234375 0.40625q0.84375 0 1.3125 -0.5625q0.484375 -0.578125 0.484375 -1.578125q0 -0.953125 -0.515625 -1.53125q-0.515625 -0.578125 -1.375 -0.578125q-0.78125 0 -1.234375 0.34375l-0.328125 0.265625l-0.953125 -0.25zm12.87468 0.703125q0 2.125 -0.734375 3.15625q-0.71875 1.015625 -2.25 1.015625q-1.515625 0 -2.25 -1.0q-0.71875 -1.0 -0.75 -3.0l0 -1.609375q0 -2.09375 0.71875 -3.109375q0.71875 -1.015625 2.265625 -1.015625q1.53125 0 2.25 0.984375q0.71875 0.984375 0.75 3.015625l0 1.5625zm-1.203125 -1.640625q0 -1.53125 -0.4375 -2.21875q-0.421875 -0.703125 -1.359375 -0.703125q-0.921875 0 -1.34375 0.703125q-0.421875 0.6875 -0.4375 2.125l0 1.921875q0 1.546875 0.4375 2.28125q0.453125 0.71875 1.359375 0.71875q0.890625 0 1.3125 -0.6875q0.4375 -0.6875 0.46875 -2.171875l0 -1.96875zm6.3121796 0.609375l2.640625 0l0 1.140625l-2.640625 0l0 2.984375l-1.203125 0l0 -2.984375l-2.65625 0l0 -1.140625l2.65625 0l0 -2.765625l1.203125 0l0 2.765625z" fill-rule="nonzero"/></g></svg>