<svg version="1.1" viewBox="0.0 0.0 913.3858267716536 199.3779527559055" fill="none" stroke="none" stroke-linecap="square" stroke-miterlimit="10" xmlns:xlink="http://www.w3.org/1999/xlink" xmlns="http://www.w3.org/2000/svg"><clipPath id="p.0"><path d="m0 0l913.3858 0l0 199.37796l-913.3858 0l0 -199.37796z" clip-rule="nonzero"/></clipPath><g clip-path="url(#p.0)"><path fill="#000000" fill-opacity="0.0" d="m0 0l913.3858 0l0 199.37796l-913.3858 0z" fill-rule="evenodd"/><path fill="#ffffff" d="m227.7454 34.356956l162.23622 0l0 87.90551l-162.23622 0z" fill-rule="evenodd"/><path stroke="#000000" stroke-width="1.0" stroke-linejoin="round" stroke-linecap="butt" d="m227.7454 34.356956l162.23622 0l0 87.90551l-162.23622 0z" fill-rule="evenodd"/><path fill="#000000" d="m275.59595 79.94346l-4.0 0l0 6.90625l-2.265625 0l0 -17.0625l5.65625 0q2.875 0 4.421875 1.3125q1.5625 1.3125 1.5625 3.8125q0 1.59375 -0.859375 2.78125q-0.859375 1.1875 -2.40625 1.765625l4.015625 7.25l0 0.140625l-2.421875 0l-3.703125 -6.90625zm-4.0 -1.84375l3.453125 0q1.671875 0 2.65625 -0.859375q1.0 -0.875 1.0 -2.328125q0 -1.578125 -0.953125 -2.421875q-0.9375 -0.84375 -2.71875 -0.859375l-3.4375 0l0 6.46875zm22.308594 -3.859375q0 1.28125 -0.671875 2.28125q-0.671875 0.984375 -1.828125 1.546875q1.34375 0.578125 2.125 1.6875q0.78125 1.09375 0.78125 2.484375q0 2.21875 -1.5 3.53125q-1.5 1.3125 -3.9375 1.3125q-2.453125 0 -3.9375 -1.3125q-1.484375 -1.328125 -1.484375 -3.53125q0 -1.375 0.75 -2.484375q0.765625 -1.125 2.09375 -1.703125q-1.125 -0.5625 -1.78125 -1.546875q-0.65625 -1.0 -0.65625 -2.265625q0 -2.15625 1.375 -3.421875q1.390625 -1.265625 3.640625 -1.265625q2.25 0 3.640625 1.265625q1.390625 1.265625 1.390625 3.421875zm-1.765625 7.953125q0 -1.421875 -0.90625 -2.328125q-0.90625 -0.90625 -2.375 -0.90625q-1.46875 0 -2.359375 0.890625q-0.875 0.890625 -0.875 2.34375q0 1.453125 0.859375 2.296875q0.859375 0.828125 2.390625 0.828125q1.53125 0 2.390625 -0.84375q0.875 -0.84375 0.875 -2.28125zm-3.265625 -10.859375q-1.265625 0 -2.0625 0.796875q-0.796875 0.78125 -0.796875 2.140625q0 1.296875 0.78125 2.109375q0.78125 0.796875 2.078125 0.796875q1.3125 0 2.078125 -0.796875q0.78125 -0.8125 0.78125 -2.109375q0 -1.296875 -0.8125 -2.109375q-0.796875 -0.828125 -2.046875 -0.828125zm19.335938 15.515625l-11.171875 0l0 -1.5625l5.90625 -6.5625q1.3125 -1.484375 1.8125 -2.40625q0.5 -0.9375 0.5 -1.9375q0 -1.34375 -0.8125 -2.1875q-0.8125 -0.859375 -2.15625 -0.859375q-1.625 0 -2.515625 0.921875q-0.890625 0.921875 -0.890625 2.5625l-2.171875 0q0 -2.359375 1.515625 -3.8125q1.515625 -1.453125 4.0625 -1.453125q2.375 0 3.75 1.25q1.390625 1.25 1.390625 3.3125q0 2.53125 -3.203125 6.0l-4.578125 4.96875l8.5625 0l0 1.765625zm13.0078125 -7.28125q0 3.8125 -1.3125 5.671875q-1.296875 1.84375 -4.0625 1.84375q-2.734375 0 -4.046875 -1.8125q-1.3125 -1.8125 -1.359375 -5.40625l0 -2.890625q0 -3.765625 1.296875 -5.59375q1.3125 -1.828125 4.09375 -1.828125q2.75 0 4.046875 1.765625q1.296875 1.765625 1.34375 5.4375l0 2.8125zm-2.171875 -2.96875q0 -2.75 -0.78125 -4.0q-0.765625 -1.265625 -2.4375 -1.265625q-1.671875 0 -2.4375 1.25q-0.75 1.25 -0.78125 3.859375l0 3.46875q0 2.765625 0.796875 4.09375q0.8125 1.3125 2.4375 1.3125q1.609375 0 2.390625 -1.234375q0.78125 -1.25 0.8125 -3.921875l0 -3.5625zm17.289062 -4.96875l-5.484375 0l0 15.21875l-2.234375 0l0 -15.21875l-5.46875 0l0 -1.84375l13.1875 0l0 1.84375zm13.1484375 15.21875l-11.171875 0l0 -1.5625l5.90625 -6.5625q1.3125 -1.484375 1.8125 -2.40625q0.5 -0.9375 0.5 -1.9375q0 -1.34375 -0.8125 -2.1875q-0.8125 -0.859375 -2.15625 -0.859375q-1.625 0 -2.515625 0.921875q-0.890625 0.921875 -0.890625 2.5625l-2.171875 0q0 -2.359375 1.515625 -3.8125q1.515625 -1.453125 4.0625 -1.453125q2.375 0 3.75 1.25q1.390625 1.25 1.390625 3.3125q0 2.53125 -3.203125 6.0l-4.578125 4.96875l8.5625 0l0 1.765625z" fill-rule="nonzero"/><path fill="#ffffff" d="m584.82153 34.356956l194.58264 0l0 114.92913l-194.58264 0z" fill-rule="evenodd"/><path stroke="#000000" stroke-width="1.0" stroke-linejoin="round" stroke-linecap="butt" d="m584.82153 34.356956l194.58264 0l0 114.92913l-194.58264 0z" fill-rule="evenodd"/><path fill="#000000" d="m635.07574 93.45527l-4.0 0l0 6.90625l-2.265625 0l0 -17.0625l5.65625 0q2.875 0 4.421875 1.3125q1.5625 1.3125 1.5625 3.8125q0 1.59375 -0.859375 2.78125q-0.859375 1.1875 -2.40625 1.765625l4.015625 7.25l0 0.140625l-2.421875 0l-3.703125 -6.90625zm-4.0 -1.84375l3.453125 0q1.671875 0 2.65625 -0.859375q1.0 -0.875 1.0 -2.328125q0 -1.578125 -0.953125 -2.421875q-0.9375 -0.84375 -2.71875 -0.859375l-3.4375 0l0 6.46875zm23.371094 -6.46875l-5.484375 0l0 15.21875l-2.234375 0l0 -15.21875l-5.46875 0l0 -1.84375l13.1875 0l0 1.84375zm4.8046875 13.375l8.078125 0l0 1.84375l-10.34375 0l0 -17.0625l2.265625 0l0 15.21875zm21.257812 1.84375l-11.171875 0l0 -1.5625l5.90625 -6.5625q1.3125 -1.484375 1.8125 -2.40625q0.5 -0.9375 0.5 -1.9375q0 -1.34375 -0.8125 -2.1875q-0.8125 -0.859375 -2.15625 -0.859375q-1.625 0 -2.515625 0.921875q-0.890625 0.921875 -0.890625 2.5625l-2.171875 0q0 -2.359375 1.515625 -3.8125q1.515625 -1.453125 4.0625 -1.453125q2.375 0 3.75 1.25q1.390625 1.25 1.390625 3.3125q0 2.53125 -3.203125 6.0l-4.578125 4.96875l8.5625 0l0 1.765625zm12.6484375 -12.609375q0 1.28125 -0.671875 2.28125q-0.671875 0.984375 -1.828125 1.546875q1.34375 0.578125 2.125 1.6875q0.78125 1.09375 0.78125 2.484375q0 2.21875 -1.5 3.53125q-1.5 1.3125 -3.9375 1.3125q-2.453125 0 -3.9375 -1.3125q-1.484375 -1.328125 -1.484375 -3.53125q0 -1.375 0.75 -2.484375q0.765625 -1.125 2.09375 -1.703125q-1.125 -0.5625 -1.78125 -1.546875q-0.65625 -1.0 -0.65625 -2.265625q0 -2.15625 1.375 -3.421875q1.390625 -1.265625 3.640625 -1.265625q2.25 0 3.640625 1.265625q1.390625 1.265625 1.390625 3.421875zm-1.765625 7.953125q0 -1.421875 -0.90625 -2.328125q-0.90625 -0.90625 -2.375 -0.90625q-1.46875 0 -2.359375 0.890625q-0.875 0.890625 -0.875 2.34375q0 1.453125 0.859375 2.296875q0.859375 0.828125 2.390625 0.828125q1.53125 0 2.390625 -0.84375q0.875 -0.84375 0.875 -2.28125zm-3.265625 -10.859375q-1.265625 0 -2.0625 0.796875q-0.796875 0.78125 -0.796875 2.140625q0 1.296875 0.78125 2.109375q0.78125 0.796875 2.078125 0.796875q1.3125 0 2.078125 -0.796875q0.78125 -0.8125 0.78125 -2.109375q0 -1.296875 -0.8125 -2.109375q-0.796875 -0.828125 -2.046875 -0.828125zm11.3203125 5.921875l1.625 0q1.53125 -0.015625 2.40625 -0.796875q0.890625 -0.796875 0.890625 -2.125q0 -3.0 -3.0 -3.0q-1.40625 0 -2.25 0.8125q-0.828125 0.796875 -0.828125 2.109375l-2.171875 0q0 -2.015625 1.484375 -3.359375q1.484375 -1.34375 3.765625 -1.34375q2.421875 0 3.78125 1.28125q1.375 1.265625 1.375 3.546875q0 1.109375 -0.71875 2.15625q-0.71875 1.046875 -1.953125 1.5625q1.40625 0.4375 2.171875 1.46875q0.765625 1.03125 0.765625 2.515625q0 2.296875 -1.5 3.65625q-1.5 1.34375 -3.90625 1.34375q-2.40625 0 -3.90625 -1.296875q-1.5 -1.3125 -1.5 -3.4375l2.171875 0q0 1.34375 0.875 2.15625q0.890625 0.8125 2.359375 0.8125q1.578125 0 2.40625 -0.8125q0.828125 -0.828125 0.828125 -2.375q0 -1.484375 -0.921875 -2.28125q-0.90625 -0.796875 -2.625 -0.8125l-1.625 0l0 -1.78125zm21.492188 9.59375l-11.171875 0l0 -1.5625l5.90625 -6.5625q1.3125 -1.484375 1.8125 -2.40625q0.5 -0.9375 0.5 -1.9375q0 -1.34375 -0.8125 -2.1875q-0.8125 -0.859375 -2.15625 -0.859375q-1.625 0 -2.515625 0.921875q-0.890625 0.921875 -0.890625 2.5625l-2.171875 0q0 -2.359375 1.515625 -3.8125q1.515625 -1.453125 4.0625 -1.453125q2.375 0 3.75 1.25q1.390625 1.25 1.390625 3.3125q0 2.53125 -3.203125 6.0l-4.578125 4.96875l8.5625 0l0 1.765625zm14.8828125 -17.0625l0 11.59375q-0.015625 2.421875 -1.53125 3.96875q-1.5 1.53125 -4.078125 1.71875l-0.59375 0.015625q-2.796875 0 -4.46875 -1.515625q-1.65625 -1.515625 -1.6875 -4.15625l0 -11.625l2.234375 0l0 11.546875q0 1.859375 1.015625 2.890625q1.015625 1.015625 2.90625 1.015625q1.90625 0 2.921875 -1.015625q1.015625 -1.015625 1.015625 -2.875l0 -11.5625l2.265625 0z" fill-rule="nonzero"/><path fill="#ffffff" d="m473.77167 104.89239l27.24408 0l0 27.11811l-27.24408 0z" fill-rule="evenodd"/><path stroke="#000000" stroke-width="1.0" stroke-linejoin="round" stroke-linecap="butt" d="m473.77167 104.89239l27.24408 0l0 27.11811l-27.24408 0z" fill-rule="evenodd"/><path fill="#000000" fill-opacity="0.0" d="m487.3937 104.89239l13.637787 13.574806" fill-rule="evenodd"/><path stroke="#000000" stroke-width="1.0" stroke-linejoin="round" stroke-linecap="butt" d="m487.3937 104.89239l13.637787 13.574806" fill-rule="evenodd"/><path fill="#000000" fill-opacity="0.0" d="m487.3937 132.0105l13.637787 -13.574806" fill-rule="evenodd"/><path stroke="#000000" stroke-width="1.0" stroke-linejoin="round" stroke-linecap="butt" d="m487.3937 132.0105l13.637787 -13.574806" fill-rule="evenodd"/><path fill="#ffffff" d="m154.12599 95.144356l-27.244102 0l0 27.11811l27.244102 0z" fill-rule="evenodd"/><path stroke="#000000" stroke-width="1.0" stroke-linejoin="round" stroke-linecap="butt" d="m154.12599 95.144356l-27.244102 0l0 27.11811l27.244102 0z" fill-rule="evenodd"/><path fill="#000000" fill-opacity="0.0" d="m140.50394 95.144356l-13.6377945 13.574806" fill-rule="evenodd"/><path stroke="#000000" stroke-width="1.0" stroke-linejoin="round" stroke-linecap="butt" d="m140.50394 95.144356l-13.6377945 13.574806" fill-rule="evenodd"/><path fill="#000000" fill-opacity="0.0" d="m140.50394 122.26247l-13.6377945 -13.574799" fill-rule="evenodd"/><path stroke="#000000" stroke-width="1.0" stroke-linejoin="round" stroke-linecap="butt" d="m140.50394 122.26247l-13.6377945 -13.574799" fill-rule="evenodd"/><path fill="#000000" fill-opacity="0.0" d="m227.7454 78.30971l-87.65355 0.47244263" fill-rule="evenodd"/><path stroke="#000000" stroke-width="1.0" stroke-linejoin="round" stroke-linecap="butt" d="m221.74548 78.34205l-81.653625 0.44010162" fill-rule="evenodd"/><path fill="#000000" stroke="#000000" stroke-width="1.0" stroke-linecap="butt" d="m221.7544 79.99376l4.529129 -1.6761703l-4.546936 -1.6272507z" fill-rule="evenodd"/><path fill="#000000" fill-opacity="0.0" d="m140.50394 95.144356l-0.03149414 -16.409447" fill-rule="evenodd"/><path stroke="#000000" stroke-width="1.0" stroke-linejoin="round" stroke-linecap="butt" d="m140.50394 95.144356l-0.03149414 -16.409447" fill-rule="evenodd"/><path fill="#000000" fill-opacity="0.0" d="m390.2651 85.92913l97.63779 0.06299591" fill-rule="evenodd"/><path stroke="#000000" stroke-width="1.0" stroke-linejoin="round" stroke-linecap="butt" d="m390.2651 85.92913l97.63779 0.06299591" fill-rule="evenodd"/><path fill="#000000" fill-opacity="0.0" d="m487.4252 85.77428l-0.03149414 19.11811" fill-rule="evenodd"/><path stroke="#000000" stroke-width="1.0" stroke-linejoin="round" stroke-linecap="butt" d="m487.4252 85.77428l-0.021606445 13.118118" fill-rule="evenodd"/><path fill="#000000" stroke="#000000" stroke-width="1.0" stroke-linecap="butt" d="m485.75186 98.88968l1.6442566 4.5408096l1.6592102 -4.53537z" fill-rule="evenodd"/><path fill="#000000" fill-opacity="0.0" d="m501.01575 118.45145l83.811035 0.88188934" fill-rule="evenodd"/><path stroke="#000000" stroke-width="1.0" stroke-linejoin="round" stroke-linecap="butt" d="m501.01575 118.45145l77.81134 0.8187485" fill-rule="evenodd"/><path fill="#000000" stroke="#000000" stroke-width="1.0" stroke-linecap="butt" d="m578.80975 120.921844l4.555176 -1.6038895l-4.520447 -1.6993942z" fill-rule="evenodd"/><path fill="#000000" fill-opacity="0.0" d="m390.2651 68.89764l194.58267 0.22047424" fill-rule="evenodd"/><path stroke="#000000" stroke-width="1.0" stroke-linejoin="round" stroke-linecap="butt" d="m390.2651 68.89764l188.58267 0.21367645" fill-rule="evenodd"/><path fill="#000000" stroke="#000000" stroke-width="1.0" stroke-linecap="butt" d="m578.8459 70.76305l4.539978 -1.6465912l-4.536194 -1.6568756z" fill-rule="evenodd"/><path fill="#000000" fill-opacity="0.0" d="m140.50394 122.26247l0.22047424 35.02362" fill-rule="evenodd"/><path stroke="#000000" stroke-width="1.0" stroke-linejoin="round" stroke-linecap="butt" d="m140.50394 122.26247l0.22047424 35.02362" fill-rule="evenodd"/><path fill="#000000" fill-opacity="0.0" d="m140.6483 156.83989l347.2126 0.31497192" fill-rule="evenodd"/><path stroke="#000000" stroke-width="1.0" stroke-linejoin="round" stroke-linecap="butt" d="m140.6483 156.83989l347.2126 0.31497192" fill-rule="evenodd"/><path fill="#000000" fill-opacity="0.0" d="m487.4252 157.61679l-0.03149414 -25.606293" fill-rule="evenodd"/><path stroke="#000000" stroke-width="1.0" stroke-linejoin="round" stroke-linecap="butt" d="m487.4252 157.61679l-0.024108887 -19.606293" fill-rule="evenodd"/><path fill="#000000" stroke="#000000" stroke-width="1.0" stroke-linecap="butt" d="m489.05283 138.00847l-1.6573181 -4.536072l-1.6461487 4.5401306z" fill-rule="evenodd"/><path fill="#000000" fill-opacity="0.0" d="m422.40945 25.125984l129.98422 0l0 27.11811l-129.98422 0z" fill-rule="evenodd"/><path fill="#000000" d="m442.14502 41.01629l-3.96875 0l-0.890625 2.46875l-1.28125 0l3.609375 -9.46875l1.09375 0l3.625 9.46875l-1.28125 0l-0.90625 -2.46875zm-3.59375 -1.03125l3.234375 0l-1.625 -4.4375l-1.609375 4.4375zm8.007019 -3.546875l0.046875 0.890625q0.796875 -1.015625 2.109375 -1.015625q2.234375 0 2.25 2.515625l0 4.65625l-1.203125 0l0 -4.65625q-0.015625 -0.765625 -0.359375 -1.125q-0.328125 -0.375 -1.0625 -0.375q-0.578125 0 -1.03125 0.3125q-0.4375 0.3125 -0.6875 0.828125l0 5.015625l-1.203125 0l0 -7.046875l1.140625 0zm10.572632 7.046875q-0.109375 -0.203125 -0.171875 -0.734375q-0.84375 0.859375 -2.015625 0.859375q-1.03125 0 -1.703125 -0.578125q-0.671875 -0.59375 -0.671875 -1.5q0 -1.09375 0.828125 -1.703125q0.84375 -0.609375 2.359375 -0.609375l1.171875 0l0 -0.5625q0 -0.625 -0.375 -1.0q-0.375 -0.375 -1.109375 -0.375q-0.640625 0 -1.078125 0.328125q-0.4375 0.328125 -0.4375 0.78125l-1.203125 0q0 -0.515625 0.359375 -1.0q0.375 -0.5 1.015625 -0.78125q0.65625 -0.296875 1.421875 -0.296875q1.21875 0 1.90625 0.609375q0.6875 0.609375 0.71875 1.671875l0 3.25q0 0.96875 0.234375 1.53125l0 0.109375l-1.25 0zm-2.0 -0.921875q0.5625 0 1.0625 -0.28125q0.515625 -0.296875 0.734375 -0.765625l0 -1.453125l-0.9375 0q-2.21875 0 -2.21875 1.296875q0 0.5625 0.375 0.890625q0.390625 0.3125 0.984375 0.3125zm6.2029114 0.921875l-1.203125 0l0 -10.0l1.203125 0l0 10.0zm1.6094055 -3.578125q0 -1.046875 0.40625 -1.875q0.40625 -0.828125 1.125 -1.265625q0.734375 -0.453125 1.65625 -0.453125q1.4375 0 2.328125 1.0q0.890625 0.984375 0.890625 2.640625l0 0.09375q0 1.015625 -0.390625 1.84375q-0.390625 0.8125 -1.125 1.265625q-0.734375 0.453125 -1.6875 0.453125q-1.421875 0 -2.3125 -0.984375q-0.890625 -1.0 -0.890625 -2.640625l0 -0.078125zm1.203125 0.140625q0 1.171875 0.546875 1.875q0.546875 0.703125 1.453125 0.703125q0.921875 0 1.453125 -0.71875q0.546875 -0.71875 0.546875 -2.0q0 -1.171875 -0.546875 -1.890625q-0.546875 -0.71875 -1.46875 -0.71875q-0.890625 0 -1.4375 0.71875q-0.546875 0.703125 -0.546875 2.03125zm6.4293213 -0.140625q0 -1.640625 0.75 -2.609375q0.765625 -0.984375 2.03125 -0.984375q1.28125 0 2.015625 0.90625l0.046875 -0.78125l1.109375 0l0 6.875q0 1.375 -0.8125 2.15625q-0.8125 0.78125 -2.1875 0.78125q-0.75 0 -1.484375 -0.328125q-0.734375 -0.3125 -1.109375 -0.875l0.625 -0.734375q0.765625 0.96875 1.890625 0.96875q0.875 0 1.359375 -0.5q0.5 -0.5 0.5 -1.390625l0 -0.609375q-0.71875 0.828125 -1.96875 0.828125q-1.234375 0 -2.0 -0.984375q-0.765625 -1.0 -0.765625 -2.71875zm1.203125 0.140625q0 1.1875 0.484375 1.875q0.5 0.671875 1.375 0.671875q1.140625 0 1.671875 -1.03125l0 -3.21875q-0.546875 -1.015625 -1.65625 -1.015625q-0.875 0 -1.375 0.6875q-0.5 0.6875 -0.5 2.03125zm15.823944 0q0 1.609375 -0.75 2.59375q-0.734375 0.96875 -1.984375 0.96875q-1.328125 0 -2.0625 -0.9375l-0.0625 0.8125l-1.109375 0l0 -10.0l1.203125 0l0 3.734375q0.734375 -0.90625 2.015625 -0.90625q1.28125 0 2.015625 0.96875q0.734375 0.96875 0.734375 2.65625l0 0.109375zm-1.203125 -0.140625q0 -1.234375 -0.484375 -1.90625q-0.46875 -0.671875 -1.359375 -0.671875q-1.1875 0 -1.71875 1.109375l0 3.046875q0.5625 1.109375 1.734375 1.109375q0.859375 0 1.34375 -0.671875q0.484375 -0.671875 0.484375 -2.015625zm7.071289 3.578125q-0.109375 -0.203125 -0.171875 -0.734375q-0.84375 0.859375 -2.015625 0.859375q-1.03125 0 -1.703125 -0.578125q-0.671875 -0.59375 -0.671875 -1.5q0 -1.09375 0.828125 -1.703125q0.84375 -0.609375 2.359375 -0.609375l1.171875 0l0 -0.5625q0 -0.625 -0.375 -1.0q-0.375 -0.375 -1.109375 -0.375q-0.640625 0 -1.078125 0.328125q-0.4375 0.328125 -0.4375 0.78125l-1.203125 0q0 -0.515625 0.359375 -1.0q0.375 -0.5 1.015625 -0.78125q0.65625 -0.296875 1.421875 -0.296875q1.21875 0 1.90625 0.609375q0.6875 0.609375 0.71875 1.671875l0 3.25q0 0.96875 0.234375 1.53125l0 0.109375l-1.25 0zm-2.0 -0.921875q0.5625 0 1.0625 -0.28125q0.515625 -0.296875 0.734375 -0.765625l0 -1.453125l-0.9375 0q-2.21875 0 -2.21875 1.296875q0 0.5625 0.375 0.890625q0.390625 0.3125 0.984375 0.3125zm8.999786 -0.953125q0 -0.484375 -0.375 -0.75q-0.359375 -0.265625 -1.28125 -0.453125q-0.90625 -0.203125 -1.453125 -0.46875q-0.53125 -0.28125 -0.796875 -0.65625q-0.25 -0.390625 -0.25 -0.90625q0 -0.859375 0.734375 -1.453125q0.734375 -0.609375 1.875 -0.609375q1.1875 0 1.9375 0.625q0.75 0.609375 0.75 1.578125l-1.21875 0q0 -0.5 -0.421875 -0.859375q-0.421875 -0.359375 -1.046875 -0.359375q-0.65625 0 -1.03125 0.296875q-0.375 0.28125 -0.375 0.75q0 0.421875 0.34375 0.65625q0.34375 0.21875 1.25 0.421875q0.90625 0.203125 1.453125 0.484375q0.5625 0.265625 0.828125 0.671875q0.28125 0.390625 0.28125 0.953125q0 0.9375 -0.765625 1.515625q-0.75 0.5625 -1.953125 0.5625q-0.84375 0 -1.5 -0.296875q-0.640625 -0.296875 -1.015625 -0.828125q-0.359375 -0.546875 -0.359375 -1.171875l1.203125 0q0.03125 0.609375 0.484375 0.96875q0.453125 0.34375 1.1875 0.34375q0.6875 0 1.09375 -0.265625q0.421875 -0.28125 0.421875 -0.75zm5.6848145 2.0q-1.421875 0 -2.328125 -0.9375q-0.890625 -0.9375 -0.890625 -2.515625l0 -0.21875q0 -1.046875 0.390625 -1.859375q0.40625 -0.828125 1.125 -1.296875q0.71875 -0.46875 1.5625 -0.46875q1.375 0 2.125 0.90625q0.765625 0.90625 0.765625 2.59375l0 0.5l-4.765625 0q0.015625 1.03125 0.59375 1.671875q0.59375 0.640625 1.484375 0.640625q0.640625 0 1.078125 -0.25q0.453125 -0.265625 0.78125 -0.6875l0.734375 0.5625q-0.875 1.359375 -2.65625 1.359375zm-0.140625 -6.3125q-0.734375 0 -1.234375 0.53125q-0.484375 0.53125 -0.609375 1.484375l3.53125 0l0 -0.078125q-0.046875 -0.921875 -0.5 -1.421875q-0.4375 -0.515625 -1.1875 -0.515625zm10.248535 2.75q0 1.609375 -0.75 2.59375q-0.734375 0.96875 -1.984375 0.96875q-1.328125 0 -2.0625 -0.9375l-0.0625 0.8125l-1.109375 0l0 -10.0l1.203125 0l0 3.734375q0.734375 -0.90625 2.015625 -0.90625q1.28125 0 2.015625 0.96875q0.734375 0.96875 0.734375 2.65625l0 0.109375zm-1.203125 -0.140625q0 -1.234375 -0.484375 -1.90625q-0.46875 -0.671875 -1.359375 -0.671875q-1.1875 0 -1.71875 1.109375l0 3.046875q0.5625 1.109375 1.734375 1.109375q0.859375 0 1.34375 -0.671875q0.484375 -0.671875 0.484375 -2.015625zm7.071289 3.578125q-0.109375 -0.203125 -0.171875 -0.734375q-0.84375 0.859375 -2.015625 0.859375q-1.03125 0 -1.703125 -0.578125q-0.671875 -0.59375 -0.671875 -1.5q0 -1.09375 0.828125 -1.703125q0.84375 -0.609375 2.359375 -0.609375l1.171875 0l0 -0.5625q0 -0.625 -0.375 -1.0q-0.375 -0.375 -1.109375 -0.375q-0.640625 0 -1.078125 0.328125q-0.4375 0.328125 -0.4375 0.78125l-1.203125 0q0 -0.515625 0.359375 -1.0q0.375 -0.5 1.015625 -0.78125q0.65625 -0.296875 1.421875 -0.296875q1.21875 0 1.90625 0.609375q0.6875 0.609375 0.71875 1.671875l0 3.25q0 0.96875 0.234375 1.53125l0 0.109375l-1.25 0zm-2.0 -0.921875q0.5625 0 1.0625 -0.28125q0.515625 -0.296875 0.734375 -0.765625l0 -1.453125l-0.9375 0q-2.21875 0 -2.21875 1.296875q0 0.5625 0.375 0.890625q0.390625 0.3125 0.984375 0.3125zm6.031067 -6.125l0.046875 0.890625q0.796875 -1.015625 2.109375 -1.015625q2.234375 0 2.25 2.515625l0 4.65625l-1.203125 0l0 -4.65625q-0.015625 -0.765625 -0.359375 -1.125q-0.328125 -0.375 -1.0625 -0.375q-0.578125 0 -1.03125 0.3125q-0.4375 0.3125 -0.6875 0.828125l0 5.015625l-1.203125 0l0 -7.046875l1.140625 0zm5.932007 3.46875q0 -1.625 0.765625 -2.609375q0.765625 -0.984375 2.0 -0.984375q1.25 0 1.96875 0.84375l0 -3.671875l1.203125 0l0 10.0l-1.109375 0l-0.0625 -0.75q-0.71875 0.875 -2.0 0.875q-1.234375 0 -2.0 -1.0q-0.765625 -1.0 -0.765625 -2.609375l0 -0.09375zm1.203125 0.140625q0 1.1875 0.484375 1.875q0.5 0.671875 1.375 0.671875q1.140625 0 1.671875 -1.03125l0 -3.234375q-0.546875 -1.0 -1.65625 -1.0q-0.890625 0 -1.390625 0.6875q-0.484375 0.6875 -0.484375 2.03125z" fill-rule="nonzero"/><path fill="#000000" fill-opacity="0.0" d="m190.9895 156.83989l237.32285 0l0 25.606308l-237.32285 0z" fill-rule="evenodd"/><path fill="#000000" d="m237.14539 170.39616q0 2.125 -0.734375 3.15625q-0.71875 1.015625 -2.25 1.015625q-1.515625 0 -2.25 -1.0q-0.71875 -1.0 -0.75 -3.0l0 -1.609375q0 -2.09375 0.71875 -3.109375q0.71875 -1.015625 2.265625 -1.015625q1.53125 0 2.25 0.984375q0.71875 0.984375 0.75 3.015625l0 1.5625zm-1.203125 -1.640625q0 -1.53125 -0.4375 -2.21875q-0.421875 -0.703125 -1.359375 -0.703125q-0.921875 0 -1.34375 0.703125q-0.421875 0.6875 -0.4375 2.125l0 1.921875q0 1.546875 0.4375 2.28125q0.453125 0.71875 1.359375 0.71875q0.890625 0 1.3125 -0.6875q0.4375 -0.6875 0.46875 -2.171875l0 -1.96875zm8.674179 2.15625l-3.1875 0l0 -0.984375l3.1875 0l0 0.984375zm10.554581 3.53125l-6.21875 0l0 -0.859375l3.28125 -3.65625q0.734375 -0.828125 1.0 -1.34375q0.28125 -0.515625 0.28125 -1.0625q0 -0.75 -0.453125 -1.21875q-0.4375 -0.46875 -1.1875 -0.46875q-0.890625 0 -1.390625 0.515625q-0.5 0.5 -0.5 1.40625l-1.203125 0q0 -1.296875 0.84375 -2.109375q0.84375 -0.8125 2.25 -0.8125q1.328125 0 2.09375 0.703125q0.765625 0.6875 0.765625 1.84375q0 1.390625 -1.78125 3.328125l-2.546875 2.75l4.765625 0l0 0.984375zm6.3590393 -3.1875l1.3125 0l0 0.984375l-1.3125 0l0 2.203125l-1.21875 0l0 -2.203125l-4.3124847 0l0 -0.703125l4.2499847 -6.5625l1.28125 0l0 6.28125zm-4.15625 0l2.9375 0l0 -4.640625l-0.140625 0.265625l-2.796875 4.375zm11.783569 -6.28125l3.09375 7.71875l3.09375 -7.71875l1.625 0l0 9.46875l-1.25 0l0 -3.6875l0.109375 -3.984375l-3.109375 7.671875l-0.953125 0l-3.109375 -7.65625l0.125 3.96875l0 3.6875l-1.25 0l0 -9.46875l1.625 0zm17.292328 9.46875l-1.25 0l0 -4.375l-4.78125 0l0 4.375l-1.25 0l0 -9.46875l1.25 0l0 4.0625l4.78125 0l0 -4.0625l1.25 0l0 9.46875zm3.1733704 -0.984375l4.109375 0l0 0.984375l-5.578125 0l0 -0.890625l3.875 -5.15625l-3.828125 0l0 -1.0l5.34375 0l0 0.859375l-3.921875 5.203125zm8.483124 -2.59375q0 -1.625 0.765625 -2.609375q0.765625 -0.984375 2.0 -0.984375q1.25 0 1.96875 0.84375l0 -3.671875l1.203125 0l0 10.0l-1.109375 0l-0.0625 -0.75q-0.71875 0.875 -2.0 0.875q-1.234375 0 -2.0 -1.0q-0.765625 -1.0 -0.765625 -2.609375l0 -0.09375zm1.203125 0.140625q0 1.1875 0.484375 1.875q0.5 0.671875 1.375 0.671875q1.140625 0 1.671875 -1.03125l0 -3.234375q-0.546875 -1.0 -1.65625 -1.0q-0.890625 0 -1.390625 0.6875q-0.484375 0.6875 -0.484375 2.03125zm7.9072266 3.4375l-1.203125 0l0 -7.046875l1.203125 0l0 7.046875zm-1.296875 -8.90625q0 -0.296875 0.171875 -0.5q0.1875 -0.203125 0.53125 -0.203125q0.359375 0 0.53125 0.203125q0.1875 0.203125 0.1875 0.5q0 0.296875 -0.1875 0.5q-0.171875 0.1875 -0.53125 0.1875q-0.34375 0 -0.53125 -0.1875q-0.171875 -0.203125 -0.171875 -0.5zm6.6250305 2.9375q-0.265625 -0.03125 -0.59375 -0.03125q-1.1875 0 -1.609375 1.0l0 5.0l-1.203125 0l0 -7.046875l1.171875 0l0.03125 0.8125q0.578125 -0.9375 1.671875 -0.9375q0.34375 0 0.53125 0.09375l0 1.109375zm3.901886 6.09375q-1.421875 0 -2.328125 -0.9375q-0.890625 -0.9375 -0.890625 -2.515625l0 -0.21875q0 -1.046875 0.390625 -1.859375q0.40625 -0.828125 1.125 -1.296875q0.71875 -0.46875 1.5625 -0.46875q1.375 0 2.125 0.90625q0.765625 0.90625 0.765625 2.59375l0 0.5l-4.765625 0q0.015625 1.03125 0.59375 1.671875q0.59375 0.640625 1.484375 0.640625q0.640625 0 1.078125 -0.25q0.453125 -0.265625 0.78125 -0.6875l0.734375 0.5625q-0.875 1.359375 -2.65625 1.359375zm-0.140625 -6.3125q-0.734375 0 -1.234375 0.53125q-0.484375 0.53125 -0.609375 1.484375l3.53125 0l0 -0.078125q-0.046875 -0.921875 -0.5 -1.421875q-0.4375 -0.515625 -1.1875 -0.515625zm7.1079407 5.328125q0.640625 0 1.125 -0.390625q0.484375 -0.390625 0.53125 -0.96875l1.140625 0q-0.03125 0.609375 -0.421875 1.15625q-0.375 0.546875 -1.015625 0.875q-0.640625 0.3125 -1.359375 0.3125q-1.4375 0 -2.296875 -0.953125q-0.84375 -0.96875 -0.84375 -2.625l0 -0.203125q0 -1.03125 0.375 -1.828125q0.390625 -0.796875 1.09375 -1.234375q0.703125 -0.453125 1.671875 -0.453125q1.171875 0 1.953125 0.71875q0.796875 0.703125 0.84375 1.828125l-1.140625 0q-0.046875 -0.671875 -0.515625 -1.109375q-0.46875 -0.453125 -1.140625 -0.453125q-0.921875 0 -1.4375 0.671875q-0.5 0.65625 -0.5 1.90625l0 0.21875q0 1.21875 0.5 1.875q0.515625 0.65625 1.4375 0.65625zm5.7889404 -7.890625l0 1.703125l1.3125 0l0 0.9375l-1.3125 0l0 4.359375q0 0.421875 0.171875 0.640625q0.171875 0.21875 0.59375 0.21875q0.21875 0 0.578125 -0.078125l0 0.96875q-0.46875 0.125 -0.921875 0.125q-0.8125 0 -1.21875 -0.484375q-0.40625 -0.484375 -0.40625 -1.390625l0 -4.359375l-1.28125 0l0 -0.9375l1.28125 0l0 -1.703125l1.203125 0zm10.122009 6.875q0 -0.484375 -0.375 -0.75q-0.359375 -0.265625 -1.28125 -0.453125q-0.90625 -0.203125 -1.453125 -0.46875q-0.53125 -0.28125 -0.796875 -0.65625q-0.25 -0.390625 -0.25 -0.90625q0 -0.859375 0.734375 -1.453125q0.734375 -0.609375 1.875 -0.609375q1.1875 0 1.9375 0.625q0.75 0.609375 0.75 1.578125l-1.21875 0q0 -0.5 -0.421875 -0.859375q-0.421875 -0.359375 -1.046875 -0.359375q-0.65625 0 -1.03125 0.296875q-0.375 0.28125 -0.375 0.75q0 0.421875 0.34375 0.65625q0.34375 0.21875 1.25 0.421875q0.90625 0.203125 1.453125 0.484375q0.5625 0.265625 0.828125 0.671875q0.28125 0.390625 0.28125 0.953125q0 0.9375 -0.765625 1.515625q-0.75 0.5625 -1.953125 0.5625q-0.84375 0 -1.5 -0.296875q-0.640625 -0.296875 -1.015625 -0.828125q-0.359375 -0.546875 -0.359375 -1.171875l1.203125 0q0.03125 0.609375 0.484375 0.96875q0.453125 0.34375 1.1875 0.34375q0.6875 0 1.09375 -0.265625q0.421875 -0.28125 0.421875 -0.75zm7.1223145 1.875q-0.109375 -0.203125 -0.171875 -0.734375q-0.84375 0.859375 -2.015625 0.859375q-1.03125 0 -1.703125 -0.578125q-0.671875 -0.59375 -0.671875 -1.5q0 -1.09375 0.828125 -1.703125q0.84375 -0.609375 2.359375 -0.609375l1.171875 0l0 -0.5625q0 -0.625 -0.375 -1.0q-0.375 -0.375 -1.109375 -0.375q-0.640625 0 -1.078125 0.328125q-0.4375 0.328125 -0.4375 0.78125l-1.203125 0q0 -0.515625 0.359375 -1.0q0.375 -0.5 1.015625 -0.78125q0.65625 -0.296875 1.421875 -0.296875q1.21875 0 1.90625 0.609375q0.6875 0.609375 0.71875 1.671875l0 3.25q0 0.96875 0.234375 1.53125l0 0.109375l-1.25 0zm-2.0 -0.921875q0.5625 0 1.0625 -0.28125q0.515625 -0.296875 0.734375 -0.765625l0 -1.453125l-0.9375 0q-2.21875 0 -2.21875 1.296875q0 0.5625 0.375 0.890625q0.390625 0.3125 0.984375 0.3125zm6.0310364 -6.125l0.03125 0.78125q0.765625 -0.90625 2.09375 -0.90625q1.46875 0 2.0 1.125q0.359375 -0.5 0.921875 -0.8125q0.5625 -0.3125 1.328125 -0.3125q2.3125 0 2.359375 2.453125l0 4.71875l-1.203125 0l0 -4.640625q0 -0.765625 -0.34375 -1.140625q-0.34375 -0.375 -1.171875 -0.375q-0.65625 0 -1.109375 0.40625q-0.4375 0.40625 -0.515625 1.078125l0 4.671875l-1.203125 0l0 -4.609375q0 -1.546875 -1.5 -1.546875q-1.1875 0 -1.625 1.015625l0 5.140625l-1.203125 0l0 -7.046875l1.140625 0zm16.49414 3.609375q0 1.609375 -0.734375 2.59375q-0.734375 0.96875 -2.0 0.96875q-1.28125 0 -2.015625 -0.8125l0 3.390625l-1.203125 0l0 -9.75l1.109375 0l0.046875 0.78125q0.75 -0.90625 2.046875 -0.90625q1.265625 0 2.0 0.953125q0.75 0.953125 0.75 2.671875l0 0.109375zm-1.203125 -0.140625q0 -1.1875 -0.515625 -1.875q-0.5 -0.703125 -1.390625 -0.703125q-1.09375 0 -1.640625 0.96875l0 3.375q0.546875 0.953125 1.65625 0.953125q0.875 0 1.375 -0.671875q0.515625 -0.6875 0.515625 -2.046875zm4.040039 3.578125l-1.203125 0l0 -10.0l1.203125 0l0 10.0zm3.234436 0l-1.203125 0l0 -7.046875l1.203125 0l0 7.046875zm-1.296875 -8.90625q0 -0.296875 0.171875 -0.5q0.1875 -0.203125 0.53125 -0.203125q0.359375 0 0.53125 0.203125q0.1875 0.203125 0.1875 0.5q0 0.296875 -0.1875 0.5q-0.171875 0.1875 -0.53125 0.1875q-0.34375 0 -0.53125 -0.1875q-0.171875 -0.203125 -0.171875 -0.5zm4.3594055 1.859375l0.046875 0.890625q0.796875 -1.015625 2.109375 -1.015625q2.234375 0 2.25 2.515625l0 4.65625l-1.203125 0l0 -4.65625q-0.015625 -0.765625 -0.359375 -1.125q-0.328125 -0.375 -1.0625 -0.375q-0.578125 0 -1.03125 0.3125q-0.4375 0.3125 -0.6875 0.828125l0 5.015625l-1.203125 0l0 -7.046875l1.140625 0zm5.9320374 3.46875q0 -1.640625 0.75 -2.609375q0.765625 -0.984375 2.03125 -0.984375q1.28125 0 2.015625 0.90625l0.046875 -0.78125l1.109375 0l0 6.875q0 1.375 -0.8125 2.15625q-0.8125 0.78125 -2.1875 0.78125q-0.75 0 -1.484375 -0.328125q-0.734375 -0.3125 -1.109375 -0.875l0.625 -0.734375q0.765625 0.96875 1.890625 0.96875q0.875 0 1.359375 -0.5q0.5 -0.5 0.5 -1.390625l0 -0.609375q-0.71875 0.828125 -1.96875 0.828125q-1.234375 0 -2.0 -0.984375q-0.765625 -1.0 -0.765625 -2.71875zm1.203125 0.140625q0 1.1875 0.484375 1.875q0.5 0.671875 1.375 0.671875q1.140625 0 1.671875 -1.03125l0 -3.21875q-0.546875 -1.015625 -1.65625 -1.015625q-0.875 0 -1.375 0.6875q-0.5 0.6875 -0.5 2.03125z" fill-rule="nonzero"/><path fill="#000000" fill-opacity="0.0" d="m584.82153 56.204723l20.472412 0l0 25.606297l-20.472412 0z" fill-rule="evenodd"/><path fill="#000000" d="m595.77466 72.74787l-1.0 0l0 -7.578125l1.0 0l0 7.578125z" fill-rule="nonzero"/><path fill="#000000" fill-opacity="0.0" d="m584.82153 105.64829l20.472412 0l0 25.6063l-20.472412 0z" fill-rule="evenodd"/><path fill="#000000" d="m600.4934 118.64457q0 1.09375 -0.359375 1.890625q-0.34375 0.796875 -0.96875 1.25l1.34375 1.0625l-0.671875 0.625l-1.609375 -1.265625q-0.375 0.09375 -0.78125 0.09375q-0.90625 0 -1.59375 -0.4375q-0.6875 -0.453125 -1.078125 -1.265625q-0.375 -0.8125 -0.390625 -1.875l0 -0.546875q0 -1.09375 0.375 -1.9375q0.390625 -0.84375 1.078125 -1.28125q0.703125 -0.453125 1.59375 -0.453125q0.921875 0 1.609375 0.453125q0.703125 0.4375 1.078125 1.265625q0.375 0.828125 0.375 1.9375l0 0.484375zm-1.0 -0.484375q0 -1.34375 -0.546875 -2.0625q-0.53125 -0.734375 -1.515625 -0.734375q-0.9375 0 -1.484375 0.734375q-0.546875 0.71875 -0.5625 2.0l0 0.546875q0 1.296875 0.546875 2.046875q0.546875 0.75 1.515625 0.75q0.96875 0 1.5 -0.703125q0.53125 -0.703125 0.546875 -2.015625l0 -0.5625z" fill-rule="nonzero"/><path fill="#000000" fill-opacity="0.0" d="m779.4042 91.821526l67.87402 0.3464508" fill-rule="evenodd"/><path stroke="#000000" stroke-width="1.0" stroke-linejoin="round" stroke-linecap="butt" d="m779.4042 91.821526l61.874146 0.31582642" fill-rule="evenodd"/><path fill="#000000" stroke="#000000" stroke-width="1.0" stroke-linecap="butt" d="m841.26984 93.78906l4.546509 -1.6285477l-4.529602 -1.6748734z" fill-rule="evenodd"/><path fill="#000000" fill-opacity="0.0" d="m849.4094 75.191605l45.385864 0l0 33.606293l-45.385864 0z" fill-rule="evenodd"/><path fill="#000000" d="m867.44446 87.326004l0 6.4375q0 1.34375 -0.84375 2.203125q-0.828125 0.84375 -2.265625 0.9375l-0.328125 0.015625q-1.5625 0 -2.484375 -0.828125q-0.921875 -0.84375 -0.9375 -2.3125l0 -6.453125l1.234375 0l0 6.40625q0 1.03125 0.5625 1.609375q0.578125 0.5625 1.625 0.5625q1.0625 0 1.625 -0.5625q0.5625 -0.578125 0.5625 -1.59375l0 -6.421875l1.25 0zm4.767456 5.25q-1.609375 -0.46875 -2.34375 -1.140625q-0.734375 -0.671875 -0.734375 -1.65625q0 -1.125 0.890625 -1.859375q0.90625 -0.734375 2.34375 -0.734375q0.96875 0 1.734375 0.390625q0.765625 0.375 1.1875 1.046875q0.421875 0.65625 0.421875 1.4375l-1.265625 0q0 -0.859375 -0.546875 -1.34375q-0.546875 -0.5 -1.53125 -0.5q-0.921875 0 -1.453125 0.40625q-0.515625 0.40625 -0.515625 1.125q0 0.578125 0.484375 0.984375q0.5 0.40625 1.671875 0.734375q1.1875 0.328125 1.859375 0.734375q0.671875 0.390625 0.984375 0.9375q0.328125 0.53125 0.328125 1.25q0 1.15625 -0.90625 1.84375q-0.890625 0.6875 -2.390625 0.6875q-0.984375 0 -1.828125 -0.375q-0.84375 -0.375 -1.3125 -1.015625q-0.453125 -0.65625 -0.453125 -1.484375l1.265625 0q0 0.859375 0.625 1.359375q0.640625 0.5 1.703125 0.5q0.984375 0 1.515625 -0.40625q0.53125 -0.40625 0.53125 -1.09375q0 -0.703125 -0.5 -1.078125q-0.484375 -0.390625 -1.765625 -0.75zm5.1101685 4.21875l0 -9.46875l3.109375 0q1.53125 0 2.3125 0.640625q0.78125 0.625 0.78125 1.875q0 0.671875 -0.375 1.1875q-0.375 0.5 -1.03125 0.78125q0.765625 0.21875 1.203125 0.828125q0.453125 0.59375 0.453125 1.421875q0 1.28125 -0.828125 2.015625q-0.828125 0.71875 -2.328125 0.71875l-3.296875 0zm1.25 -4.4375l0 3.421875l2.0625 0q0.875 0 1.375 -0.453125q0.515625 -0.453125 0.515625 -1.25q0 -1.71875 -1.859375 -1.71875l-2.09375 0zm0 -1.0l1.890625 0q0.828125 0 1.3125 -0.40625q0.5 -0.40625 0.5 -1.109375q0 -0.78125 -0.46875 -1.140625q-0.453125 -0.359375 -1.375 -0.359375l-1.859375 0l0 3.015625z" fill-rule="nonzero"/><path fill="#000000" fill-opacity="0.0" d="m126.88189 108.703415l-55.244095 -0.28347015" fill-rule="evenodd"/><path stroke="#000000" stroke-width="1.0" stroke-linejoin="round" stroke-linecap="butt" d="m120.88197 108.67262l-49.24418 -0.25267792" fill-rule="evenodd"/><path fill="#000000" stroke="#000000" stroke-width="1.0" stroke-linecap="butt" d="m120.8735 110.32433l4.546509 -1.6284256l-4.529564 -1.6749954z" fill-rule="evenodd"/><path fill="#000000" fill-opacity="0.0" d="m26.251968 91.90026l45.385826 0l0 33.6063l-45.385826 0z" fill-rule="evenodd"/><path fill="#000000" d="m42.293087 111.03466l-3.96875 0l-0.890625 2.46875l-1.28125 0l3.609375 -9.46875l1.09375 0l3.625 9.46875l-1.28125 0l-0.90625 -2.46875zm-3.59375 -1.03125l3.234375 0l-1.625 -4.4375l-1.609375 4.4375zm14.335144 3.5l-1.25 0l-4.765625 -7.296875l0 7.296875l-1.265625 0l0 -9.46875l1.265625 0l4.78125 7.328125l0 -7.328125l1.234375 0l0 9.46875zm8.578323 -8.453125l-3.046875 0l0 8.453125l-1.234375 0l0 -8.453125l-3.046875 0l0 -1.015625l7.328125 0l0 1.015625z" fill-rule="nonzero"/><path fill="#000000" fill-opacity="0.0" d="m114.86352 28.341208l112.88189 0l0 33.6063l-112.88189 0z" fill-rule="evenodd"/><path fill="#000000" d="m135.19304 49.944355l-6.21875 0l0 -0.859375l3.28125 -3.65625q0.734375 -0.828125 1.0 -1.34375q0.28125 -0.515625 0.28125 -1.0625q0 -0.75 -0.453125 -1.21875q-0.4375 -0.46875 -1.1875 -0.46875q-0.890625 0 -1.390625 0.515625q-0.5 0.5 -0.5 1.40625l-1.203125 0q0 -1.296875 0.84375 -2.109375q0.84375 -0.8125 2.25 -0.8125q1.328125 0 2.09375 0.703125q0.765625 0.6875 0.765625 1.84375q0 1.390625 -1.78125 3.328125l-2.546875 2.75l4.765625 0l0 0.984375zm6.3590546 -3.1875l1.3125 0l0 0.984375l-1.3125 0l0 2.203125l-1.21875 0l0 -2.203125l-4.3125 0l0 -0.703125l4.25 -6.5625l1.28125 0l0 6.28125zm-4.15625 0l2.9375 0l0 -4.640625l-0.140625 0.265625l-2.796875 4.375zm12.486679 -0.34375l-3.1875 0l0 -0.984375l3.1875 0l0 0.984375zm8.304581 3.53125l-1.21875 0l0 -8.03125l-2.421875 0.90625l0 -1.09375l3.453125 -1.296875l0.1875 0l0 9.515625zm9.640305 -8.796875l-3.921875 8.796875l-1.265625 0l3.90625 -8.484375l-5.125 0l0 -0.984375l6.40625 0l0 0.671875zm6.0934296 -0.6875l0 1.03125l-0.21875 0q-1.40625 0.015625 -2.25 0.828125q-0.828125 0.8125 -0.953125 2.265625q0.75 -0.859375 2.03125 -0.859375q1.25 0 1.984375 0.875q0.734375 0.875 0.734375 2.25q0 1.46875 -0.796875 2.34375q-0.796875 0.875 -2.140625 0.875q-1.359375 0 -2.203125 -1.03125q-0.84375 -1.046875 -0.84375 -2.703125l0 -0.453125q0 -2.625 1.109375 -4.0q1.125 -1.390625 3.328125 -1.421875l0.21875 0zm-1.578125 4.265625q-0.625 0 -1.15625 0.375q-0.515625 0.375 -0.71875 0.9375l0 0.4375q0 1.171875 0.53125 1.890625q0.53125 0.71875 1.3125 0.71875q0.8125 0 1.28125 -0.59375q0.46875 -0.609375 0.46875 -1.578125q0 -0.984375 -0.46875 -1.578125q-0.46875 -0.609375 -1.25 -0.609375zm9.062164 -4.265625l0 1.03125l-0.21875 0q-1.40625 0.015625 -2.25 0.828125q-0.82810974 0.8125 -0.95310974 2.265625q0.75 -0.859375 2.0312347 -0.859375q1.25 0 1.984375 0.875q0.734375 0.875 0.734375 2.25q0 1.46875 -0.796875 2.34375q-0.796875 0.875 -2.140625 0.875q-1.3593597 0 -2.2031097 -1.03125q-0.84375 -1.046875 -0.84375 -2.703125l0 -0.453125q0 -2.625 1.109375 -4.0q1.1249847 -1.390625 3.3281097 -1.421875l0.21875 0zm-1.578125 4.265625q-0.625 0 -1.1562347 0.375q-0.515625 0.375 -0.71875 0.9375l0 0.4375q0 1.171875 0.53125 1.890625q0.53123474 0.71875 1.3124847 0.71875q0.8125 0 1.28125 -0.59375q0.46875 -0.609375 0.46875 -1.578125q0 -0.984375 -0.46875 -1.578125q-0.46875 -0.609375 -1.25 -0.609375zm9.564804 -4.25l3.09375 7.71875l3.09375 -7.71875l1.625 0l0 9.46875l-1.25 0l0 -3.6875l0.109375 -3.984375l-3.109375 7.671875l-0.953125 0l-3.109375 -7.65625l0.125 3.96875l0 3.6875l-1.25 0l0 -9.46875l1.625 0zm17.292328 9.46875l-1.25 0l0 -4.375l-4.78125 0l0 4.375l-1.25 0l0 -9.46875l1.25 0l0 4.0625l4.78125 0l0 -4.0625l1.25 0l0 9.46875zm3.1733704 -0.984375l4.109375 0l0 0.984375l-5.578125 0l0 -0.890625l3.875 -5.15625l-3.828125 0l0 -1.0l5.34375 0l0 0.859375l-3.921875 5.203125z" fill-rule="nonzero"/></g></svg>