<svg version="1.1" viewBox="0.0 0.0 794.0944881889764 144.74015748031496" fill="none" stroke="none" stroke-linecap="square" stroke-miterlimit="10" xmlns:xlink="http://www.w3.org/1999/xlink" xmlns="http://www.w3.org/2000/svg"><clipPath id="p.0"><path d="m0 0l794.0945 0l0 144.74016l-794.0945 0l0 -144.74016z" clip-rule="nonzero"/></clipPath><g clip-path="url(#p.0)"><path fill="#000000" fill-opacity="0.0" d="m0 0l794.0945 0l0 144.74016l-794.0945 0z" fill-rule="evenodd"/><path fill="#d9ead3" d="m664.7297 32.341206l115.40155 0l0 63.181103l-115.40155 0z" fill-rule="evenodd"/><path stroke="#000000" stroke-width="1.0" stroke-linejoin="round" stroke-linecap="butt" d="m664.7297 32.341206l115.40155 0l0 63.181103l-115.40155 0z" fill-rule="evenodd"/><path fill="#000000" d="m702.7429 52.83863l0 4.453125l-1.5 0l0 -11.375l4.1875 0q1.875 0 2.921875 0.953125q1.0625 0.953125 1.0625 2.515625q0 1.65625 -1.03125 2.5625q-1.03125 0.890625 -2.96875 0.890625l-2.671875 0zm0 -1.234375l2.6875 0q1.203125 0 1.84375 -0.5625q0.640625 -0.5625 0.640625 -1.640625q0 -1.015625 -0.640625 -1.625q-0.640625 -0.609375 -1.75 -0.625l-2.78125 0l0 4.453125zm7.8828125 1.375q0 -1.234375 0.484375 -2.21875q0.484375 -1.0 1.359375 -1.53125q0.875 -0.546875 1.984375 -0.546875q1.734375 0 2.796875 1.203125q1.0625 1.1875 1.0625 3.171875l0 0.09375q0 1.234375 -0.46875 2.21875q-0.46875 0.984375 -1.359375 1.53125q-0.875 0.546875 -2.015625 0.546875q-1.71875 0 -2.78125 -1.1875q-1.0625 -1.203125 -1.0625 -3.171875l0 -0.109375zm1.453125 0.171875q0 1.40625 0.640625 2.265625q0.65625 0.84375 1.75 0.84375q1.109375 0 1.75 -0.859375q0.65625 -0.859375 0.65625 -2.421875q0 -1.390625 -0.671875 -2.25q-0.65625 -0.859375 -1.75 -0.859375q-1.0625 0 -1.71875 0.859375q-0.65625 0.84375 -0.65625 2.421875zm15.53125 2.140625l1.625 -6.453125l1.453125 0l-2.46875 8.453125l-1.171875 0l-2.046875 -6.40625l-2.0 6.40625l-1.171875 0l-2.453125 -8.453125l1.4375 0l1.65625 6.328125l1.96875 -6.328125l1.171875 0l2.0 6.453125zm8.0546875 2.15625q-1.71875 0 -2.796875 -1.125q-1.078125 -1.140625 -1.078125 -3.03125l0 -0.265625q0 -1.25 0.46875 -2.234375q0.484375 -1.0 1.34375 -1.546875q0.875 -0.5625 1.875 -0.5625q1.65625 0 2.5625 1.09375q0.921875 1.078125 0.921875 3.09375l0 0.609375l-5.734375 0q0.03125 1.25 0.734375 2.015625q0.703125 0.765625 1.78125 0.765625q0.765625 0 1.296875 -0.3125q0.53125 -0.3125 0.921875 -0.828125l0.890625 0.6875q-1.0625 1.640625 -3.1875 1.640625zm-0.1875 -7.578125q-0.875 0 -1.46875 0.640625q-0.59375 0.625 -0.734375 1.78125l4.234375 0l0 -0.109375q-0.0625 -1.109375 -0.59375 -1.703125q-0.53125 -0.609375 -1.4375 -0.609375zm9.2421875 0.265625q-0.328125 -0.0625 -0.71875 -0.0625q-1.421875 0 -1.921875 1.21875l0 6.0l-1.453125 0l0 -8.453125l1.40625 0l0.03125 0.96875q0.703125 -1.125 2.015625 -1.125q0.421875 0 0.640625 0.109375l0 1.34375z" fill-rule="nonzero"/><path fill="#000000" d="m693.5867 74.99488q0 -1.953125 0.921875 -3.125q0.921875 -1.1875 2.40625 -1.1875q1.484375 0 2.359375 1.015625l0 -4.40625l1.4375 0l0 12.0l-1.328125 0l-0.0625 -0.90625q-0.875 1.0625 -2.421875 1.0625q-1.46875 0 -2.390625 -1.203125q-0.921875 -1.203125 -0.921875 -3.140625l0 -0.109375zm1.4375 0.15625q0 1.4375 0.59375 2.25q0.59375 0.8125 1.640625 0.8125q1.375 0 2.015625 -1.234375l0 -3.875q-0.65625 -1.203125 -2.0 -1.203125q-1.0625 0 -1.65625 0.828125q-0.59375 0.8125 -0.59375 2.421875zm11.4453125 4.296875q-1.71875 0 -2.796875 -1.125q-1.078125 -1.140625 -1.078125 -3.03125l0 -0.265625q0 -1.25 0.46875 -2.234375q0.484375 -1.0 1.34375 -1.546875q0.875 -0.5625 1.875 -0.5625q1.65625 0 2.5625 1.09375q0.921875 1.078125 0.921875 3.09375l0 0.609375l-5.734375 0q0.03125 1.25 0.734375 2.015625q0.703125 0.765625 1.78125 0.765625q0.765625 0 1.296875 -0.3125q0.53125 -0.3125 0.921875 -0.828125l0.890625 0.6875q-1.0625 1.640625 -3.1875 1.640625zm-0.1875 -7.578125q-0.875 0 -1.46875 0.640625q-0.59375 0.625 -0.734375 1.78125l4.234375 0l0 -0.109375q-0.0625 -1.109375 -0.59375 -1.703125q-0.53125 -0.609375 -1.4375 -0.609375zm7.1171875 -3.078125l0 2.046875l1.578125 0l0 1.109375l-1.578125 0l0 5.25q0 0.5 0.203125 0.765625q0.21875 0.25 0.71875 0.25q0.25 0 0.6875 -0.09375l0 1.171875q-0.5625 0.15625 -1.109375 0.15625q-0.96875 0 -1.46875 -0.578125q-0.484375 -0.59375 -0.484375 -1.671875l0 -5.25l-1.53125 0l0 -1.109375l1.53125 0l0 -2.046875l1.453125 0zm6.7734375 10.65625q-1.71875 0 -2.796875 -1.125q-1.078125 -1.140625 -1.078125 -3.03125l0 -0.265625q0 -1.25 0.46875 -2.234375q0.484375 -1.0 1.34375 -1.546875q0.875 -0.5625 1.875 -0.5625q1.65625 0 2.5625 1.09375q0.921875 1.078125 0.921875 3.09375l0 0.609375l-5.734375 0q0.03125 1.25 0.734375 2.015625q0.703125 0.765625 1.78125 0.765625q0.765625 0 1.296875 -0.3125q0.53125 -0.3125 0.921875 -0.828125l0.890625 0.6875q-1.0625 1.640625 -3.1875 1.640625zm-0.1875 -7.578125q-0.875 0 -1.46875 0.640625q-0.59375 0.625 -0.734375 1.78125l4.234375 0l0 -0.109375q-0.0625 -1.109375 -0.59375 -1.703125q-0.53125 -0.609375 -1.4375 -0.609375zm8.5390625 6.390625q0.78125 0 1.359375 -0.46875q0.578125 -0.46875 0.640625 -1.171875l1.359375 0q-0.03125 0.734375 -0.5 1.390625q-0.453125 0.65625 -1.234375 1.046875q-0.765625 0.390625 -1.625 0.390625q-1.71875 0 -2.75 -1.15625q-1.015625 -1.15625 -1.015625 -3.15625l0 -0.234375q0 -1.234375 0.453125 -2.1875q0.453125 -0.96875 1.296875 -1.5q0.859375 -0.53125 2.015625 -0.53125q1.421875 0 2.359375 0.859375q0.9375 0.84375 1.0 2.203125l-1.359375 0q-0.0625 -0.828125 -0.625 -1.34375q-0.5625 -0.53125 -1.375 -0.53125q-1.109375 0 -1.71875 0.796875q-0.59375 0.78125 -0.59375 2.28125l0 0.28125q0 1.453125 0.59375 2.25q0.609375 0.78125 1.71875 0.78125zm6.953125 -9.46875l0 2.046875l1.578125 0l0 1.109375l-1.578125 0l0 5.25q0 0.5 0.203125 0.765625q0.21875 0.25 0.71875 0.25q0.25 0 0.6875 -0.09375l0 1.171875q-0.5625 0.15625 -1.109375 0.15625q-0.96875 0 -1.46875 -0.578125q-0.484375 -0.59375 -0.484375 -1.671875l0 -5.25l-1.53125 0l0 -1.109375l1.53125 0l0 -2.046875l1.453125 0zm2.7265625 6.1875q0 -1.234375 0.484375 -2.21875q0.484375 -1.0 1.359375 -1.53125q0.875 -0.546875 1.984375 -0.546875q1.734375 0 2.796875 1.203125q1.0625 1.1875 1.0625 3.171875l0 0.09375q0 1.234375 -0.46875 2.21875q-0.46875 0.984375 -1.359375 1.53125q-0.875 0.546875 -2.015625 0.546875q-1.71875 0 -2.78125 -1.1875q-1.0625 -1.203125 -1.0625 -3.171875l0 -0.109375zm1.453125 0.171875q0 1.40625 0.640625 2.265625q0.65625 0.84375 1.75 0.84375q1.109375 0 1.75 -0.859375q0.65625 -0.859375 0.65625 -2.421875q0 -1.390625 -0.671875 -2.25q-0.65625 -0.859375 -1.75 -0.859375q-1.0625 0 -1.71875 0.859375q-0.65625 0.84375 -0.65625 2.421875zm12.140625 -3.015625q-0.328125 -0.0625 -0.71875 -0.0625q-1.421875 0 -1.921875 1.21875l0 6.0l-1.453125 0l0 -8.453125l1.40625 0l0.03125 0.96875q0.703125 -1.125 2.015625 -1.125q0.421875 0 0.640625 0.109375l0 1.34375z" fill-rule="nonzero"/><path fill="#f5d0d0" d="m490.937 32.459316l115.40155 0l0 63.181103l-115.40155 0z" fill-rule="evenodd"/><path stroke="#000000" stroke-width="1.0" stroke-linejoin="round" stroke-linecap="butt" d="m490.937 32.459316l115.40155 0l0 63.181103l-115.40155 0z" fill-rule="evenodd"/><path fill="#000000" d="m513.46985 63.33174q-1.9219055 -0.546875 -2.8125305 -1.359375q-0.875 -0.8125 -0.875 -2.0q0 -1.34375 1.078125 -2.21875q1.078125 -0.875 2.7969055 -0.875q1.171875 0 2.078125 0.453125q0.921875 0.453125 1.421875 1.25q0.515625 0.796875 0.515625 1.734375l-1.515625 0q0 -1.03125 -0.65625 -1.609375q-0.65625 -0.59375 -1.84375 -0.59375q-1.109375 0 -1.7344055 0.484375q-0.625 0.484375 -0.625 1.359375q0 0.6875 0.59375 1.171875q0.5937805 0.484375 2.0000305 0.890625q1.421875 0.390625 2.21875 0.875q0.8125 0.46875 1.1875 1.109375q0.390625 0.640625 0.390625 1.515625q0 1.375 -1.078125 2.21875q-1.078125 0.828125 -2.875 0.828125q-1.171875 0 -2.1875305 -0.453125q-1.015625 -0.453125 -1.578125 -1.234375q-0.546875 -0.78125 -0.546875 -1.765625l1.515625 0q0 1.03125 0.75 1.625q0.7656555 0.59375 2.0469055 0.59375q1.1875 0 1.8125 -0.484375q0.640625 -0.484375 0.640625 -1.3125q0 -0.84375 -0.59375 -1.296875q-0.578125 -0.453125 -2.125 -0.90625zm6.1484375 5.078125l0 -11.375l3.203125 0q1.484375 0 2.625 0.65625q1.140625 0.65625 1.765625 1.875q0.625 1.203125 0.625 2.765625l0 0.734375q0 1.609375 -0.625 2.828125q-0.609375 1.203125 -1.765625 1.859375q-1.15625 0.640625 -2.6875 0.65625l-3.140625 0zm1.5 -10.140625l0 8.90625l1.578125 0q1.734375 0 2.6875 -1.078125q0.96875 -1.078125 0.96875 -3.0625l0 -0.671875q0 -1.9375 -0.90625 -3.0q-0.90625 -1.078125 -2.578125 -1.09375l-1.75 0zm13.1640625 5.53125l-2.671875 0l0 4.609375l-1.515625 0l0 -11.375l3.765625 0q1.921875 0 2.953125 0.875q1.046875 0.875 1.046875 2.546875q0 1.0625 -0.578125 1.859375q-0.578125 0.78125 -1.59375 1.171875l2.671875 4.828125l0 0.09375l-1.609375 0l-2.46875 -4.609375zm-2.671875 -1.21875l2.296875 0q1.125 0 1.78125 -0.578125q0.65625 -0.578125 0.65625 -1.546875q0 -1.0625 -0.625 -1.625q-0.625 -0.5625 -1.8125 -0.5625l-2.296875 0l0 4.3125zm11.734375 1.53125q0 -1.953125 0.921875 -3.125q0.921875 -1.1875 2.40625 -1.1875q1.484375 0 2.359375 1.015625l0 -4.40625l1.4375 0l0 12.0l-1.328125 0l-0.0625 -0.90625q-0.875 1.0625 -2.421875 1.0625q-1.46875 0 -2.390625 -1.203125q-0.921875 -1.203125 -0.921875 -3.140625l0 -0.109375zm1.4375 0.15625q0 1.4375 0.59375 2.25q0.59375 0.8125 1.640625 0.8125q1.375 0 2.015625 -1.234375l0 -3.875q-0.65625 -1.203125 -2.0 -1.203125q-1.0625 0 -1.65625 0.828125q-0.59375 0.8125 -0.59375 2.421875zm11.4453125 4.296875q-1.71875 0 -2.796875 -1.125q-1.078125 -1.140625 -1.078125 -3.03125l0 -0.265625q0 -1.25 0.46875 -2.234375q0.484375 -1.0 1.34375 -1.546875q0.875 -0.5625 1.875 -0.5625q1.65625 0 2.5625 1.09375q0.921875 1.078125 0.921875 3.09375l0 0.609375l-5.734375 0q0.03125 1.25 0.734375 2.015625q0.703125 0.765625 1.78125 0.765625q0.765625 0 1.296875 -0.3125q0.53125 -0.3125 0.921875 -0.828125l0.890625 0.6875q-1.0625 1.640625 -3.1875 1.640625zm-0.1875 -7.578125q-0.875 0 -1.46875 0.640625q-0.59375 0.625 -0.734375 1.78125l4.234375 0l0 -0.109375q-0.0625 -1.109375 -0.59375 -1.703125q-0.53125 -0.609375 -1.4375 -0.609375zm7.84375 5.453125l2.09375 -6.484375l1.46875 0l-3.03125 8.453125l-1.09375 0l-3.0625 -8.453125l1.46875 0l2.15625 6.484375zm6.53125 1.96875l-1.453125 0l0 -8.453125l1.453125 0l0 8.453125zm-1.5625 -10.703125q0 -0.34375 0.203125 -0.578125q0.21875 -0.25 0.640625 -0.25q0.421875 0 0.640625 0.25q0.21875 0.234375 0.21875 0.59375q0 0.34375 -0.21875 0.578125q-0.21875 0.234375 -0.640625 0.234375q-0.421875 0 -0.640625 -0.234375q-0.203125 -0.234375 -0.203125 -0.59375zm7.2578125 9.671875q0.78125 0 1.359375 -0.46875q0.578125 -0.46875 0.640625 -1.171875l1.359375 0q-0.03125 0.734375 -0.5 1.390625q-0.453125 0.65625 -1.234375 1.046875q-0.765625 0.390625 -1.625 0.390625q-1.71875 0 -2.75 -1.15625q-1.015625 -1.15625 -1.015625 -3.15625l0 -0.234375q0 -1.234375 0.453125 -2.1875q0.453125 -0.96875 1.296875 -1.5q0.859375 -0.53125 2.015625 -0.53125q1.421875 0 2.359375 0.859375q0.9375 0.84375 1.0 2.203125l-1.359375 0q-0.0625 -0.828125 -0.625 -1.34375q-0.5625 -0.53125 -1.375 -0.53125q-1.109375 0 -1.71875 0.796875q-0.59375 0.78125 -0.59375 2.28125l0 0.28125q0 1.453125 0.59375 2.25q0.609375 0.78125 1.71875 0.78125zm8.5 1.1875q-1.71875 0 -2.796875 -1.125q-1.078125 -1.140625 -1.078125 -3.03125l0 -0.265625q0 -1.25 0.46875 -2.234375q0.484375 -1.0 1.34375 -1.546875q0.875 -0.5625 1.875 -0.5625q1.65625 0 2.5625 1.09375q0.921875 1.078125 0.921875 3.09375l0 0.609375l-5.734375 0q0.03125 1.25 0.734375 2.015625q0.703125 0.765625 1.78125 0.765625q0.765625 0 1.296875 -0.3125q0.53125 -0.3125 0.921875 -0.828125l0.890625 0.6875q-1.0625 1.640625 -3.1875 1.640625zm-0.1875 -7.578125q-0.875 0 -1.46875 0.640625q-0.59375 0.625 -0.734375 1.78125l4.234375 0l0 -0.109375q-0.0625 -1.109375 -0.59375 -1.703125q-0.53125 -0.609375 -1.4375 -0.609375z" fill-rule="nonzero"/><path fill="#000000" fill-opacity="0.0" d="m606.33856 64.049866l58.393738 -0.12598038" fill-rule="evenodd"/><path stroke="#000000" stroke-width="1.0" stroke-linejoin="round" stroke-linecap="butt" d="m606.33856 64.049866l52.393738 -0.11303711" fill-rule="evenodd"/><path fill="#000000" stroke="#000000" stroke-width="1.0" stroke-linecap="butt" d="m658.73584 65.588554l4.534546 -1.6615143l-4.541626 -1.6419411z" fill-rule="evenodd"/><path fill="#cfe2f3" d="m20.401575 32.404198l115.40157 0l0 63.181107l-115.40157 0z" fill-rule="evenodd"/><path stroke="#000000" stroke-width="1.0" stroke-linejoin="round" stroke-linecap="butt" d="m20.401575 32.404198l115.40157 0l0 63.181107l-115.40157 0z" fill-rule="evenodd"/><path fill="#000000" d="m41.45783 68.35475l-1.5 0l-5.734375 -8.765629l0 8.765629l-1.5 0l0 -11.375004l1.5 0l5.75 8.796879l0 -8.796879l1.484375 0l0 11.375004zm2.0625 -4.3125q0 -1.2343788 0.484375 -2.2187538q0.484375 -1.0 1.359375 -1.53125q0.875 -0.546875 1.984375 -0.546875q1.734375 0 2.796875 1.203125q1.0625 1.1875 1.0625 3.1718788l0 0.09375q0 1.234375 -0.46875 2.21875q-0.46875 0.984375 -1.359375 1.53125q-0.875 0.546875 -2.015625 0.546875q-1.71875 0 -2.78125 -1.1875q-1.0625 -1.203125 -1.0625 -3.171875l0 -0.109375zm1.453125 0.171875q0 1.40625 0.640625 2.265625q0.65625 0.84375 1.75 0.84375q1.109375 0 1.75 -0.859375q0.65625 -0.859375 0.65625 -2.421875q0 -1.3906288 -0.671875 -2.2500038q-0.65625 -0.859375 -1.75 -0.859375q-1.0625 0 -1.71875 0.859375q-0.65625 0.84375 -0.65625 2.4218788zm9.625 4.140625l-1.453125 0l0 -8.453129l1.453125 0l0 8.453129zm-1.5625 -10.703129q0 -0.34375 0.203125 -0.578125q0.21875 -0.25 0.640625 -0.25q0.421875 0 0.640625 0.25q0.21875 0.234375 0.21875 0.59375q0 0.34375 -0.21875 0.578125q-0.21875 0.234375 -0.640625 0.234375q-0.421875 0 -0.640625 -0.234375q-0.203125 -0.234375 -0.203125 -0.59375zm8.7890625 8.453129q0 -0.578125 -0.4375 -0.90625q-0.4375 -0.328125 -1.546875 -0.5625q-1.09375 -0.234375 -1.734375 -0.5625q-0.640625 -0.3281288 -0.953125 -0.7812538q-0.3125 -0.453125 -0.3125 -1.078125q0 -1.03125 0.875 -1.75q0.890625 -0.71875 2.25 -0.71875q1.4375 0 2.328125 0.75q0.90625 0.734375 0.90625 1.890625l-1.453125 0q0 -0.59375 -0.515625 -1.015625q-0.5 -0.4375 -1.265625 -0.4375q-0.78125 0 -1.234375 0.34375q-0.4375 0.34375 -0.4375 0.890625q0 0.53125 0.40625 0.796875q0.421875 0.265625 1.5 0.515625q1.078125 0.234375 1.75 0.5781288q0.671875 0.328125 1.0 0.796875q0.328125 0.46875 0.328125 1.15625q0 1.125 -0.90625 1.8125q-0.90625 0.6875 -2.359375 0.6875q-1.015625 0 -1.796875 -0.359375q-0.78125 -0.359375 -1.21875 -1.0q-0.4375 -0.65625 -0.4375 -1.40625l1.4375 0q0.046875 0.734375 0.578125 1.15625q0.546875 0.421875 1.4375 0.421875q0.828125 0 1.3125 -0.328125q0.5 -0.328125 0.5 -0.890625zm6.843754 2.40625q-1.71875 0 -2.796875 -1.125q-1.078125 -1.140625 -1.078125 -3.03125l0 -0.265625q0 -1.2500038 0.46875 -2.2343788q0.484375 -1.0 1.34375 -1.546875q0.875 -0.5625 1.875 -0.5625q1.65625 0 2.5625 1.09375q0.921875 1.078125 0.921875 3.09375l0 0.6093788l-5.734375 0q0.03125 1.25 0.734375 2.015625q0.703125 0.765625 1.78125 0.765625q0.765625 0 1.296875 -0.3125q0.53125 -0.3125 0.921875 -0.828125l0.890625 0.6875q-1.0625 1.640625 -3.1875 1.640625zm-0.1875 -7.578129q-0.875 0 -1.46875 0.640625q-0.59375 0.625 -0.734375 1.78125l4.234375 0l0 -0.109375q-0.0625 -1.109375 -0.59375 -1.703125q-0.53125 -0.609375 -1.4375 -0.609375zm14.03125 5.171879q0 -0.578125 -0.4375 -0.90625q-0.4375 -0.328125 -1.546875 -0.5625q-1.09375 -0.234375 -1.734375 -0.5625q-0.640625 -0.3281288 -0.953125 -0.7812538q-0.3125 -0.453125 -0.3125 -1.078125q0 -1.03125 0.875 -1.75q0.890625 -0.71875 2.25 -0.71875q1.4375 0 2.328125 0.75q0.90625 0.734375 0.90625 1.890625l-1.453125 0q0 -0.59375 -0.515625 -1.015625q-0.5 -0.4375 -1.265625 -0.4375q-0.78125 0 -1.234375 0.34375q-0.4375 0.34375 -0.4375 0.890625q0 0.53125 0.40625 0.796875q0.421875 0.265625 1.5 0.515625q1.078125 0.234375 1.75 0.5781288q0.671875 0.328125 1.0 0.796875q0.328125 0.46875 0.328125 1.15625q0 1.125 -0.90625 1.8125q-0.90625 0.6875 -2.359375 0.6875q-1.015625 0 -1.796875 -0.359375q-0.78125 -0.359375 -1.21875 -1.0q-0.4375 -0.65625 -0.4375 -1.40625l1.4375 0q0.046875 0.734375 0.578125 1.15625q0.546875 0.421875 1.4375 0.421875q0.828125 0 1.3125 -0.328125q0.5 -0.328125 0.5 -0.890625zm2.953125 -2.0625q0 -1.2343788 0.484375 -2.2187538q0.484375 -1.0 1.359375 -1.53125q0.875 -0.546875 1.984375 -0.546875q1.734375 0 2.796875 1.203125q1.0625 1.1875 1.0625 3.1718788l0 0.09375q0 1.234375 -0.46875 2.21875q-0.46875 0.984375 -1.359375 1.53125q-0.875 0.546875 -2.015625 0.546875q-1.71875 0 -2.78125 -1.1875q-1.0625 -1.203125 -1.0625 -3.171875l0 -0.109375zm1.453125 0.171875q0 1.40625 0.640625 2.265625q0.65625 0.84375 1.75 0.84375q1.109375 0 1.75 -0.859375q0.65625 -0.859375 0.65625 -2.421875q0 -1.3906288 -0.671875 -2.2500038q-0.65625 -0.859375 -1.75 -0.859375q-1.0625 0 -1.71875 0.859375q-0.65625 0.84375 -0.65625 2.4218788zm13.265625 3.296875q-0.84375 1.0 -2.46875 1.0q-1.359375 0 -2.0625 -0.78125q-0.703125 -0.796875 -0.71875 -2.328125l0 -5.500004l1.453125 0l0 5.453129q0 1.921875 1.5625 1.921875q1.65625 0 2.203125 -1.234375l0 -6.140629l1.4375 0l0 8.453129l-1.375 0l-0.03125 -0.84375zm7.6953125 -6.312504q-0.328125 -0.0625 -0.71875 -0.0625q-1.421875 0 -1.921875 1.21875l0 6.000004l-1.453125 0l0 -8.453129l1.40625 0l0.03125 0.96875q0.703125 -1.125 2.015625 -1.125q0.421875 0 0.640625 0.109375l0 1.34375zm4.5625 6.125004q0.78125 0 1.359375 -0.46875q0.578125 -0.46875 0.640625 -1.171875l1.359375 0q-0.03125 0.734375 -0.5 1.390625q-0.453125 0.65625 -1.234375 1.046875q-0.765625 0.390625 -1.625 0.390625q-1.71875 0 -2.75 -1.15625q-1.015625 -1.15625 -1.015625 -3.15625l0 -0.23437881q0 -1.234375 0.453125 -2.1875q0.453125 -0.96875 1.296875 -1.5q0.859375 -0.53125 2.015625 -0.53125q1.421875 0 2.359375 0.859375q0.9375 0.84375 1.0 2.203125l-1.359375 0q-0.0625 -0.828125 -0.625 -1.34375q-0.5625 -0.53125 -1.375 -0.53125q-1.109375 0 -1.71875 0.796875q-0.59375 0.78125 -0.59375 2.2812538l0 0.28125q0 1.453125 0.59375 2.25q0.609375 0.78125 1.71875 0.78125zm8.5 1.1875q-1.71875 0 -2.796875 -1.125q-1.078125 -1.140625 -1.078125 -3.03125l0 -0.265625q0 -1.2500038 0.46875 -2.2343788q0.484375 -1.0 1.34375 -1.546875q0.875 -0.5625 1.875 -0.5625q1.65625 0 2.5625 1.09375q0.921875 1.078125 0.921875 3.09375l0 0.6093788l-5.734375 0q0.03125 1.25 0.734375 2.015625q0.703125 0.765625 1.78125 0.765625q0.765625 0 1.296875 -0.3125q0.53125 -0.3125 0.921875 -0.828125l0.890625 0.6875q-1.0625 1.640625 -3.1875 1.640625zm-0.1875 -7.578129q-0.875 0 -1.46875 0.640625q-0.59375 0.625 -0.734375 1.78125l4.234375 0l0 -0.109375q-0.0625 -1.109375 -0.59375 -1.703125q-0.53125 -0.609375 -1.4375 -0.609375z" fill-rule="nonzero"/><path fill="#f3f3f3" d="m194.19423 32.52231l115.401566 0l0 63.181107l-115.401566 0z" fill-rule="evenodd"/><path stroke="#000000" stroke-width="1.0" stroke-linejoin="round" stroke-linecap="butt" d="m194.19423 32.52231l115.401566 0l0 63.181107l-115.401566 0z" fill-rule="evenodd"/><path fill="#000000" d="m221.55518 68.47286l0 -11.375004l3.203125 0q1.484375 0 2.625 0.65625q1.140625 0.65625 1.765625 1.875q0.625 1.203125 0.625 2.765625l0 0.734375q0 1.6093788 -0.625 2.8281288q-0.609375 1.203125 -1.765625 1.859375q-1.15625 0.640625 -2.6875 0.65625l-3.140625 0zm1.5 -10.140629l0 8.906254l1.578125 0q1.734375 0 2.6875 -1.078125q0.96875 -1.078125 0.96875 -3.0625038l0 -0.671875q0 -1.9375 -0.90625 -3.0q-0.90625 -1.078125 -2.578125 -1.09375l-1.75 0zm17.351562 6.531254q-0.203125 1.796875 -1.328125 2.78125q-1.125 0.984375 -2.984375 0.984375q-2.015625 0 -3.234375 -1.4375q-1.203125 -1.453125 -1.203125 -3.8750038l0 -1.09375q0 -1.59375 0.5625 -2.796875q0.5625 -1.203125 1.59375 -1.84375q1.046875 -0.640625 2.421875 -0.640625q1.8125 0 2.90625 1.015625q1.09375 1.0 1.265625 2.796875l-1.5 0q-0.203125 -1.359375 -0.859375 -1.96875q-0.640625 -0.609375 -1.8125 -0.609375q-1.4375 0 -2.265625 1.0625q-0.8125 1.0625 -0.8125 3.015625l0 1.109375q0 1.8437538 0.765625 2.9375038q0.78125 1.09375 2.171875 1.09375q1.25 0 1.921875 -0.5625q0.671875 -0.5625 0.890625 -1.96875l1.5 0zm12.9375 -0.53125q0 1.9375 -0.890625 3.125q-0.890625 1.171875 -2.390625 1.171875q-1.59375 0 -2.46875 -1.140625l-0.078125 0.984375l-1.328125 0l0 -12.000004l1.453125 0l0 4.46875q0.875 -1.078125 2.40625 -1.078125q1.546875 0 2.421875 1.171875q0.875 1.15625 0.875 3.1718788l0 0.125zm-1.4375 -0.15625q0 -1.4843788 -0.578125 -2.2812538q-0.5625 -0.8125 -1.640625 -0.8125q-1.421875 0 -2.046875 1.328125l0 3.6562538q0.65625 1.328125 2.0625 1.328125q1.046875 0 1.625 -0.796875q0.578125 -0.8125 0.578125 -2.421875zm4.8359375 4.296875l-1.453125 0l0 -12.000004l1.453125 0l0 12.000004zm1.9296875 -4.3125q0 -1.2343788 0.484375 -2.2187538q0.484375 -1.0 1.359375 -1.53125q0.875 -0.546875 1.984375 -0.546875q1.734375 0 2.796875 1.203125q1.0625 1.1875 1.0625 3.1718788l0 0.09375q0 1.234375 -0.46875 2.21875q-0.46875 0.984375 -1.359375 1.53125q-0.875 0.546875 -2.015625 0.546875q-1.71875 0 -2.78125 -1.1875q-1.0625 -1.203125 -1.0625 -3.171875l0 -0.109375zm1.453125 0.171875q0 1.40625 0.640625 2.265625q0.65625 0.84375 1.75 0.84375q1.109375 0 1.75 -0.859375q0.65625 -0.859375 0.65625 -2.421875q0 -1.3906288 -0.671875 -2.2500038q-0.65625 -0.859375 -1.75 -0.859375q-1.0625 0 -1.71875 0.859375q-0.65625 0.84375 -0.65625 2.4218788zm11.4375 3.109375q0.78125 0 1.359375 -0.46875q0.578125 -0.46875 0.640625 -1.171875l1.359375 0q-0.03125 0.734375 -0.5 1.390625q-0.453125 0.65625 -1.234375 1.046875q-0.765625 0.390625 -1.625 0.390625q-1.71875 0 -2.75 -1.15625q-1.015625 -1.15625 -1.015625 -3.15625l0 -0.234375q0 -1.2343788 0.453125 -2.1875038q0.453125 -0.96875 1.296875 -1.5q0.859375 -0.53125 2.015625 -0.53125q1.421875 0 2.359375 0.859375q0.9375 0.84375 1.0 2.203125l-1.359375 0q-0.0625 -0.828125 -0.625 -1.34375q-0.5625 -0.53125 -1.375 -0.53125q-1.109375 0 -1.71875 0.796875q-0.59375 0.78125 -0.59375 2.2812538l0 0.28125q0 1.453125 0.59375 2.25q0.609375 0.78125 1.71875 0.78125zm7.34375 -2.890625l-0.90625 0.953125l0 2.96875l-1.4375 0l0 -12.000004l1.4375 0l0 7.25l0.78125 -0.921875l2.625 -2.78125l1.765625 0l-3.296875 3.53125l3.671875 4.921879l-1.6875 0l-2.953125 -3.921875z" fill-rule="nonzero"/><path fill="#000000" fill-opacity="0.0" d="m135.80315 63.99475l58.393707 0.12598419" fill-rule="evenodd"/><path stroke="#000000" stroke-width="1.0" stroke-linejoin="round" stroke-linecap="butt" d="m135.80315 63.99475l52.393723 0.11303711" fill-rule="evenodd"/><path fill="#000000" stroke="#000000" stroke-width="1.0" stroke-linecap="butt" d="m188.1933 65.75952l4.5416565 -1.6419373l-4.5345306 -1.6615219z" fill-rule="evenodd"/><path fill="#000000" fill-opacity="0.0" d="m309.5958 64.11286l181.35434 -0.06299591" fill-rule="evenodd"/><path stroke="#000000" stroke-width="1.0" stroke-linejoin="round" stroke-linecap="butt" d="m309.5958 64.11286l175.35434 -0.060905457" fill-rule="evenodd"/><path fill="#000000" stroke="#000000" stroke-width="1.0" stroke-linecap="butt" d="m484.9507 65.70368l4.537506 -1.653305l-4.538666 -1.6501579z" fill-rule="evenodd"/><path fill="#000000" fill-opacity="0.0" d="m20.401575 95.708664l115.40157 0l0 48.850388l-115.40157 0z" fill-rule="evenodd"/><path fill="#000000" d="m60.49792 124.93386l-1.25 0l0 -4.375l-4.78125 0l0 4.375l-1.25 0l0 -9.46875l1.25 0l0 4.0625l4.78125 0l0 -4.0625l1.25 0l0 9.46875zm3.4702454 -3.703125l0 3.703125l-1.25 0l0 -9.46875l3.5000038 0q1.5625 0 2.4375 0.796875q0.875 0.78125 0.875 2.09375q0 1.375 -0.859375 2.125q-0.859375 0.75 -2.46875 0.75l-2.2343788 0zm0 -1.03125l2.2500038 0q1.0 0 1.53125 -0.46875q0.546875 -0.46875 0.546875 -1.359375q0 -0.84375 -0.546875 -1.34375q-0.53125 -0.515625 -1.453125 -0.546875l-2.3281288 0l0 3.71875zm11.895176 -0.59375l0.90625 0q0.859375 -0.015625 1.34375 -0.4375q0.484375 -0.4375 0.484375 -1.1875q0 -1.65625 -1.65625 -1.65625q-0.78125 0 -1.25 0.453125q-0.453125 0.4375 -0.453125 1.171875l-1.203125 0q0 -1.125 0.8125 -1.875q0.828125 -0.75 2.09375 -0.75q1.34375 0 2.09375 0.71875q0.765625 0.703125 0.765625 1.96875q0 0.609375 -0.40625 1.203125q-0.390625 0.578125 -1.078125 0.859375q0.78125 0.25 1.203125 0.828125q0.4375 0.5625 0.4375 1.390625q0 1.28125 -0.84375 2.03125q-0.828125 0.734375 -2.171875 0.734375q-1.328125 0 -2.171875 -0.71875q-0.828125 -0.71875 -0.828125 -1.90625l1.21875 0q0 0.75 0.484375 1.203125q0.484375 0.4375 1.3125 0.4375q0.859375 0 1.328125 -0.453125q0.46875 -0.453125 0.46875 -1.296875q0 -0.828125 -0.515625 -1.265625q-0.5 -0.453125 -1.46875 -0.46875l-0.90625 0l0 -0.984375zm10.827797 2.140625l1.3125 0l0 0.984375l-1.3125 0l0 2.203125l-1.21875 0l0 -2.203125l-4.3124924 0l0 -0.703125l4.2499924 -6.5625l1.28125 0l0 6.28125zm-4.1562424 0l2.9374924 0l0 -4.640625l-0.140625 0.265625l-2.7968674 4.375zm11.280922 -6.296875l0 1.03125l-0.21875 0q-1.40625 0.015625 -2.25 0.828125q-0.828125 0.8125 -0.953125 2.265625q0.75 -0.859375 2.03125 -0.859375q1.25 0 1.984375 0.875q0.734375 0.875 0.734375 2.25q0 1.46875 -0.796875 2.34375q-0.796875 0.875 -2.140625 0.875q-1.359375 0 -2.203125 -1.03125q-0.84375 -1.046875 -0.84375 -2.703125l0 -0.453125q0 -2.625 1.109375 -4.0q1.125 -1.390625 3.328125 -1.421875l0.21875 0zm-1.578125 4.265625q-0.625 0 -1.15625 0.375q-0.515625 0.375 -0.71875 0.9375l0 0.4375q0 1.171875 0.53125 1.890625q0.53125 0.71875 1.3125 0.71875q0.8125 0 1.28125 -0.59375q0.46875 -0.609375 0.46875 -1.578125q0 -0.984375 -0.46875 -1.578125q-0.46875 -0.609375 -1.25 -0.609375zm4.6403046 5.21875l0 -9.46875l3.109375 0q1.53125 0 2.3125 0.640625q0.78125 0.625 0.78125 1.875q0 0.671875 -0.375 1.1875q-0.375 0.5 -1.03125 0.78125q0.765625 0.21875 1.203125 0.828125q0.453125 0.59375 0.453125 1.421875q0 1.28125 -0.828125 2.015625q-0.828125 0.71875 -2.328125 0.71875l-3.296875 0zm1.25 -4.4375l0 3.421875l2.0625 0q0.875 0 1.375 -0.453125q0.515625 -0.453125 0.515625 -1.25q0 -1.71875 -1.859375 -1.71875l-2.09375 0zm0 -1.0l1.890625 0q0.828125 0 1.3125 -0.40625q0.5 -0.40625 0.5 -1.109375q0 -0.78125 -0.46875 -1.140625q-0.453125 -0.359375 -1.375 -0.359375l-1.859375 0l0 3.015625z" fill-rule="nonzero"/><path fill="#000000" fill-opacity="0.0" d="m194.19423 95.708664l115.401566 0l0 48.850388l-115.401566 0z" fill-rule="evenodd"/><path fill="#000000" d="m222.39206 124.93386l0 -9.46875l3.109375 0q1.53125 0 2.3125 0.640625q0.78125 0.625 0.78125 1.875q0 0.671875 -0.375 1.1875q-0.375 0.5 -1.03125 0.78125q0.765625 0.21875 1.203125 0.828125q0.453125 0.59375 0.453125 1.421875q0 1.28125 -0.828125 2.015625q-0.828125 0.71875 -2.328125 0.71875l-3.296875 0zm1.25 -4.4375l0 3.421875l2.0625 0q0.875 0 1.375 -0.453125q0.515625 -0.453125 0.515625 -1.25q0 -1.71875 -1.859375 -1.71875l-2.09375 0zm0 -1.0l1.890625 0q0.828125 0 1.3125 -0.40625q0.5 -0.40625 0.5 -1.109375q0 -0.78125 -0.46875 -1.140625q-0.453125 -0.359375 -1.375 -0.359375l-1.859375 0l0 3.015625zm8.313171 4.421875l4.484375 0l0 1.015625l-5.75 0l0 -9.46875l1.265625 0l0 8.453125zm8.312302 -3.390625l-1.15625 1.203125l0 3.203125l-1.25 0l0 -9.46875l1.25 0l0 4.671875l4.21875 -4.671875l1.5 0l-3.71875 4.171875l4.015625 5.296875l-1.5 0l-3.359375 -4.40625zm7.861313 0.875l-3.1875 0l0 -0.984375l3.1875 0l0 0.984375zm6.786331 -3.46875q0 0.703125 -0.375 1.265625q-0.375 0.546875 -1.015625 0.859375q0.75 0.3125 1.171875 0.9375q0.4375 0.609375 0.4375 1.375q0 1.234375 -0.828125 1.96875q-0.828125 0.71875 -2.1875 0.71875q-1.359375 0 -2.1875 -0.71875q-0.8125 -0.734375 -0.8125 -1.96875q0 -0.765625 0.40625 -1.375q0.421875 -0.625 1.171875 -0.9375q-0.640625 -0.3125 -1.0 -0.859375q-0.359375 -0.5625 -0.359375 -1.265625q0 -1.203125 0.765625 -1.90625q0.765625 -0.703125 2.015625 -0.703125q1.25 0 2.015625 0.703125q0.78125 0.703125 0.78125 1.90625zm-0.984375 4.421875q0 -0.796875 -0.5 -1.296875q-0.5 -0.5 -1.3125 -0.5q-0.8125 0 -1.3125 0.5q-0.484375 0.484375 -0.484375 1.296875q0 0.796875 0.46875 1.265625q0.484375 0.453125 1.328125 0.453125q0.859375 0 1.328125 -0.453125q0.484375 -0.46875 0.484375 -1.265625zm-1.8125 -6.03125q-0.703125 0 -1.140625 0.4375q-0.4375 0.4375 -0.4375 1.1875q0 0.71875 0.421875 1.171875q0.4375 0.4375 1.15625 0.4375q0.734375 0 1.15625 -0.4375q0.4375 -0.453125 0.4375 -1.171875q0 -0.71875 -0.453125 -1.171875q-0.4375 -0.453125 -1.140625 -0.453125zm9.15593 4.4375q-0.375 0.453125 -0.90625 0.734375q-0.53125 0.265625 -1.15625 0.265625q-0.8125 0 -1.421875 -0.390625q-0.609375 -0.40625 -0.9375 -1.140625q-0.328125 -0.734375 -0.328125 -1.625q0 -0.953125 0.359375 -1.703125q0.359375 -0.765625 1.015625 -1.171875q0.671875 -0.40625 1.546875 -0.40625q1.40625 0 2.21875 1.0625q0.8125 1.046875 0.8125 2.859375l0 0.34375q0 2.765625 -1.09375 4.046875q-1.09375 1.265625 -3.296875 1.296875l-0.234375 0l0 -1.015625l0.25 0q1.5 -0.015625 2.296875 -0.765625q0.796875 -0.75 0.875 -2.390625zm-1.859375 0q0.609375 0 1.109375 -0.359375q0.515625 -0.375 0.75 -0.921875l0 -0.484375q0 -1.1875 -0.515625 -1.921875q-0.515625 -0.75 -1.296875 -0.75q-0.796875 0 -1.28125 0.609375q-0.484375 0.609375 -0.484375 1.609375q0 0.96875 0.46875 1.59375q0.46875 0.625 1.25 0.625zm7.3590393 0.640625l-3.1875 0l0 -0.984375l3.1875 0l0 0.984375zm4.1457214 -0.6875q-1.609375 -0.46875 -2.34375 -1.140625q-0.734375 -0.671875 -0.734375 -1.65625q0 -1.125 0.890625 -1.859375q0.90625 -0.734375 2.34375 -0.734375q0.96875 0 1.734375 0.390625q0.765625 0.375 1.1875 1.046875q0.421875 0.65625 0.421875 1.4375l-1.265625 0q0 -0.859375 -0.546875 -1.34375q-0.546875 -0.5 -1.53125 -0.5q-0.921875 0 -1.453125 0.40625q-0.515625 0.40625 -0.515625 1.125q0 0.578125 0.484375 0.984375q0.5 0.40625 1.671875 0.734375q1.1875 0.328125 1.859375 0.734375q0.671875 0.390625 0.984375 0.9375q0.328125 0.53125 0.328125 1.25q0 1.15625 -0.90625 1.84375q-0.890625 0.6875 -2.390625 0.6875q-0.984375 0 -1.828125 -0.375q-0.84375 -0.375 -1.3125 -1.015625q-0.453125 -0.65625 -0.453125 -1.484375l1.265625 0q0 0.859375 0.625 1.359375q0.640625 0.5 1.703125 0.5q0.984375 0 1.515625 -0.40625q0.53125 -0.40625 0.53125 -1.09375q0 -0.703125 -0.5 -1.078125q-0.484375 -0.390625 -1.765625 -0.75zm8.375824 -0.859375l2.640625 0l0 1.140625l-2.640625 0l0 2.984375l-1.203125 0l0 -2.984375l-2.65625 0l0 -1.140625l2.65625 0l0 -2.765625l1.203125 0l0 2.765625z" fill-rule="nonzero"/><path fill="#000000" fill-opacity="0.0" d="m664.7297 95.64173l115.40155 0l0 48.850395l-115.40155 0z" fill-rule="evenodd"/><path fill="#000000" d="m686.16095 120.64818q-1.609375 -0.46875 -2.34375 -1.140625q-0.734375 -0.671875 -0.734375 -1.65625q0 -1.125 0.890625 -1.859375q0.90625 -0.734375 2.34375 -0.734375q0.96875 0 1.734375 0.390625q0.765625 0.375 1.1875 1.046875q0.421875 0.65625 0.421875 1.4375l-1.265625 0q0 -0.859375 -0.546875 -1.34375q-0.546875 -0.5 -1.53125 -0.5q-0.921875 0 -1.453125 0.40625q-0.515625 0.40625 -0.515625 1.125q0 0.578125 0.484375 0.984375q0.5 0.40625 1.671875 0.734375q1.1875 0.328125 1.859375 0.734375q0.671875 0.390625 0.984375 0.9375q0.328125 0.53125 0.328125 1.25q0 1.15625 -0.90625 1.84375q-0.890625 0.6875 -2.390625 0.6875q-0.984375 0 -1.828125 -0.375q-0.84375 -0.375 -1.3125 -1.015625q-0.453125 -0.65625 -0.453125 -1.484375l1.265625 0q0 0.859375 0.625 1.359375q0.640625 0.5 1.703125 0.5q0.984375 0 1.515625 -0.40625q0.53125 -0.40625 0.53125 -1.09375q0 -0.703125 -0.5 -1.078125q-0.484375 -0.390625 -1.765625 -0.75zm5.1102295 4.21875l0 -9.46875l2.6875 0q1.234375 0 2.171875 0.546875q0.953125 0.546875 1.46875 1.5625q0.53125 1.0 0.53125 2.296875l0 0.609375q0 1.34375 -0.515625 2.359375q-0.515625 1.0 -1.484375 1.546875q-0.953125 0.53125 -2.234375 0.546875l-2.625 0zm1.25 -8.453125l0 7.4375l1.3125 0q1.453125 0 2.25 -0.890625q0.8125 -0.90625 0.8125 -2.578125l0 -0.546875q0 -1.609375 -0.765625 -2.5q-0.75 -0.90625 -2.140625 -0.921875l-1.46875 0zm10.974426 4.625l-2.234375 0l0 3.828125l-1.25 0l0 -9.46875l3.140625 0q1.59375 0 2.453125 0.734375q0.875 0.71875 0.875 2.109375q0 0.890625 -0.484375 1.546875q-0.484375 0.65625 -1.328125 0.984375l2.21875 4.015625l0 0.078125l-1.34375 0l-2.046875 -3.828125zm-2.234375 -1.03125l1.921875 0q0.9375 0 1.484375 -0.46875q0.546875 -0.484375 0.546875 -1.296875q0 -0.875 -0.53125 -1.34375q-0.515625 -0.46875 -1.5 -0.484375l-1.921875 0l0 3.59375zm14.177856 2.984375q0 -0.484375 -0.375 -0.75q-0.359375 -0.265625 -1.28125 -0.453125q-0.90625 -0.203125 -1.453125 -0.46875q-0.53125 -0.28125 -0.796875 -0.65625q-0.25 -0.390625 -0.25 -0.90625q0 -0.859375 0.734375 -1.453125q0.734375 -0.609375 1.875 -0.609375q1.1875 0 1.9375 0.625q0.75 0.609375 0.75 1.578125l-1.21875 0q0 -0.5 -0.421875 -0.859375q-0.421875 -0.359375 -1.046875 -0.359375q-0.65625 0 -1.03125 0.296875q-0.375 0.28125 -0.375 0.75q0 0.421875 0.34375 0.65625q0.34375 0.21875 1.25 0.421875q0.90625 0.203125 1.453125 0.484375q0.5625 0.265625 0.828125 0.671875q0.28125 0.390625 0.28125 0.953125q0 0.9375 -0.765625 1.515625q-0.75 0.5625 -1.953125 0.5625q-0.84375 0 -1.5 -0.296875q-0.640625 -0.296875 -1.015625 -0.828125q-0.359375 -0.546875 -0.359375 -1.171875l1.203125 0q0.03125 0.609375 0.484375 0.96875q0.453125 0.34375 1.1875 0.34375q0.6875 0 1.09375 -0.265625q0.421875 -0.28125 0.421875 -0.75zm2.4504395 -1.703125q0 -1.046875 0.40625 -1.875q0.40625 -0.828125 1.125 -1.265625q0.734375 -0.453125 1.65625 -0.453125q1.4375 0 2.328125 1.0q0.890625 0.984375 0.890625 2.640625l0 0.09375q0 1.015625 -0.390625 1.84375q-0.390625 0.8125 -1.125 1.265625q-0.734375 0.453125 -1.6875 0.453125q-1.421875 0 -2.3125 -0.984375q-0.890625 -1.0 -0.890625 -2.640625l0 -0.078125zm1.203125 0.140625q0 1.171875 0.546875 1.875q0.546875 0.703125 1.453125 0.703125q0.921875 0 1.453125 -0.71875q0.546875 -0.71875 0.546875 -2.0q0 -1.171875 -0.546875 -1.890625q-0.546875 -0.71875 -1.46875 -0.71875q-0.890625 0 -1.4375 0.71875q-0.546875 0.703125 -0.546875 2.03125zm7.3043213 3.4375l0 -6.109375l-1.109375 0l0 -0.9375l1.109375 0l0 -0.71875q0 -1.125 0.609375 -1.734375q0.609375 -0.625 1.703125 -0.625q0.421875 0 0.828125 0.109375l-0.0625 0.96875q-0.296875 -0.0625 -0.640625 -0.0625q-0.59375 0 -0.921875 0.34375q-0.3125 0.34375 -0.3125 0.984375l0 0.734375l1.5 0l0 0.9375l-1.5 0l0 6.109375l-1.203125 0zm5.67395 -8.75l0 1.703125l1.3125 0l0 0.9375l-1.3125 0l0 4.359375q0 0.421875 0.171875 0.640625q0.171875 0.21875 0.59375 0.21875q0.21875 0 0.578125 -0.078125l0 0.96875q-0.46875 0.125 -0.921875 0.125q-0.8125 0 -1.21875 -0.484375q-0.40625 -0.484375 -0.40625 -1.390625l0 -4.359375l-1.28125 0l0 -0.9375l1.28125 0l0 -1.703125l1.203125 0zm8.94751 7.09375l1.359375 -5.390625l1.203125 0l-2.046875 7.046875l-0.984375 0l-1.703125 -5.34375l-1.671875 5.34375l-0.96875 0l-2.046875 -7.046875l1.203125 0l1.375 5.28125l1.640625 -5.28125l0.96875 0l1.671875 5.390625zm8.140625 1.65625q-0.109375 -0.203125 -0.171875 -0.734375q-0.84375 0.859375 -2.015625 0.859375q-1.03125 0 -1.703125 -0.578125q-0.671875 -0.59375 -0.671875 -1.5q0 -1.09375 0.828125 -1.703125q0.84375 -0.609375 2.359375 -0.609375l1.171875 0l0 -0.5625q0 -0.625 -0.375 -1.0q-0.375 -0.375 -1.109375 -0.375q-0.640625 0 -1.078125 0.328125q-0.4375 0.328125 -0.4375 0.78125l-1.203125 0q0 -0.515625 0.359375 -1.0q0.375 -0.5 1.015625 -0.78125q0.65625 -0.296875 1.421875 -0.296875q1.21875 0 1.90625 0.609375q0.6875 0.609375 0.71875 1.671875l0 3.25q0 0.96875 0.234375 1.53125l0 0.109375l-1.25 0zm-2.0 -0.921875q0.5625 0 1.0625 -0.28125q0.515625 -0.296875 0.734375 -0.765625l0 -1.453125l-0.9375 0q-2.21875 0 -2.21875 1.296875q0 0.5625 0.375 0.890625q0.390625 0.3125 0.984375 0.3125zm8.296692 -5.046875q-0.265625 -0.03125 -0.59375 -0.03125q-1.1875 0 -1.609375 1.0l0 5.0l-1.203125 0l0 -7.046875l1.171875 0l0.03125 0.8125q0.578125 -0.9375 1.671875 -0.9375q0.34375 0 0.53125 0.09375l0 1.109375zm3.9018555 6.09375q-1.421875 0 -2.328125 -0.9375q-0.890625 -0.9375 -0.890625 -2.515625l0 -0.21875q0 -1.046875 0.390625 -1.859375q0.40625 -0.828125 1.125 -1.296875q0.71875 -0.46875 1.5625 -0.46875q1.375 0 2.125 0.90625q0.765625 0.90625 0.765625 2.59375l0 0.5l-4.765625 0q0.015625 1.03125 0.59375 1.671875q0.59375 0.640625 1.484375 0.640625q0.640625 0 1.078125 -0.25q0.453125 -0.265625 0.78125 -0.6875l0.734375 0.5625q-0.875 1.359375 -2.65625 1.359375zm-0.140625 -6.3125q-0.734375 0 -1.234375 0.53125q-0.484375 0.53125 -0.609375 1.484375l3.53125 0l0 -0.078125q-0.046875 -0.921875 -0.5 -1.421875q-0.4375 -0.515625 -1.1875 -0.515625z" fill-rule="nonzero"/><path fill="#000000" fill-opacity="0.0" d="m342.5643 64.120735l115.40158 0l0 48.850395l-115.40158 0z" fill-rule="evenodd"/><path fill="#000000" d="m363.38742 81.15843l-3.984375 0l0 4.1875l-1.25 0l0 -9.46875l5.875 0l0 1.015625l-4.625 0l0 3.25l3.984375 0l0 1.015625zm3.3981628 3.171875l4.484375 0l0 1.015625l-5.75 0l0 -9.46875l1.265625 0l0 8.453125zm11.546692 -3.03125q0 2.125 -0.734375 3.15625q-0.71875 1.015625 -2.25 1.015625q-1.515625 0 -2.25 -1.0q-0.71875 -1.0 -0.75 -3.0l0 -1.609375q0 -2.09375 0.71875 -3.109375q0.71875 -1.015625 2.265625 -1.015625q1.53125 0 2.25 0.984375q0.71875 0.984375 0.75 3.015625l0 1.5625zm-1.203125 -1.640625q0 -1.53125 -0.4375 -2.21875q-0.421875 -0.703125 -1.359375 -0.703125q-0.921875 0 -1.34375 0.703125q-0.421875 0.6875 -0.4375 2.125l0 1.921875q0 1.546875 0.4375 2.28125q0.453125 0.71875 1.359375 0.71875q0.890625 0 1.3125 -0.6875q0.4375 -0.6875 0.46875 -2.171875l0 -1.96875zm8.484039 -1.3125q0 0.703125 -0.375 1.265625q-0.375 0.546875 -1.015625 0.859375q0.75 0.3125 1.171875 0.9375q0.4375 0.609375 0.4375 1.375q0 1.234375 -0.828125 1.96875q-0.828125 0.71875 -2.1875 0.71875q-1.359375 0 -2.1875 -0.71875q-0.8125 -0.734375 -0.8125 -1.96875q0 -0.765625 0.40625 -1.375q0.421875 -0.625 1.171875 -0.9375q-0.640625 -0.3125 -1.0 -0.859375q-0.359375 -0.5625 -0.359375 -1.265625q0 -1.203125 0.765625 -1.90625q0.765625 -0.703125 2.015625 -0.703125q1.25 0 2.015625 0.703125q0.78125 0.703125 0.78125 1.90625zm-0.984375 4.421875q0 -0.796875 -0.5 -1.296875q-0.5 -0.5 -1.3125 -0.5q-0.8125 0 -1.3125 0.5q-0.484375 0.484375 -0.484375 1.296875q0 0.796875 0.46875 1.265625q0.484375 0.453125 1.328125 0.453125q0.859375 0 1.328125 -0.453125q0.484375 -0.46875 0.484375 -1.265625zm-1.8125 -6.03125q-0.703125 0 -1.140625 0.4375q-0.4375 0.4375 -0.4375 1.1875q0 0.71875 0.421875 1.171875q0.4375 0.4375 1.15625 0.4375q0.734375 0 1.15625 -0.4375q0.4375 -0.453125 0.4375 -1.171875q0 -0.71875 -0.453125 -1.171875q-0.4375 -0.453125 -1.140625 -0.453125zm9.26532 -0.875l0 1.03125l-0.21875 0q-1.40625 0.015625 -2.25 0.828125q-0.828125 0.8125 -0.953125 2.265625q0.75 -0.859375 2.03125 -0.859375q1.25 0 1.984375 0.875q0.734375 0.875 0.734375 2.25q0 1.46875 -0.796875 2.34375q-0.796875 0.875 -2.140625 0.875q-1.359375 0 -2.203125 -1.03125q-0.84375 -1.046875 -0.84375 -2.703125l0 -0.453125q0 -2.625 1.109375 -4.0q1.125 -1.390625 3.328125 -1.421875l0.21875 0zm-1.578125 4.265625q-0.625 0 -1.15625 0.375q-0.515625 0.375 -0.71875 0.9375l0 0.4375q0 1.171875 0.53125 1.890625q0.53125 0.71875 1.3125 0.71875q0.8125 0 1.28125 -0.59375q0.46875 -0.609375 0.46875 -1.578125q0 -0.984375 -0.46875 -1.578125q-0.46875 -0.609375 -1.25 -0.609375zm6.9684143 1.6875l-3.1875 0l0 -0.984375l3.1875 0l0 0.984375zm7.2550964 3.53125l-6.21875 0l0 -0.859375l3.28125 -3.65625q0.734375 -0.828125 1.0 -1.34375q0.28125 -0.515625 0.28125 -1.0625q0 -0.75 -0.453125 -1.21875q-0.4375 -0.46875 -1.1875 -0.46875q-0.890625 0 -1.390625 0.515625q-0.5 0.5 -0.5 1.40625l-1.203125 0q0 -1.296875 0.84375 -2.109375q0.84375 -0.8125 2.25 -0.8125q1.328125 0 2.09375 0.703125q0.765625 0.6875 0.765625 1.84375q0 1.390625 -1.78125 3.328125l-2.546875 2.75l4.765625 0l0 0.984375zm6.3590393 -3.1875l1.3125 0l0 0.984375l-1.3125 0l0 2.203125l-1.21875 0l0 -2.203125l-4.3125 0l0 -0.703125l4.25 -6.5625l1.28125 0l0 6.28125zm-4.15625 0l2.9375 0l0 -4.640625l-0.140625 0.265625l-2.796875 4.375zm9.187195 -0.34375l-3.1875 0l0 -0.984375l3.1875 0l0 0.984375zm4.145691 -0.6875q-1.609375 -0.46875 -2.34375 -1.140625q-0.734375 -0.671875 -0.734375 -1.65625q0 -1.125 0.890625 -1.859375q0.90625 -0.734375 2.34375 -0.734375q0.96875 0 1.734375 0.390625q0.765625 0.375 1.1875 1.046875q0.421875 0.65625 0.421875 1.4375l-1.265625 0q0 -0.859375 -0.546875 -1.34375q-0.546875 -0.5 -1.53125 -0.5q-0.921875 0 -1.453125 0.40625q-0.515625 0.40625 -0.515625 1.125q0 0.578125 0.484375 0.984375q0.5 0.40625 1.671875 0.734375q1.1875 0.328125 1.859375 0.734375q0.671875 0.390625 0.984375 0.9375q0.328125 0.53125 0.328125 1.25q0 1.15625 -0.90625 1.84375q-0.890625 0.6875 -2.390625 0.6875q-0.984375 0 -1.828125 -0.375q-0.84375 -0.375 -1.3125 -1.015625q-0.453125 -0.65625 -0.453125 -1.484375l1.265625 0q0 0.859375 0.625 1.359375q0.640625 0.5 1.703125 0.5q0.984375 0 1.515625 -0.40625q0.53125 -0.40625 0.53125 -1.09375q0 -0.703125 -0.5 -1.078125q-0.484375 -0.390625 -1.765625 -0.75zm6.735199 -5.25l3.09375 7.71875l3.09375 -7.71875l1.625 0l0 9.46875l-1.25 0l0 -3.6875l0.109375 -3.984375l-3.109375 7.671875l-0.953125 0l-3.109375 -7.65625l0.125 3.96875l0 3.6875l-1.25 0l0 -9.46875l1.625 0zm13.276703 4.390625l2.640625 0l0 1.140625l-2.640625 0l0 2.984375l-1.203125 0l0 -2.984375l-2.65625 0l0 -1.140625l2.65625 0l0 -2.765625l1.203125 0l0 2.765625z" fill-rule="nonzero"/><path fill="#000000" d="m387.99985 100.48656q0.640625 0 1.125 -0.390625q0.484375 -0.390625 0.53125 -0.96875l1.140625 0q-0.03125 0.609375 -0.421875 1.15625q-0.375 0.546875 -1.015625 0.875q-0.640625 0.3125 -1.359375 0.3125q-1.4375 0 -2.296875 -0.953125q-0.84375 -0.96875 -0.84375 -2.625l0 -0.203125q0 -1.03125 0.375 -1.828125q0.390625 -0.796875 1.09375 -1.234375q0.703125 -0.453125 1.671875 -0.453125q1.171875 0 1.953125 0.71875q0.796875 0.703125 0.84375 1.828125l-1.140625 0q-0.046875 -0.671875 -0.515625 -1.109375q-0.46875 -0.453125 -1.140625 -0.453125q-0.921875 0 -1.4375 0.671875q-0.5 0.65625 -0.5 1.90625l0 0.21875q0 1.21875 0.5 1.875q0.515625 0.65625 1.4375 0.65625zm8.50769 0.859375q-0.109375 -0.203125 -0.171875 -0.734375q-0.84375 0.859375 -2.015625 0.859375q-1.03125 0 -1.703125 -0.578125q-0.671875 -0.59375 -0.671875 -1.5q0 -1.09375 0.828125 -1.703125q0.84375 -0.609375 2.359375 -0.609375l1.171875 0l0 -0.5625q0 -0.625 -0.375 -1.0q-0.375 -0.375 -1.109375 -0.375q-0.640625 0 -1.078125 0.328125q-0.4375 0.328125 -0.4375 0.78125l-1.203125 0q0 -0.515625 0.359375 -1.0q0.375 -0.5 1.015625 -0.78125q0.65625 -0.296875 1.421875 -0.296875q1.21875 0 1.90625 0.609375q0.6875 0.609375 0.71875 1.671875l0 3.25q0 0.96875 0.234375 1.53125l0 0.109375l-1.25 0zm-2.0 -0.921875q0.5625 0 1.0625 -0.28125q0.515625 -0.296875 0.734375 -0.765625l0 -1.453125l-0.9375 0q-2.21875 0 -2.21875 1.296875q0 0.5625 0.375 0.890625q0.390625 0.3125 0.984375 0.3125zm10.859161 -2.515625q0 1.609375 -0.75 2.59375q-0.734375 0.96875 -1.984375 0.96875q-1.328125 0 -2.0625 -0.9375l-0.0625 0.8125l-1.109375 0l0 -10.0l1.203125 0l0 3.734375q0.734375 -0.90625 2.015625 -0.90625q1.28125 0 2.015625 0.96875q0.734375 0.96875 0.734375 2.65625l0 0.109375zm-1.203125 -0.140625q0 -1.234375 -0.484375 -1.90625q-0.46875 -0.671875 -1.359375 -0.671875q-1.1875 0 -1.71875 1.109375l0 3.046875q0.5625 1.109375 1.734375 1.109375q0.859375 0 1.34375 -0.671875q0.484375 -0.671875 0.484375 -2.015625zm4.024414 3.578125l-1.203125 0l0 -10.0l1.203125 0l0 10.0zm4.843811 0.125q-1.421875 0 -2.328125 -0.9375q-0.890625 -0.9375 -0.890625 -2.515625l0 -0.21875q0 -1.046875 0.390625 -1.859375q0.40625 -0.828125 1.125 -1.296875q0.71875 -0.46875 1.5625 -0.46875q1.375 0 2.125 0.90625q0.765625 0.90625 0.765625 2.59375l0 0.5l-4.765625 0q0.015625 1.03125 0.59375 1.671875q0.59375 0.640625 1.484375 0.640625q0.640625 0 1.078125 -0.25q0.453125 -0.265625 0.78125 -0.6875l0.734375 0.5625q-0.875 1.359375 -2.65625 1.359375zm-0.140625 -6.3125q-0.734375 0 -1.234375 0.53125q-0.484375 0.53125 -0.609375 1.484375l3.53125 0l0 -0.078125q-0.046875 -0.921875 -0.5 -1.421875q-0.4375 -0.515625 -1.1875 -0.515625z" fill-rule="nonzero"/></g></svg>