<svg version="1.1" viewBox="0.0 0.0 854.8215223097113 105.89238845144357" fill="none" stroke="none" stroke-linecap="square" stroke-miterlimit="10" xmlns:xlink="http://www.w3.org/1999/xlink" xmlns="http://www.w3.org/2000/svg"><clipPath id="p.0"><path d="m0 0l854.82153 0l0 105.89239l-854.82153 0l0 -105.89239z" clip-rule="nonzero"/></clipPath><g clip-path="url(#p.0)"><path fill="#000000" fill-opacity="0.0" d="m0 0l854.82153 0l0 105.89239l-854.82153 0z" fill-rule="evenodd"/><path fill="#d9ead3" d="m715.5722 32.404198l115.40155 0l0 63.181107l-115.40155 0z" fill-rule="evenodd"/><path stroke="#000000" stroke-width="1.0" stroke-linejoin="round" stroke-linecap="butt" d="m715.5722 32.404198l115.40155 0l0 63.181107l-115.40155 0z" fill-rule="evenodd"/><path fill="#000000" d="m738.19336 49.151623q2.34375 0 3.59375 0.890625q1.265625 0.890625 1.265625 2.65625q0 0.953125 -0.34375 1.640625q-0.34375 0.671875 -1.0 1.09375q-0.640625 0.421875 -1.578125 0.625q-0.921875 0.1875 -2.09375 0.1875l-1.234375 0l0 4.109375l-1.546875 0l0 -10.921875q0.65625 -0.171875 1.453125 -0.21875q0.8125 -0.0625 1.484375 -0.0625zm0.140625 1.359375q-1.0 0 -1.53125 0.046875l0 4.359375l1.171875 0q0.796875 0 1.4375 -0.09375q0.640625 -0.109375 1.078125 -0.359375q0.453125 -0.25 0.6875 -0.6875q0.234375 -0.4375 0.234375 -1.109375q0 -0.625 -0.25 -1.046875q-0.234375 -0.421875 -0.671875 -0.65625q-0.421875 -0.25 -0.984375 -0.34375q-0.546875 -0.109375 -1.171875 -0.109375zm13.563904 5.6875q0 0.984375 -0.296875 1.796875q-0.28125 0.796875 -0.796875 1.375q-0.515625 0.5625 -1.25 0.875q-0.71875 0.3125 -1.5625 0.3125q-0.84375 0 -1.5625 -0.3125q-0.71875 -0.3125 -1.25 -0.875q-0.515625 -0.578125 -0.8125 -1.375q-0.28125 -0.8125 -0.28125 -1.796875q0 -0.984375 0.28125 -1.78125q0.296875 -0.8125 0.8125 -1.390625q0.53125 -0.578125 1.25 -0.890625q0.71875 -0.3125 1.5625 -0.3125q0.84375 0 1.5625 0.3125q0.734375 0.3125 1.25 0.890625q0.515625 0.578125 0.796875 1.390625q0.296875 0.796875 0.296875 1.78125zm-1.546875 0q0 -1.40625 -0.640625 -2.234375q-0.625 -0.828125 -1.71875 -0.828125q-1.09375 0 -1.71875 0.828125q-0.625 0.828125 -0.625 2.234375q0 1.40625 0.625 2.234375q0.625 0.8125 1.71875 0.8125q1.09375 0 1.71875 -0.8125q0.640625 -0.828125 0.640625 -2.234375zm10.232056 4.15625q-0.453125 -1.15625 -0.953125 -2.625q-0.5 -1.484375 -0.921875 -3.09375q-0.40625 1.609375 -0.90625 3.09375q-0.5 1.46875 -0.9375 2.625l-1.296875 0q-0.75 -1.640625 -1.453125 -3.75q-0.703125 -2.125 -1.328125 -4.5625l1.609375 0q0.15625 0.75 0.375 1.625q0.234375 0.875 0.46875 1.765625q0.25 0.875 0.515625 1.6875q0.28125 0.8125 0.53125 1.421875q0.265625 -0.75 0.53125 -1.578125q0.265625 -0.84375 0.5 -1.703125q0.25 -0.859375 0.453125 -1.671875q0.21875 -0.828125 0.375 -1.546875l1.234375 0q0.15625 0.71875 0.359375 1.546875q0.203125 0.8125 0.4375 1.671875q0.25 0.859375 0.515625 1.703125q0.265625 0.828125 0.53125 1.578125q0.234375 -0.609375 0.5 -1.421875q0.265625 -0.8125 0.515625 -1.6875q0.265625 -0.890625 0.484375 -1.765625q0.234375 -0.875 0.390625 -1.625l1.53125 0q-0.625 2.4375 -1.328125 4.5625q-0.703125 2.109375 -1.4375 3.75l-1.296875 0zm5.166382 -4.140625q0 -1.109375 0.3125 -1.921875q0.328125 -0.828125 0.859375 -1.375q0.53125 -0.546875 1.21875 -0.8125q0.6875 -0.28125 1.40625 -0.28125q1.671875 0 2.5625 1.046875q0.90625 1.046875 0.90625 3.203125q0 0.09375 0 0.25q0 0.140625 -0.015625 0.265625l-5.6875 0q0.09375 1.296875 0.75 1.96875q0.65625 0.671875 2.046875 0.671875q0.78125 0 1.3125 -0.125q0.546875 -0.140625 0.8125 -0.265625l0.203125 1.25q-0.265625 0.140625 -0.953125 0.296875q-0.671875 0.15625 -1.53125 0.15625q-1.09375 0 -1.890625 -0.328125q-0.78125 -0.328125 -1.296875 -0.890625q-0.515625 -0.578125 -0.765625 -1.375q-0.25 -0.796875 -0.25 -1.734375zm5.71875 -0.8125q0.015625 -1.015625 -0.515625 -1.65625q-0.515625 -0.65625 -1.421875 -0.65625q-0.515625 0 -0.90625 0.203125q-0.390625 0.203125 -0.671875 0.53125q-0.265625 0.3125 -0.421875 0.734375q-0.140625 0.40625 -0.1875 0.84375l4.125 0zm6.772156 -3.546875q0.1875 0 0.4375 0.03125q0.25 0.015625 0.484375 0.0625q0.234375 0.03125 0.4375 0.078125q0.203125 0.046875 0.296875 0.078125l-0.25 1.296875q-0.1875 -0.078125 -0.59375 -0.15625q-0.40625 -0.09375 -1.046875 -0.09375q-0.40625 0 -0.828125 0.09375q-0.40625 0.078125 -0.53125 0.125l0 6.984375l-1.484375 0l0 -7.96875q0.53125 -0.1875 1.3125 -0.359375q0.78125 -0.171875 1.765625 -0.171875zm12.168884 1.9375q-0.265625 -0.21875 -0.78125 -0.421875q-0.515625 -0.21875 -1.125 -0.21875q-0.640625 0 -1.09375 0.234375q-0.453125 0.234375 -0.75 0.640625q-0.28125 0.40625 -0.40625 0.96875q-0.125 0.5625 -0.125 1.203125q0 1.453125 0.71875 2.25q0.71875 0.78125 1.921875 0.78125q0.59375 0 1.0 -0.046875q0.421875 -0.0625 0.640625 -0.125l0 -5.265625zm0 -5.59375l1.484375 -0.265625l0 12.1875q-0.515625 0.140625 -1.3125 0.28125q-0.796875 0.140625 -1.84375 0.140625q-0.953125 0 -1.71875 -0.296875q-0.765625 -0.3125 -1.3125 -0.859375q-0.546875 -0.5625 -0.84375 -1.375q-0.296875 -0.8125 -0.296875 -1.8125q0 -0.96875 0.25 -1.765625q0.25 -0.796875 0.71875 -1.375q0.484375 -0.578125 1.171875 -0.890625q0.703125 -0.328125 1.609375 -0.328125q0.71875 0 1.265625 0.203125q0.5625 0.1875 0.828125 0.359375l0 -4.203125zm3.5802612 8.015625q0 -1.109375 0.3125 -1.921875q0.328125 -0.828125 0.859375 -1.375q0.53125 -0.546875 1.21875 -0.8125q0.6875 -0.28125 1.40625 -0.28125q1.671875 0 2.5625 1.046875q0.90625 1.046875 0.90625 3.203125q0 0.09375 0 0.25q0 0.140625 -0.015625 0.265625l-5.6875 0q0.09375 1.296875 0.75 1.96875q0.65625 0.671875 2.046875 0.671875q0.78125 0 1.3125 -0.125q0.546875 -0.140625 0.8125 -0.265625l0.203125 1.25q-0.265625 0.140625 -0.953125 0.296875q-0.671875 0.15625 -1.53125 0.15625q-1.09375 0 -1.890625 -0.328125q-0.78125 -0.328125 -1.296875 -0.890625q-0.515625 -0.578125 -0.765625 -1.375q-0.25 -0.796875 -0.25 -1.734375zm5.71875 -0.8125q0.015625 -1.015625 -0.515625 -1.65625q-0.515625 -0.65625 -1.421875 -0.65625q-0.515625 0 -0.90625 0.203125q-0.390625 0.203125 -0.671875 0.53125q-0.265625 0.3125 -0.421875 0.734375q-0.140625 0.40625 -0.1875 0.84375l4.125 0zm5.084656 -3.359375l3.15625 0l0 1.234375l-3.15625 0l0 3.84375q0 0.625 0.09375 1.03125q0.09375 0.40625 0.28125 0.640625q0.203125 0.234375 0.484375 0.328125q0.296875 0.09375 0.671875 0.09375q0.671875 0 1.078125 -0.140625q0.421875 -0.15625 0.578125 -0.21875l0.28125 1.234375q-0.21875 0.109375 -0.78125 0.265625q-0.5625 0.171875 -1.28125 0.171875q-0.84375 0 -1.40625 -0.203125q-0.546875 -0.21875 -0.890625 -0.65625q-0.328125 -0.4375 -0.46875 -1.0625q-0.125 -0.640625 -0.125 -1.46875l0 -7.421875l1.484375 -0.25l0 2.578125zm6.983032 7.453125q0 0.421875 -0.296875 0.75q-0.28125 0.3125 -0.78125 0.3125q-0.5 0 -0.796875 -0.3125q-0.28125 -0.328125 -0.28125 -0.75q0 -0.4375 0.28125 -0.75q0.296875 -0.328125 0.796875 -0.328125q0.5 0 0.78125 0.328125q0.296875 0.3125 0.296875 0.75z" fill-rule="nonzero"/><path fill="#000000" d="m742.4393 74.5735q0 2.046875 0.59375 3.796875q0.59375 1.734375 1.75 3.21875l-1.0625 0.71875q-1.25 -1.515625 -2.015625 -3.484375q-0.75 -1.984375 -0.75 -4.25q0 -2.28125 0.75 -4.25q0.765625 -1.984375 2.015625 -3.5l1.0625 0.71875q-1.15625 1.5 -1.75 3.25q-0.59375 1.734375 -0.59375 3.78125zm6.114746 3.671875q2.4375 0 2.4375 -1.65625q0 -0.515625 -0.21875 -0.875q-0.21875 -0.359375 -0.59375 -0.625q-0.359375 -0.265625 -0.84375 -0.453125q-0.46875 -0.1875 -0.984375 -0.390625q-0.609375 -0.203125 -1.15625 -0.46875q-0.546875 -0.265625 -0.953125 -0.625q-0.390625 -0.359375 -0.625 -0.84375q-0.234375 -0.5 -0.234375 -1.203125q0 -1.46875 0.984375 -2.28125q1.0 -0.8125 2.75 -0.8125q1.0 0 1.828125 0.21875q0.828125 0.21875 1.203125 0.46875l-0.484375 1.265625q-0.34375 -0.203125 -1.015625 -0.40625q-0.65625 -0.203125 -1.53125 -0.203125q-0.453125 0 -0.84375 0.09375q-0.375 0.09375 -0.671875 0.296875q-0.28125 0.1875 -0.453125 0.484375q-0.15625 0.296875 -0.15625 0.6875q0 0.453125 0.171875 0.765625q0.171875 0.296875 0.484375 0.53125q0.328125 0.234375 0.75 0.421875q0.421875 0.1875 0.9375 0.375q0.71875 0.296875 1.3125 0.59375q0.609375 0.28125 1.046875 0.6875q0.4375 0.390625 0.671875 0.953125q0.25 0.546875 0.25 1.328125q0 1.453125 -1.0625 2.234375q-1.0625 0.78125 -3.0 0.78125q-0.65625 0 -1.21875 -0.09375q-0.546875 -0.078125 -0.984375 -0.1875q-0.421875 -0.125 -0.734375 -0.265625q-0.3125 -0.140625 -0.484375 -0.234375l0.453125 -1.28125q0.375 0.21875 1.125 0.46875q0.75 0.25 1.84375 0.25zm15.043274 -4.4375q0 1.4375 -0.453125 2.5q-0.453125 1.0625 -1.265625 1.765625q-0.8125 0.6875 -1.953125 1.03125q-1.125 0.34375 -2.5 0.34375q-0.671875 0 -1.484375 -0.0625q-0.796875 -0.046875 -1.453125 -0.203125l0 -10.75q0.65625 -0.171875 1.453125 -0.21875q0.8125 -0.0625 1.484375 -0.0625q1.375 0 2.5 0.34375q1.140625 0.34375 1.953125 1.046875q0.8125 0.6875 1.265625 1.765625q0.453125 1.0625 0.453125 2.5zm-6.03125 4.28125q2.203125 0 3.28125 -1.125q1.09375 -1.125 1.09375 -3.15625q0 -2.03125 -1.09375 -3.15625q-1.078125 -1.140625 -3.28125 -1.140625q-0.65625 0 -1.015625 0.015625q-0.359375 0.015625 -0.515625 0.03125l0 8.484375q0.15625 0.015625 0.515625 0.03125q0.359375 0.015625 1.015625 0.015625zm13.75177 -3.375q0.265625 0.328125 0.65625 0.84375q0.390625 0.515625 0.796875 1.15625q0.421875 0.625 0.828125 1.3125q0.40625 0.6875 0.703125 1.328125l-1.703125 0q-0.3125 -0.609375 -0.6875 -1.234375q-0.375 -0.625 -0.765625 -1.1875q-0.390625 -0.5625 -0.765625 -1.0625q-0.375 -0.5 -0.671875 -0.875q-0.21875 0.015625 -0.4375 0.015625q-0.203125 0 -0.4375 0l-1.390625 0l0 4.34375l-1.546875 0l0 -10.921875q0.65625 -0.171875 1.453125 -0.21875q0.8125 -0.0625 1.484375 -0.0625q2.34375 0 3.5625 0.890625q1.234375 0.875 1.234375 2.609375q0 1.109375 -0.59375 1.890625q-0.578125 0.78125 -1.71875 1.171875zm-2.34375 -5.203125q-1.0 0 -1.53125 0.046875l0 4.1875l1.109375 0q0.796875 0 1.4375 -0.078125q0.640625 -0.09375 1.078125 -0.3125q0.4375 -0.21875 0.671875 -0.625q0.25 -0.421875 0.25 -1.09375q0 -0.625 -0.25 -1.03125q-0.234375 -0.421875 -0.640625 -0.65625q-0.40625 -0.234375 -0.953125 -0.328125q-0.546875 -0.109375 -1.171875 -0.109375zm13.260071 8.734375q2.4375 0 2.4375 -1.65625q0 -0.515625 -0.21875 -0.875q-0.21875 -0.359375 -0.59375 -0.625q-0.359375 -0.265625 -0.84375 -0.453125q-0.46875 -0.1875 -0.984375 -0.390625q-0.609375 -0.203125 -1.15625 -0.46875q-0.546875 -0.265625 -0.953125 -0.625q-0.390625 -0.359375 -0.625 -0.84375q-0.234375 -0.5 -0.234375 -1.203125q0 -1.46875 0.984375 -2.28125q1.0 -0.8125 2.75 -0.8125q1.0 0 1.828125 0.21875q0.828125 0.21875 1.203125 0.46875l-0.484375 1.265625q-0.34375 -0.203125 -1.015625 -0.40625q-0.65625 -0.203125 -1.53125 -0.203125q-0.453125 0 -0.84375 0.09375q-0.375 0.09375 -0.671875 0.296875q-0.28125 0.1875 -0.453125 0.484375q-0.15625 0.296875 -0.15625 0.6875q0 0.453125 0.171875 0.765625q0.171875 0.296875 0.484375 0.53125q0.328125 0.234375 0.75 0.421875q0.421875 0.1875 0.9375 0.375q0.71875 0.296875 1.3125 0.59375q0.609375 0.28125 1.046875 0.6875q0.4375 0.390625 0.671875 0.953125q0.25 0.546875 0.25 1.328125q0 1.453125 -1.0625 2.234375q-1.0625 0.78125 -3.0 0.78125q-0.65625 0 -1.21875 -0.09375q-0.546875 -0.078125 -0.984375 -0.1875q-0.421875 -0.125 -0.734375 -0.265625q-0.3125 -0.140625 -0.484375 -0.234375l0.453125 -1.28125q0.375 0.21875 1.125 0.46875q0.75 0.25 1.84375 0.25zm11.996399 -6.40625q-0.671875 2.140625 -1.359375 3.96875q-0.6875 1.8125 -1.375 3.546875l-1.546875 0q-0.859375 -2.453125 -1.5 -5.171875q-0.640625 -2.71875 -1.203125 -5.921875l1.625 0q0.21875 1.25 0.453125 2.5q0.25 1.25 0.5 2.4375q0.265625 1.171875 0.515625 2.25q0.265625 1.0625 0.53125 1.96875q0.640625 -1.671875 1.359375 -3.671875q0.71875 -2.015625 1.34375 -4.171875l1.34375 0q0.625 2.15625 1.359375 4.171875q0.734375 2.0 1.375 3.671875q0.265625 -0.890625 0.515625 -1.953125q0.25 -1.078125 0.5 -2.25q0.25 -1.1875 0.484375 -2.4375q0.25 -1.265625 0.46875 -2.515625l1.59375 0q-0.578125 3.203125 -1.234375 5.921875q-0.640625 2.71875 -1.46875 5.171875l-1.5625 0q-0.703125 -1.734375 -1.375 -3.546875q-0.671875 -1.828125 -1.34375 -3.96875zm9.879639 2.734375q0 -2.046875 -0.59375 -3.78125q-0.59375 -1.75 -1.75 -3.25l1.0625 -0.71875q1.25 1.515625 2.0 3.5q0.765625 1.96875 0.765625 4.25q0 2.265625 -0.765625 4.25q-0.75 1.96875 -2.0 3.484375l-1.0625 -0.71875q1.15625 -1.484375 1.75 -3.21875q0.59375 -1.75 0.59375 -3.796875z" fill-rule="nonzero"/><path fill="#f5d0d0" d="m541.77954 32.52231l115.40155 0l0 63.181107l-115.40155 0z" fill-rule="evenodd"/><path stroke="#000000" stroke-width="1.0" stroke-linejoin="round" stroke-linecap="butt" d="m541.77954 32.52231l115.40155 0l0 63.181107l-115.40155 0z" fill-rule="evenodd"/><path fill="#000000" d="m563.17737 68.86349q2.4375 0 2.4375 -1.65625q0 -0.515625 -0.21875 -0.875q-0.21875 -0.359375 -0.59375 -0.625q-0.359375 -0.265625 -0.84375 -0.453125q-0.46875 -0.1875 -0.984375 -0.390625q-0.609375 -0.203125 -1.15625 -0.46875q-0.546875 -0.265625 -0.953125 -0.6250038q-0.390625 -0.359375 -0.625 -0.84375q-0.234375 -0.5 -0.234375 -1.203125q0 -1.46875 0.984375 -2.28125q1.0 -0.8125 2.75 -0.8125q1.0 0 1.828125 0.21875q0.828125 0.21875 1.203125 0.46875l-0.484375 1.265625q-0.34375 -0.203125 -1.015625 -0.40625q-0.65625 -0.203125 -1.53125 -0.203125q-0.453125 0 -0.84375 0.09375q-0.375 0.09375 -0.671875 0.296875q-0.28125 0.1875 -0.453125 0.484375q-0.15625 0.296875 -0.15625 0.6875q0 0.453125 0.171875 0.765625q0.171875 0.296875 0.484375 0.53125q0.328125 0.234375 0.75 0.421875q0.421875 0.1875 0.9375 0.375q0.71875 0.296875 1.3125 0.5937538q0.609375 0.28125 1.046875 0.6875q0.4375 0.390625 0.671875 0.953125q0.25 0.546875 0.25 1.328125q0 1.453125 -1.0625 2.234375q-1.0625 0.78125 -3.0 0.78125q-0.65625 0 -1.21875 -0.09375q-0.546875 -0.078125 -0.984375 -0.1875q-0.421875 -0.125 -0.734375 -0.265625q-0.3125 -0.140625 -0.484375 -0.234375l0.453125 -1.28125q0.375 0.21875 1.125 0.46875q0.75 0.25 1.84375 0.25zm15.043274 -4.4375q0 1.4375 -0.453125 2.5q-0.453125 1.0625 -1.265625 1.765625q-0.8125 0.6875 -1.953125 1.03125q-1.125 0.34375 -2.5 0.34375q-0.671875 0 -1.484375 -0.0625q-0.796875 -0.046875 -1.453125 -0.203125l0 -10.750004q0.65625 -0.171875 1.453125 -0.21875q0.8125 -0.0625 1.484375 -0.0625q1.375 0 2.5 0.34375q1.140625 0.34375 1.953125 1.046875q0.8125 0.6875 1.265625 1.765625q0.453125 1.0625 0.453125 2.5000038zm-6.03125 4.28125q2.203125 0 3.28125 -1.125q1.09375 -1.125 1.09375 -3.15625q0 -2.0312538 -1.09375 -3.1562538q-1.078125 -1.140625 -3.28125 -1.140625q-0.65625 0 -1.015625 0.015625q-0.359375 0.015625 -0.515625 0.03125l0 8.484379q0.15625 0.015625 0.515625 0.03125q0.359375 0.015625 1.015625 0.015625zm13.75177 -3.375q0.265625 0.328125 0.65625 0.84375q0.390625 0.515625 0.796875 1.15625q0.421875 0.625 0.828125 1.3125q0.40625 0.6875 0.703125 1.328125l-1.703125 0q-0.3125 -0.609375 -0.6875 -1.234375q-0.375 -0.625 -0.765625 -1.1875q-0.390625 -0.5625 -0.765625 -1.0625q-0.375 -0.5 -0.671875 -0.875q-0.21875 0.015625 -0.4375 0.015625q-0.203125 0 -0.4375 0l-1.390625 0l0 4.34375l-1.546875 0l0 -10.921879q0.65625 -0.171875 1.453125 -0.21875q0.8125 -0.0625 1.484375 -0.0625q2.34375 0 3.5625 0.890625q1.234375 0.875 1.234375 2.609375q0 1.109375 -0.59375 1.8906288q-0.578125 0.78125 -1.71875 1.171875zm-2.34375 -5.203129q-1.0 0 -1.53125 0.046875l0 4.187504l1.109375 0q0.796875 0 1.4375 -0.078125q0.640625 -0.09375 1.078125 -0.3125038q0.4375 -0.21875 0.671875 -0.625q0.25 -0.421875 0.25 -1.09375q0 -0.625 -0.25 -1.03125q-0.234375 -0.421875 -0.640625 -0.65625q-0.40625 -0.234375 -0.953125 -0.328125q-0.546875 -0.109375 -1.171875 -0.109375zm15.963135 3.28125q-0.265625 -0.21875 -0.78125 -0.421875q-0.515625 -0.21875 -1.125 -0.21875q-0.640625 0 -1.09375 0.234375q-0.453125 0.234375 -0.75 0.640625q-0.28125 0.4062538 -0.40625 0.9687538q-0.125 0.5625 -0.125 1.203125q0 1.453125 0.71875 2.25q0.71875 0.78125 1.921875 0.78125q0.59375 0 1.0 -0.046875q0.421875 -0.0625 0.640625 -0.125l0 -5.265629zm0 -5.59375l1.484375 -0.265625l0 12.187504q-0.515625 0.140625 -1.3125 0.28125q-0.796875 0.140625 -1.84375 0.140625q-0.953125 0 -1.71875 -0.296875q-0.765625 -0.3125 -1.3125 -0.859375q-0.546875 -0.5625 -0.84375 -1.375q-0.296875 -0.8125 -0.296875 -1.8125q0 -0.96875 0.25 -1.765625q0.25 -0.7968788 0.71875 -1.3750038q0.484375 -0.578125 1.171875 -0.890625q0.703125 -0.328125 1.609375 -0.328125q0.71875 0 1.265625 0.203125q0.5625 0.1875 0.828125 0.359375l0 -4.203125zm3.5802612 8.015629q0 -1.109375 0.3125 -1.9218788q0.328125 -0.828125 0.859375 -1.375q0.53125 -0.546875 1.21875 -0.8125q0.68756104 -0.28125 1.406311 -0.28125q1.671875 0 2.5625 1.046875q0.90625 1.046875 0.90625 3.2031288q0 0.09375 0 0.25q0 0.140625 -0.015625 0.265625l-5.687561 0q0.09375 1.296875 0.75 1.96875q0.65631104 0.671875 2.046936 0.671875q0.78125 0 1.3125 -0.125q0.546875 -0.140625 0.8125 -0.265625l0.203125 1.25q-0.265625 0.140625 -0.953125 0.296875q-0.671875 0.15625 -1.53125 0.15625q-1.09375 0 -1.890686 -0.328125q-0.78125 -0.328125 -1.296875 -0.890625q-0.515625 -0.578125 -0.765625 -1.375q-0.25 -0.796875 -0.25 -1.734375zm5.718811 -0.8125q0.015625 -1.015625 -0.515625 -1.6562538q-0.515625 -0.65625 -1.421875 -0.65625q-0.515625 0 -0.90625 0.203125q-0.39068604 0.203125 -0.67193604 0.53125q-0.265625 0.3125 -0.421875 0.7343788q-0.140625 0.40625 -0.1875 0.84375l4.125061 0zm10.19397 -3.3593788q-0.625 2.328125 -1.46875 4.468754q-0.84375 2.140625 -1.625 3.84375l-1.34375 0q-0.78125 -1.703125 -1.625 -3.84375q-0.84375 -2.1406288 -1.46875 -4.468754l1.609375 0q0.1875 0.78125 0.453125 1.671875q0.265625 0.8750038 0.5625 1.7500038q0.296875 0.875 0.59375 1.6875q0.3125 0.8125 0.578125 1.453125q0.265625 -0.640625 0.5625 -1.453125q0.3125 -0.8125 0.609375 -1.6875q0.296875 -0.875 0.5625 -1.7500038q0.265625 -0.890625 0.453125 -1.671875l1.546875 0zm3.0164185 8.312504l-1.484375 0l0 -8.312504l1.484375 0l0 8.312504zm-0.75 -9.828129q-0.40625 0 -0.6875 -0.265625q-0.265625 -0.265625 -0.265625 -0.703125q0 -0.453125 0.265625 -0.71875q0.28125 -0.265625 0.6875 -0.265625q0.40625 0 0.671875 0.265625q0.28125 0.265625 0.28125 0.71875q0 0.4375 -0.28125 0.703125q-0.265625 0.265625 -0.671875 0.265625zm6.9229736 10.015629q-1.0 0 -1.765625 -0.3125q-0.75 -0.328125 -1.28125 -0.890625q-0.515625 -0.578125 -0.78125 -1.375q-0.25 -0.796875 -0.25 -1.75q0 -0.96875 0.28125 -1.765625q0.28125 -0.7968788 0.796875 -1.3750038q0.515625 -0.59375 1.25 -0.921875q0.75 -0.328125 1.65625 -0.328125q0.5625 0 1.125 0.09375q0.5625 0.09375 1.0625 0.3125l-0.328125 1.265625q-0.34375 -0.171875 -0.78125 -0.265625q-0.4375 -0.09375 -0.9375 -0.09375q-1.234375 0 -1.90625 0.796875q-0.65625 0.7812538 -0.65625 2.2812538q0 0.671875 0.140625 1.234375q0.15625 0.546875 0.484375 0.953125q0.328125 0.40625 0.84375 0.625q0.515625 0.203125 1.25 0.203125q0.59375 0 1.0625 -0.109375q0.484375 -0.109375 0.75 -0.234375l0.21875 1.25q-0.140625 0.078125 -0.375 0.15625q-0.234375 0.0625 -0.546875 0.109375q-0.296875 0.0625 -0.640625 0.09375q-0.34375 0.046875 -0.671875 0.046875zm3.3619385 -4.328125q0 -1.109375 0.3125 -1.9218788q0.328125 -0.828125 0.859375 -1.375q0.53125 -0.546875 1.21875 -0.8125q0.6875 -0.28125 1.40625 -0.28125q1.671875 0 2.5625 1.046875q0.90625 1.046875 0.90625 3.2031288q0 0.09375 0 0.25q0 0.140625 -0.015625 0.265625l-5.6875 0q0.09375 1.296875 0.75 1.96875q0.65625 0.671875 2.046875 0.671875q0.78125 0 1.3125 -0.125q0.546875 -0.140625 0.8125 -0.265625l0.203125 1.25q-0.265625 0.140625 -0.953125 0.296875q-0.671875 0.15625 -1.53125 0.15625q-1.09375 0 -1.890625 -0.328125q-0.78125 -0.328125 -1.296875 -0.890625q-0.515625 -0.578125 -0.765625 -1.375q-0.25 -0.796875 -0.25 -1.734375zm5.71875 -0.8125q0.015625 -1.015625 -0.515625 -1.6562538q-0.515625 -0.65625 -1.421875 -0.65625q-0.515625 0 -0.90625 0.203125q-0.390625 0.203125 -0.671875 0.53125q-0.265625 0.3125 -0.421875 0.7343788q-0.140625 0.40625 -0.1875 0.84375l4.125 0z" fill-rule="nonzero"/><path fill="#000000" fill-opacity="0.0" d="m657.1811 64.11286l58.393738 -0.12598419" fill-rule="evenodd"/><path stroke="#000000" stroke-width="1.0" stroke-linejoin="round" stroke-linecap="butt" d="m657.1811 64.11286l52.393738 -0.113040924" fill-rule="evenodd"/><path fill="#000000" stroke="#000000" stroke-width="1.0" stroke-linecap="butt" d="m709.57837 65.65155l4.534546 -1.6615181l-4.541687 -1.6419411z" fill-rule="evenodd"/><path fill="#cfe2f3" d="m20.401575 32.404198l115.40157 0l0 63.181107l-115.40157 0z" fill-rule="evenodd"/><path stroke="#000000" stroke-width="1.0" stroke-linejoin="round" stroke-linecap="butt" d="m20.401575 32.404198l115.40157 0l0 63.181107l-115.40157 0z" fill-rule="evenodd"/><path fill="#000000" d="m60.199436 59.245373q2.4375 0 2.4375 -1.65625q0 -0.515625 -0.21875 -0.875q-0.21875 -0.359375 -0.59375 -0.625q-0.359375 -0.265625 -0.84375 -0.453125q-0.46875 -0.1875 -0.984375 -0.390625q-0.609375 -0.203125 -1.15625 -0.46875q-0.546875 -0.265625 -0.953125 -0.625q-0.390625 -0.359375 -0.625 -0.84375q-0.234375 -0.5 -0.234375 -1.203125q0 -1.46875 0.984375 -2.28125q1.0 -0.8125 2.75 -0.8125q1.0 0 1.828125 0.21875q0.828125 0.21875 1.203125 0.46875l-0.484375 1.265625q-0.34375 -0.203125 -1.015625 -0.40625q-0.65625 -0.203125 -1.53125 -0.203125q-0.453125 0 -0.84375 0.09375q-0.375 0.09375 -0.671875 0.296875q-0.28125 0.1875 -0.453125 0.484375q-0.15625 0.296875 -0.15625 0.6875q0 0.453125 0.171875 0.765625q0.171875 0.296875 0.484375 0.53125q0.328125 0.234375 0.75 0.421875q0.421875 0.1875 0.9375 0.375q0.71875 0.296875 1.3125 0.59375q0.609375 0.28125 1.046875 0.6875q0.4375 0.390625 0.6718788 0.953125q0.25 0.546875 0.25 1.328125q0 1.453125 -1.0625038 2.234375q-1.0625 0.78125 -3.0 0.78125q-0.65625 0 -1.21875 -0.09375q-0.546875 -0.078125 -0.984375 -0.1875q-0.421875 -0.125 -0.734375 -0.265625q-0.3125 -0.140625 -0.484375 -0.234375l0.453125 -1.28125q0.375 0.21875 1.125 0.46875q0.75 0.25 1.84375 0.25zm7.3245277 1.109375l-1.484375 0l0 -8.3125l1.484375 0l0 8.3125zm-0.75 -9.828125q-0.40625 0 -0.6875 -0.265625q-0.265625 -0.265625 -0.265625 -0.703125q0 -0.453125 0.265625 -0.71875q0.28125 -0.265625 0.6875 -0.265625q0.40625 0 0.671875 0.265625q0.28125 0.265625 0.28125 0.71875q0 0.4375 -0.28125 0.703125q-0.265625 0.265625 -0.671875 0.265625zm8.532379 9.0q-0.203125 0.125 -0.75 0.328125q-0.546875 0.203125 -1.28125 0.203125q-0.75 0 -1.421875 -0.234375q-0.65625 -0.25 -1.15625 -0.75q-0.5 -0.515625 -0.796875 -1.265625q-0.28125 -0.75 -0.28125 -1.796875q0 -0.90625 0.265625 -1.65625q0.28125 -0.765625 0.796875 -1.3125q0.53125 -0.5625 1.28125 -0.875q0.75 -0.3125 1.6875 -0.3125q1.046875 0 1.8125 0.15625q0.78125 0.15625 1.3125 0.28125l0 7.421875q0 1.921875 -1.0 2.78125q-0.984375 0.875 -3.0 0.875q-0.78125 0 -1.484375 -0.140625q-0.6875 -0.125 -1.203125 -0.296875l0.265625 -1.296875q0.453125 0.171875 1.09375 0.3125q0.65625 0.140625 1.359375 0.140625q1.328125 0 1.90625 -0.53125q0.59375 -0.53125 0.59375 -1.6875l0 -0.34375zm-0.015625 -6.1875q-0.234375 -0.0625 -0.609375 -0.109375q-0.375 -0.0625 -1.015625 -0.0625q-1.203125 0 -1.84375 0.796875q-0.640625 0.78125 -0.640625 2.078125q0 0.71875 0.171875 1.234375q0.1875 0.5 0.5 0.84375q0.3125 0.328125 0.71875 0.5q0.40625 0.15625 0.84375 0.15625q0.59375 0 1.078125 -0.171875q0.5 -0.171875 0.796875 -0.390625l0 -4.875zm4.0448914 -1.0625q0.515625 -0.125 1.359375 -0.265625q0.84375 -0.15625 1.953125 -0.15625q0.984375 0 1.640625 0.28125q0.65625 0.28125 1.046875 0.796875q0.40625 0.5 0.5625 1.203125q0.15625 0.703125 0.15625 1.546875l0 4.671875l-1.484375 0l0 -4.359375q0 -0.765625 -0.109375 -1.296875q-0.109375 -0.546875 -0.34375 -0.875q-0.234375 -0.34375 -0.640625 -0.5q-0.390625 -0.15625 -0.984375 -0.15625q-0.25 0 -0.5 0.015625q-0.25 0.015625 -0.484375 0.046875q-0.234375 0.015625 -0.421875 0.046875q-0.1875 0.03125 -0.265625 0.046875l0 7.03125l-1.484375 0l0 -8.078125zm11.996521 7.0q0.53125 0 0.9375 -0.015625q0.40625 -0.03125 0.6875 -0.09375l0 -2.46875q-0.171875 -0.09375 -0.53125 -0.140625q-0.359375 -0.0625 -0.875 -0.0625q-0.328125 0 -0.703125 0.046875q-0.375 0.046875 -0.6875 0.203125q-0.3125 0.15625 -0.53125 0.421875q-0.203125 0.265625 -0.203125 0.6875q0 0.796875 0.515625 1.109375q0.515625 0.3125 1.390625 0.3125zm-0.125 -7.453125q0.890625 0 1.5 0.234375q0.625 0.234375 1.0 0.65625q0.375 0.421875 0.53125 1.015625q0.171875 0.578125 0.171875 1.28125l0 5.203125q-0.203125 0.03125 -0.546875 0.09375q-0.34375 0.046875 -0.78125 0.09375q-0.421875 0.046875 -0.921875 0.078125q-0.5 0.046875 -1.0 0.046875q-0.703125 0 -1.296875 -0.140625q-0.59375 -0.140625 -1.03125 -0.453125q-0.421875 -0.3125 -0.671875 -0.828125q-0.234375 -0.515625 -0.234375 -1.234375q0 -0.6875 0.28125 -1.171875q0.28125 -0.5 0.75 -0.796875q0.484375 -0.3125 1.125 -0.453125q0.640625 -0.15625 1.34375 -0.15625q0.234375 0 0.46875 0.03125q0.234375 0.015625 0.453125 0.0625q0.21875 0.046875 0.375 0.078125q0.15625 0.03125 0.234375 0.046875l0 -0.421875q0 -0.359375 -0.09375 -0.71875q-0.078125 -0.375 -0.28125 -0.640625q-0.203125 -0.28125 -0.5625 -0.453125q-0.359375 -0.171875 -0.9375 -0.171875q-0.734375 0 -1.296875 0.109375q-0.546875 0.09375 -0.8125 0.21875l-0.1875 -1.234375q0.296875 -0.125 0.96875 -0.25q0.671875 -0.125 1.453125 -0.125zm8.16452 8.6875q-1.375 -0.03125 -1.953125 -0.578125q-0.578125 -0.5625 -0.578125 -1.75l0 -9.984375l1.484375 -0.265625l0 10.0q0 0.375 0.0625 0.625q0.0625 0.234375 0.203125 0.375q0.15625 0.140625 0.390625 0.21875q0.234375 0.0625 0.59375 0.109375l-0.203125 1.25z" fill-rule="nonzero"/><path fill="#000000" d="m48.266293 78.52663q-0.203125 0.125 -0.75 0.328125q-0.546875 0.203125 -1.28125 0.203125q-0.75 0 -1.421875 -0.234375q-0.65625 -0.25 -1.15625 -0.75q-0.5 -0.515625 -0.796875 -1.265625q-0.28125 -0.75 -0.28125 -1.796875q0 -0.90625 0.265625 -1.65625q0.28125 -0.765625 0.796875 -1.3125q0.53125 -0.5625 1.28125 -0.875q0.75 -0.3125 1.6875 -0.3125q1.046875 0 1.8125 0.15625q0.78125 0.15625 1.3125 0.28125l0 7.421875q0 1.921875 -1.0 2.78125q-0.984375 0.875 -3.0 0.875q-0.78125 0 -1.484375 -0.140625q-0.6875 -0.125 -1.203125 -0.296875l0.265625 -1.296875q0.453125 0.171875 1.09375 0.3125q0.65625 0.140625 1.359375 0.140625q1.328125 0 1.90625 -0.53125q0.59375 -0.53125 0.59375 -1.6875l0 -0.34375zm-0.015625 -6.1875q-0.234375 -0.0625 -0.609375 -0.109375q-0.375 -0.0625 -1.015625 -0.0625q-1.203125 0 -1.84375 0.796875q-0.640625 0.78125 -0.640625 2.078125q0 0.71875 0.171875 1.234375q0.1875 0.5 0.5 0.84375q0.3125 0.328125 0.71875 0.5q0.40625 0.15625 0.84375 0.15625q0.59375 0 1.078125 -0.171875q0.5 -0.171875 0.796875 -0.390625l0 -4.875zm3.5761414 2.875q0 -1.109375 0.3125 -1.921875q0.328125 -0.828125 0.859375 -1.375q0.53125 -0.546875 1.21875 -0.8125q0.6875 -0.28125 1.40625 -0.28125q1.671875 0 2.5625 1.046875q0.90625 1.046875 0.90625 3.203125q0 0.09375 0 0.25q0 0.140625 -0.015625 0.265625l-5.6875 0q0.09375 1.296875 0.75 1.96875q0.65625 0.671875 2.046875 0.671875q0.78125 0 1.3125 -0.125q0.546875 -0.140625 0.8125 -0.265625l0.203125 1.25q-0.265625 0.140625 -0.953125 0.296875q-0.671875 0.15625 -1.53125 0.15625q-1.09375 0 -1.890625 -0.328125q-0.78125 -0.328125 -1.296875 -0.890625q-0.515625 -0.578125 -0.765625 -1.375q-0.25 -0.796875 -0.25 -1.734375zm5.71875 -0.8125q0.015625 -1.015625 -0.515625 -1.65625q-0.515625 -0.65625 -1.421875 -0.65625q-0.515625 0 -0.90625 0.203125q-0.390625 0.203125 -0.671875 0.53125q-0.265625 0.3125 -0.421875 0.734375q-0.140625 0.40625 -0.1875 0.84375l4.125 0zm3.6940155 -3.125q0.515625 -0.125 1.359375 -0.265625q0.84375 -0.15625 1.9531288 -0.15625q0.984375 0 1.640625 0.28125q0.65625 0.28125 1.046875 0.796875q0.40625 0.5 0.5625 1.203125q0.15625 0.703125 0.15625 1.546875l0 4.671875l-1.484375 0l0 -4.359375q0 -0.765625 -0.109375 -1.296875q-0.109375 -0.546875 -0.34375 -0.875q-0.234375 -0.34375 -0.640625 -0.5q-0.390625 -0.15625 -0.984375 -0.15625q-0.25 0 -0.5000038 0.015625q-0.25 0.015625 -0.484375 0.046875q-0.234375 0.015625 -0.421875 0.046875q-0.1875 0.03125 -0.265625 0.046875l0 7.03125l-1.484375 0l0 -8.078125zm8.715275 3.9375q0 -1.109375 0.3125 -1.921875q0.328125 -0.828125 0.859375 -1.375q0.53125 -0.546875 1.21875 -0.8125q0.6875 -0.28125 1.40625 -0.28125q1.671875 0 2.5625 1.046875q0.90625 1.046875 0.90625 3.203125q0 0.09375 0 0.25q0 0.140625 -0.015625 0.265625l-5.6875 0q0.09375 1.296875 0.75 1.96875q0.65625 0.671875 2.046875 0.671875q0.78125 0 1.3125 -0.125q0.546875 -0.140625 0.8125 -0.265625l0.203125 1.25q-0.265625 0.140625 -0.953125 0.296875q-0.671875 0.15625 -1.53125 0.15625q-1.09375 0 -1.890625 -0.328125q-0.78125 -0.328125 -1.296875 -0.890625q-0.515625 -0.578125 -0.765625 -1.375q-0.25 -0.796875 -0.25 -1.734375zm5.71875 -0.8125q0.015625 -1.015625 -0.515625 -1.65625q-0.515625 -0.65625 -1.421875 -0.65625q-0.515625 0 -0.90625 0.203125q-0.390625 0.203125 -0.671875 0.53125q-0.265625 0.3125 -0.421875 0.734375q-0.140625 0.40625 -0.1875 0.84375l4.125 0zm6.7721405 -3.546875q0.1875 0 0.4375 0.03125q0.25 0.015625 0.484375 0.0625q0.234375 0.03125 0.4375 0.078125q0.203125 0.046875 0.296875 0.078125l-0.25 1.296875q-0.1875 -0.078125 -0.59375 -0.15625q-0.40625 -0.09375 -1.046875 -0.09375q-0.40625 0 -0.828125 0.09375q-0.40625 0.078125 -0.53125 0.125l0 6.984375l-1.484375 0l0 -7.96875q0.53125 -0.1875 1.3125 -0.359375q0.78125 -0.171875 1.765625 -0.171875zm5.9103775 7.421875q0.53125 0 0.9375 -0.015625q0.40625 -0.03125 0.6875 -0.09375l0 -2.46875q-0.171875 -0.09375 -0.53125 -0.140625q-0.359375 -0.0625 -0.875 -0.0625q-0.328125 0 -0.703125 0.046875q-0.375 0.046875 -0.6875 0.203125q-0.3125 0.15625 -0.53125 0.421875q-0.203125 0.265625 -0.203125 0.6875q0 0.796875 0.515625 1.109375q0.515625 0.3125 1.390625 0.3125zm-0.125 -7.453125q0.890625 0 1.5 0.234375q0.625 0.234375 1.0 0.65625q0.375 0.421875 0.53125 1.015625q0.171875 0.578125 0.171875 1.28125l0 5.203125q-0.203125 0.03125 -0.546875 0.09375q-0.34375 0.046875 -0.78125 0.09375q-0.421875 0.046875 -0.921875 0.078125q-0.5 0.046875 -1.0 0.046875q-0.703125 0 -1.296875 -0.140625q-0.59375 -0.140625 -1.03125 -0.453125q-0.421875 -0.3125 -0.671875 -0.828125q-0.234375 -0.515625 -0.234375 -1.234375q0 -0.6875 0.28125 -1.171875q0.28125 -0.5 0.75 -0.796875q0.484375 -0.3125 1.125 -0.453125q0.640625 -0.15625 1.34375 -0.15625q0.234375 0 0.46875 0.03125q0.234375 0.015625 0.453125 0.0625q0.21875 0.046875 0.375 0.078125q0.15625 0.03125 0.234375 0.046875l0 -0.421875q0 -0.359375 -0.09375 -0.71875q-0.078125 -0.375 -0.28125 -0.640625q-0.203125 -0.28125 -0.5625 -0.453125q-0.359375 -0.171875 -0.9375 -0.171875q-0.734375 0 -1.296875 0.109375q-0.546875 0.09375 -0.8125 0.21875l-0.1875 -1.234375q0.296875 -0.125 0.96875 -0.25q0.671875 -0.125 1.453125 -0.125zm7.0551453 0.21875l3.15625 0l0 1.234375l-3.15625 0l0 3.84375q0 0.625 0.09375 1.03125q0.09375 0.40625 0.28125 0.640625q0.203125 0.234375 0.484375 0.328125q0.296875 0.09375 0.671875 0.09375q0.671875 0 1.078125 -0.140625q0.421875 -0.15625 0.578125 -0.21875l0.28125 1.234375q-0.21875 0.109375 -0.78125 0.265625q-0.5625 0.171875 -1.28125 0.171875q-0.84375 0 -1.40625 -0.203125q-0.546875 -0.21875 -0.890625 -0.65625q-0.328125 -0.4375 -0.46875 -1.0625q-0.125 -0.640625 -0.125 -1.46875l0 -7.421875l1.484375 -0.25l0 2.578125zm12.161133 4.15625q0 0.984375 -0.296875 1.796875q-0.28125 0.796875 -0.796875 1.375q-0.515625 0.5625 -1.25 0.875q-0.71875 0.3125 -1.5625 0.3125q-0.84375 0 -1.5625 -0.3125q-0.71875 -0.3125 -1.25 -0.875q-0.515625 -0.578125 -0.8125 -1.375q-0.28125 -0.8125 -0.28125 -1.796875q0 -0.984375 0.28125 -1.78125q0.296875 -0.8125 0.8125 -1.390625q0.53125 -0.578125 1.25 -0.890625q0.71875 -0.3125 1.5625 -0.3125q0.84375 0 1.5625 0.3125q0.734375 0.3125 1.25 0.890625q0.515625 0.578125 0.796875 1.390625q0.296875 0.796875 0.296875 1.78125zm-1.546875 0q0 -1.40625 -0.640625 -2.234375q-0.625 -0.828125 -1.71875 -0.828125q-1.09375 0 -1.71875 0.828125q-0.625 0.828125 -0.625 2.234375q0 1.40625 0.625 2.234375q0.625 0.8125 1.71875 0.8125q1.09375 0 1.71875 -0.8125q0.640625 -0.828125 0.640625 -2.234375zm6.7212677 -4.34375q0.1875 0 0.4375 0.03125q0.25 0.015625 0.484375 0.0625q0.234375 0.03125 0.4375 0.078125q0.203125 0.046875 0.296875 0.078125l-0.25 1.296875q-0.1875 -0.078125 -0.59375 -0.15625q-0.40625 -0.09375 -1.046875 -0.09375q-0.40625 0 -0.828125 0.09375q-0.40625 0.078125 -0.53125 0.125l0 6.984375l-1.484375 0l0 -7.96875q0.53125 -0.1875 1.3125 -0.359375q0.78125 -0.171875 1.765625 -0.171875z" fill-rule="nonzero"/><path fill="#f3f3f3" d="m194.19423 32.52231l115.401566 0l0 63.181107l-115.401566 0z" fill-rule="evenodd"/><path stroke="#000000" stroke-width="1.0" stroke-linejoin="round" stroke-linecap="butt" d="m194.19423 32.52231l115.401566 0l0 63.181107l-115.401566 0z" fill-rule="evenodd"/><path fill="#000000" d="m230.35532 64.42599q0 1.4375 -0.453125 2.5q-0.453125 1.0625 -1.265625 1.765625q-0.8125 0.6875 -1.953125 1.03125q-1.125 0.34375 -2.5 0.34375q-0.671875 0 -1.484375 -0.0625q-0.796875 -0.046875 -1.453125 -0.203125l0 -10.750004q0.65625 -0.171875 1.453125 -0.21875q0.8125 -0.0625 1.484375 -0.0625q1.375 0 2.5 0.34375q1.140625 0.34375 1.953125 1.046875q0.8125 0.6875 1.265625 1.765625q0.453125 1.0625 0.453125 2.5000038zm-6.03125 4.28125q2.203125 0 3.28125 -1.125q1.09375 -1.125 1.09375 -3.15625q0 -2.0312538 -1.09375 -3.1562538q-1.078125 -1.140625 -3.28125 -1.140625q-0.65625 0 -1.015625 0.015625q-0.359375 0.015625 -0.515625 0.03125l0 8.484379q0.15625 0.015625 0.515625 0.03125q0.359375 0.015625 1.015625 0.015625zm13.09552 1.5q-1.171875 0 -2.125 -0.375q-0.953125 -0.390625 -1.640625 -1.125q-0.6875 -0.734375 -1.078125 -1.8125q-0.375 -1.078125 -0.375 -2.46875q0 -1.3906288 0.421875 -2.4687538q0.4375 -1.09375 1.15625 -1.828125q0.71875 -0.734375 1.671875 -1.109375q0.96875 -0.390625 2.046875 -0.390625q0.6875 0 1.234375 0.09375q0.5625 0.09375 0.96875 0.234375q0.40625 0.125 0.65625 0.25q0.265625 0.125 0.359375 0.1875l-0.453125 1.28125q-0.140625 -0.09375 -0.421875 -0.203125q-0.265625 -0.109375 -0.609375 -0.21875q-0.34375 -0.125 -0.75 -0.1875q-0.40625 -0.078125 -0.8125 -0.078125q-0.890625 0 -1.59375 0.3125q-0.703125 0.296875 -1.203125 0.875q-0.484375 0.578125 -0.75 1.40625q-0.265625 0.8125 -0.265625 1.8437538q0 0.984375 0.234375 1.8125q0.234375 0.8125 0.6875 1.390625q0.46875 0.578125 1.15625 0.90625q0.703125 0.3125 1.625 0.3125q1.078125 0 1.78125 -0.21875q0.703125 -0.21875 1.0625 -0.40625l0.390625 1.28125q-0.109375 0.078125 -0.40625 0.203125q-0.28125 0.125 -0.71875 0.234375q-0.421875 0.109375 -1.0 0.1875q-0.578125 0.078125 -1.25 0.078125zm10.241028 -8.187504q0.28125 -0.171875 0.828125 -0.359375q0.546875 -0.203125 1.265625 -0.203125q0.90625 0 1.59375 0.328125q0.703125 0.3125 1.171875 0.890625q0.484375 0.578125 0.734375 1.3750038q0.25 0.796875 0.25 1.765625q0 1.0 -0.296875 1.8125q-0.296875 0.8125 -0.84375 1.375q-0.546875 0.546875 -1.3125 0.859375q-0.765625 0.296875 -1.71875 0.296875q-1.046875 0 -1.84375 -0.140625q-0.796875 -0.140625 -1.3125 -0.28125l0 -11.921879l1.484375 -0.265625l0 4.46875zm0 6.656254q0.21875 0.0625 0.625 0.125q0.421875 0.046875 1.03125 0.046875q1.1875 0 1.90625 -0.78125q0.734375 -0.796875 0.734375 -2.25q0 -0.640625 -0.140625 -1.203125q-0.125 -0.5625 -0.421875 -0.9687538q-0.28125 -0.40625 -0.734375 -0.640625q-0.453125 -0.234375 -1.09375 -0.234375q-0.609375 0 -1.125 0.21875q-0.5 0.203125 -0.78125 0.421875l0 5.265629zm10.439667 1.453125q-1.375 -0.03125 -1.953125 -0.578125q-0.57814026 -0.5625 -0.57814026 -1.75l0 -9.984379l1.4843903 -0.265625l0 10.000004q0 0.375 0.0625 0.625q0.0625 0.234375 0.203125 0.375q0.15625 0.140625 0.390625 0.21875q0.234375 0.0625 0.5937195 0.109375l-0.20309448 1.25zm9.211731 -4.3125q0 0.984375 -0.296875 1.796875q-0.28125 0.796875 -0.796875 1.375q-0.515625 0.5625 -1.25 0.875q-0.71875 0.3125 -1.5625 0.3125q-0.84375 0 -1.5625 -0.3125q-0.71875 -0.3125 -1.25 -0.875q-0.515625 -0.578125 -0.8125 -1.375q-0.28125 -0.8125 -0.28125 -1.796875q0 -0.984375 0.28125 -1.78125q0.296875 -0.8125038 0.8125 -1.3906288q0.53125 -0.578125 1.25 -0.890625q0.71875 -0.3125 1.5625 -0.3125q0.84375 0 1.5625 0.3125q0.734375 0.3125 1.25 0.890625q0.515625 0.578125 0.796875 1.3906288q0.296875 0.796875 0.296875 1.78125zm-1.546875 0q0 -1.40625 -0.640625 -2.2343788q-0.625 -0.828125 -1.71875 -0.828125q-1.09375 0 -1.71875 0.828125q-0.625 0.8281288 -0.625 2.2343788q0 1.40625 0.625 2.234375q0.625 0.8125 1.71875 0.8125q1.09375 0 1.71875 -0.8125q0.640625 -0.828125 0.640625 -2.234375zm7.252533 4.34375q-1.0 0 -1.765625 -0.3125q-0.75 -0.328125 -1.28125 -0.890625q-0.515625 -0.578125 -0.78125 -1.375q-0.25 -0.796875 -0.25 -1.75q0 -0.96875 0.28125 -1.765625q0.28125 -0.7968788 0.796875 -1.3750038q0.515625 -0.59375 1.25 -0.921875q0.75 -0.328125 1.65625 -0.328125q0.5625 0 1.125 0.09375q0.5625 0.09375 1.0625 0.3125l-0.328125 1.265625q-0.34375 -0.171875 -0.78125 -0.265625q-0.4375 -0.09375 -0.9375 -0.09375q-1.234375 0 -1.90625 0.796875q-0.65625 0.7812538 -0.65625 2.2812538q0 0.671875 0.140625 1.234375q0.15625 0.546875 0.484375 0.953125q0.328125 0.40625 0.84375 0.625q0.515625 0.203125 1.25 0.203125q0.59375 0 1.0625 -0.109375q0.484375 -0.109375 0.75 -0.234375l0.21875 1.25q-0.140625 0.078125 -0.375 0.15625q-0.234375 0.0625 -0.546875 0.109375q-0.296875 0.0625 -0.640625 0.09375q-0.34375 0.046875 -0.671875 0.046875zm6.8306274 -4.765625q0.484375 0.375 1.015625 0.921875q0.546875 0.53125 1.0625 1.171875q0.515625 0.625 0.984375 1.28125q0.46875 0.640625 0.78125 1.203125l-1.734375 0q-0.34375 -0.5625 -0.78125 -1.140625q-0.4375 -0.59375 -0.921875 -1.125q-0.484375 -0.53125 -0.984375 -0.984375q-0.484375 -0.453125 -0.9375 -0.75l0 4.0l-1.484375 0l0 -12.156254l1.484375 -0.265625l0 7.593754q0.390625 -0.390625 0.84375 -0.84375q0.46875 -0.4687538 0.90625 -0.9531288q0.453125 -0.484375 0.859375 -0.921875q0.40625 -0.4375 0.6875 -0.765625l1.75 0q-0.375 0.390625 -0.8125 0.875q-0.421875 0.484375 -0.890625 0.96875q-0.46875 0.484375 -0.9375 0.9687538q-0.46875 0.484375 -0.890625 0.921875z" fill-rule="nonzero"/><path fill="#f3f3f3" d="m367.98688 32.52231l115.40158 0l0 63.181107l-115.40158 0z" fill-rule="evenodd"/><path stroke="#000000" stroke-width="1.0" stroke-linejoin="round" stroke-linecap="butt" d="m367.98688 32.52231l115.40158 0l0 63.181107l-115.40158 0z" fill-rule="evenodd"/><path fill="#000000" d="m402.98947 64.48849l3.953125 0l0 1.390625l-3.953125 0l0 -1.390625zm11.830902 -2.7656288q0 0.5625 -0.234375 1.109375q-0.21875 0.53125 -0.609375 1.0625q-0.390625 0.5156288 -0.875 1.0156288q-0.46875 0.5 -0.953125 0.984375q-0.265625 0.265625 -0.625 0.640625q-0.359375 0.359375 -0.6875 0.765625q-0.3125 0.40625 -0.53125 0.78125q-0.21875 0.359375 -0.21875 0.625l5.109375 0l0 1.265625l-6.71875 0q-0.015625 -0.09375 -0.015625 -0.1875q0 -0.09375 0 -0.1875q0 -0.75 0.234375 -1.390625q0.25 -0.65625 0.65625 -1.21875q0.40625 -0.578125 0.890625 -1.09375q0.5 -0.515625 0.984375 -1.0q0.390625 -0.375 0.75 -0.75q0.359375 -0.3750038 0.640625 -0.7500038q0.28125 -0.375 0.453125 -0.78125q0.171875 -0.40625 0.171875 -0.84375q0 -0.484375 -0.15625 -0.8125q-0.15625 -0.34375 -0.40625 -0.5625q-0.25 -0.234375 -0.59375 -0.328125q-0.34375 -0.109375 -0.734375 -0.109375q-0.46875 0 -0.859375 0.125q-0.375 0.125 -0.6875 0.296875q-0.296875 0.171875 -0.5 0.359375q-0.203125 0.171875 -0.328125 0.28125l-0.734375 -1.0625q0.15625 -0.15625 0.4375 -0.390625q0.28125 -0.234375 0.6875 -0.4375q0.40625 -0.21875 0.890625 -0.359375q0.5 -0.140625 1.078125 -0.140625q1.75 0 2.609375 0.8125q0.875 0.796875 0.875 2.28125zm2.3521423 2.7031288q0 -2.7968788 0.984375 -4.296879q0.984375 -1.5 2.734375 -1.5q1.734375 0 2.71875 1.5q0.984375 1.5 0.984375 4.296879q0 2.78125 -0.984375 4.28125q-0.984375 1.5 -2.71875 1.5q-1.75 0 -2.734375 -1.5q-0.984375 -1.5 -0.984375 -4.28125zm5.859375 0q0 -0.9218788 -0.109375 -1.7343788q-0.09375 -0.8125 -0.34375 -1.421875q-0.25 -0.609375 -0.671875 -0.96875q-0.40625 -0.359375 -1.015625 -0.359375q-0.609375 0 -1.03125 0.359375q-0.40625 0.359375 -0.65625 0.96875q-0.25 0.609375 -0.359375 1.421875q-0.09375 0.8125 -0.09375 1.7343788q0 0.90625 0.09375 1.71875q0.109375 0.8125 0.359375 1.421875q0.25 0.609375 0.65625 0.96875q0.421875 0.359375 1.03125 0.359375q0.609375 0 1.015625 -0.359375q0.421875 -0.359375 0.671875 -0.96875q0.25 -0.609375 0.34375 -1.421875q0.109375 -0.8125 0.109375 -1.71875zm12.720032 -1.0156288q-0.265625 -0.21875 -0.78125 -0.421875q-0.515625 -0.21875 -1.125 -0.21875q-0.640625 0 -1.09375 0.234375q-0.453125 0.234375 -0.75 0.640625q-0.28125 0.4062538 -0.40625 0.9687538q-0.125 0.5625 -0.125 1.203125q0 1.453125 0.71875 2.25q0.71875 0.78125 1.921875 0.78125q0.59375 0 1.0 -0.046875q0.421875 -0.0625 0.640625 -0.125l0 -5.265629zm0 -5.59375l1.484375 -0.265625l0 12.187504q-0.515625 0.140625 -1.3125 0.28125q-0.796875 0.140625 -1.84375 0.140625q-0.953125 0 -1.71875 -0.296875q-0.765625 -0.3125 -1.3125 -0.859375q-0.546875 -0.5625 -0.84375 -1.375q-0.296875 -0.8125 -0.296875 -1.8125q0 -0.96875 0.25 -1.765625q0.25 -0.7968788 0.71875 -1.3750038q0.484375 -0.578125 1.171875 -0.890625q0.703125 -0.328125 1.609375 -0.328125q0.71875 0 1.265625 0.203125q0.5625 0.1875 0.828125 0.359375l0 -4.203125zm7.142761 12.250004q-0.34375 0 -0.734375 -0.015625q-0.390625 -0.015625 -0.78125 -0.046875q-0.390625 -0.03125 -0.78125 -0.078125q-0.375 -0.046875 -0.703125 -0.125l0 -10.750004q0.328125 -0.09375 0.703125 -0.140625q0.390625 -0.046875 0.78125 -0.078125q0.390625 -0.03125 0.765625 -0.046875q0.390625 -0.015625 0.734375 -0.015625q0.953125 0 1.78125 0.15625q0.84375 0.140625 1.453125 0.484375q0.625 0.34375 0.96875 0.90625q0.359375 0.546875 0.359375 1.375q0 0.90625 -0.4375 1.5q-0.421875 0.578125 -1.140625 0.8593788q0.96875 0.296875 1.546875 0.921875q0.578125 0.609375 0.578125 1.75q0 1.671875 -1.21875 2.515625q-1.21875 0.828125 -3.875 0.828125zm-1.46875 -5.265625l0 3.90625q0.1875 0.015625 0.421875 0.03125q0.203125 0.015625 0.484375 0.03125q0.28125 0 0.65625 0q0.6875 0 1.296875 -0.078125q0.625 -0.09375 1.078125 -0.3125q0.46875 -0.234375 0.75 -0.625q0.28125 -0.40625 0.28125 -1.015625q0 -0.546875 -0.21875 -0.921875q-0.203125 -0.375 -0.59375 -0.59375q-0.390625 -0.21875 -0.9375 -0.3125q-0.546875 -0.109375 -1.21875 -0.109375l-2.0 0zm0 -1.2500038l1.640625 0q0.578125 0 1.078125 -0.078125q0.515625 -0.078125 0.890625 -0.28125q0.375 -0.203125 0.59375 -0.53125q0.21875 -0.34375 0.21875 -0.859375q0 -0.484375 -0.234375 -0.8125q-0.21875 -0.328125 -0.609375 -0.53125q-0.390625 -0.203125 -0.921875 -0.296875q-0.515625 -0.09375 -1.109375 -0.09375q-0.59375 0 -0.9375 0.015625q-0.328125 0.015625 -0.609375 0.046875l0 3.421875z" fill-rule="nonzero"/><path fill="#000000" fill-opacity="0.0" d="m135.80315 63.99475l58.393707 0.12598419" fill-rule="evenodd"/><path stroke="#000000" stroke-width="1.0" stroke-linejoin="round" stroke-linecap="butt" d="m135.80315 63.99475l52.393723 0.11303711" fill-rule="evenodd"/><path fill="#000000" stroke="#000000" stroke-width="1.0" stroke-linecap="butt" d="m188.1933 65.75952l4.5416565 -1.6419373l-4.5345306 -1.6615219z" fill-rule="evenodd"/><path fill="#000000" fill-opacity="0.0" d="m309.5958 64.11286l58.393707 0" fill-rule="evenodd"/><path stroke="#000000" stroke-width="1.0" stroke-linejoin="round" stroke-linecap="butt" d="m309.5958 64.11286l52.393707 0" fill-rule="evenodd"/><path fill="#000000" stroke="#000000" stroke-width="1.0" stroke-linecap="butt" d="m361.9895 65.764595l4.538086 -1.6517334l-4.538086 -1.6517334z" fill-rule="evenodd"/><path fill="#000000" fill-opacity="0.0" d="m483.38846 64.11286l58.393707 0" fill-rule="evenodd"/><path stroke="#000000" stroke-width="1.0" stroke-linejoin="round" stroke-linecap="butt" d="m483.38846 64.11286l52.393707 0" fill-rule="evenodd"/><path fill="#000000" stroke="#000000" stroke-width="1.0" stroke-linecap="butt" d="m535.78217 65.764595l4.538086 -1.6517334l-4.538086 -1.6517334z" fill-rule="evenodd"/></g></svg>