<svg version="1.1" viewBox="0.0 0.0 536.0446194225722 108.03937007874016" fill="none" stroke="none" stroke-linecap="square" stroke-miterlimit="10" xmlns:xlink="http://www.w3.org/1999/xlink" xmlns="http://www.w3.org/2000/svg"><clipPath id="p.0"><path d="m0 0l536.0446 0l0 108.03937l-536.0446 0l0 -108.03937z" clip-rule="nonzero"/></clipPath><g clip-path="url(#p.0)"><path fill="#000000" fill-opacity="0.0" d="m0 0l536.0446 0l0 108.03937l-536.0446 0z" fill-rule="evenodd"/><path fill="#d9ead3" d="m389.12598 33.227036l115.40158 0l0 63.1811l-115.40158 0z" fill-rule="evenodd"/><path stroke="#000000" stroke-width="1.0" stroke-linejoin="round" stroke-linecap="butt" d="m389.12598 33.227036l115.40158 0l0 63.1811l-115.40158 0z" fill-rule="evenodd"/><path fill="#000000" d="m418.2977 61.177586l0 -11.09375l6.6875 0l0 1.328125l-5.140625 0l0 3.34375l4.5625 0l0 1.3125l-4.5625 0l0 5.109375l-1.546875 0zm8.5920105 0l0 -11.09375l6.6875 0l0 1.328125l-5.140625 0l0 3.34375l4.5625 0l0 1.3125l-4.5625 0l0 5.109375l-1.546875 0zm16.22226 -11.09375l0 1.34375l-3.484375 0l0 9.75l-1.546875 0l0 -9.75l-3.5 0l0 -1.34375l8.53125 0zm11.017303 6.953125q0 -1.453125 -0.734375 -2.234375q-0.71875 -0.796875 -1.90625 -0.796875q-0.671875 0 -1.0625 0.046875q-0.375 0.046875 -0.59375 0.109375l0 5.25q0.28125 0.234375 0.78125 0.4375q0.515625 0.203125 1.125 0.203125q0.640625 0 1.09375 -0.21875q0.453125 -0.234375 0.734375 -0.640625q0.296875 -0.421875 0.421875 -0.96875q0.140625 -0.546875 0.140625 -1.1875zm1.546875 0q0 0.9375 -0.25 1.75q-0.25 0.796875 -0.734375 1.375q-0.46875 0.5625 -1.171875 0.890625q-0.6875 0.3125 -1.59375 0.3125q-0.71875 0 -1.265625 -0.1875q-0.546875 -0.1875 -0.828125 -0.375l0 3.3281212l-1.484375 0l0 -11.015621q0.53125 -0.125 1.3125 -0.28125q0.796875 -0.15625 1.84375 -0.15625q0.953125 0 1.71875 0.3125q0.765625 0.296875 1.3125 0.859375q0.546875 0.5625 0.84375 1.375q0.296875 0.796875 0.296875 1.8125zm4.595886 4.296875q-1.375 -0.03125 -1.953125 -0.578125q-0.578125 -0.5625 -0.578125 -1.75l0 -9.984375l1.484375 -0.265625l0 10.0q0 0.375 0.0625 0.625q0.0625 0.234375 0.203125 0.375q0.15625 0.140625 0.390625 0.21875q0.234375 0.0625 0.59375 0.109375l-0.203125 1.25zm9.211761 -4.3125q0 0.984375 -0.296875 1.796875q-0.28125 0.796875 -0.796875 1.375q-0.515625 0.5625 -1.25 0.875q-0.71875 0.3125 -1.5625 0.3125q-0.84375 0 -1.5625 -0.3125q-0.71875 -0.3125 -1.25 -0.875q-0.515625 -0.578125 -0.8125 -1.375q-0.28125 -0.8125 -0.28125 -1.796875q0 -0.984375 0.28125 -1.78125q0.296875 -0.8125 0.8125 -1.390625q0.53125 -0.578125 1.25 -0.890625q0.71875 -0.3125 1.5625 -0.3125q0.84375 0 1.5625 0.3125q0.734375 0.3125 1.25 0.890625q0.515625 0.578125 0.796875 1.390625q0.296875 0.796875 0.296875 1.78125zm-1.546875 0q0 -1.40625 -0.640625 -2.234375q-0.625 -0.828125 -1.71875 -0.828125q-1.09375 0 -1.71875 0.828125q-0.625 0.828125 -0.625 2.234375q0 1.40625 0.625 2.234375q0.625 0.8125 1.71875 0.8125q1.09375 0 1.71875 -0.8125q0.640625 -0.828125 0.640625 -2.234375zm5.033783 -4.15625l3.15625 0l0 1.234375l-3.15625 0l0 3.84375q0 0.625 0.09375 1.03125q0.09375 0.40625 0.28125 0.640625q0.203125 0.234375 0.484375 0.328125q0.296875 0.09375 0.671875 0.09375q0.671875 0 1.078125 -0.140625q0.421875 -0.15625 0.578125 -0.21875l0.28125 1.234375q-0.21875 0.109375 -0.78125 0.265625q-0.5625 0.171875 -1.28125 0.171875q-0.84375 0 -1.40625 -0.203125q-0.546875 -0.21875 -0.890625 -0.65625q-0.328125 -0.4375 -0.46875 -1.0625q-0.125 -0.640625 -0.125 -1.46875l0 -7.421875l1.484375 -0.25l0 2.578125z" fill-rule="nonzero"/><path fill="#000000" d="m415.99307 75.39633q0 2.046875 0.59375 3.796875q0.59375 1.734375 1.75 3.21875l-1.0625 0.71875q-1.25 -1.515625 -2.015625 -3.484375q-0.75 -1.984375 -0.75 -4.25q0 -2.28125 0.75 -4.25q0.765625 -1.984375 2.015625 -3.5l1.0625 0.71875q-1.15625 1.5 -1.75 3.25q-0.59375 1.734375 -0.59375 3.78125zm6.114746 3.671875q2.4375 0 2.4375 -1.65625q0 -0.515625 -0.21875 -0.875q-0.21875 -0.359375 -0.59375 -0.625q-0.359375 -0.265625 -0.84375 -0.453125q-0.46875 -0.1875 -0.984375 -0.390625q-0.609375 -0.203125 -1.15625 -0.46875q-0.546875 -0.265625 -0.953125 -0.625q-0.390625 -0.359375 -0.625 -0.84375q-0.234375 -0.5 -0.234375 -1.203125q0 -1.46875 0.984375 -2.28125q1.0 -0.8125 2.75 -0.8125q1.0 0 1.828125 0.21875q0.828125 0.21875 1.203125 0.46875l-0.484375 1.265625q-0.34375 -0.203125 -1.015625 -0.40625q-0.65625 -0.203125 -1.53125 -0.203125q-0.453125 0 -0.84375 0.09375q-0.375 0.09375 -0.671875 0.296875q-0.28125 0.1875 -0.453125 0.484375q-0.15625 0.296875 -0.15625 0.6875q0 0.453125 0.171875 0.765625q0.171875 0.296875 0.484375 0.53125q0.328125 0.234375 0.75 0.421875q0.421875 0.1875 0.9375 0.375q0.71875 0.296875 1.3125 0.59375q0.609375 0.28125 1.046875 0.6875q0.4375 0.390625 0.671875 0.953125q0.25 0.546875 0.25 1.328125q0 1.453125 -1.0625 2.234375q-1.0625 0.78125 -3.0 0.78125q-0.65625 0 -1.21875 -0.09375q-0.546875 -0.078125 -0.984375 -0.1875q-0.421875 -0.125 -0.734375 -0.265625q-0.3125 -0.140625 -0.484375 -0.234375l0.453125 -1.28125q0.375 0.21875 1.125 0.46875q0.75 0.25 1.84375 0.25zm15.043274 -4.4375q0 1.4375 -0.453125 2.5q-0.453125 1.0625 -1.265625 1.765625q-0.8125 0.6875 -1.953125 1.03125q-1.125 0.34375 -2.5 0.34375q-0.671875 0 -1.484375 -0.0625q-0.796875 -0.046875 -1.453125 -0.203125l0 -10.75q0.65625 -0.171875 1.453125 -0.21875q0.8125 -0.0625 1.484375 -0.0625q1.375 0 2.5 0.34375q1.140625 0.34375 1.953125 1.046875q0.8125 0.6875 1.265625 1.765625q0.453125 1.0625 0.453125 2.5zm-6.03125 4.28125q2.203125 0 3.28125 -1.125q1.09375 -1.125 1.09375 -3.15625q0 -2.03125 -1.09375 -3.15625q-1.078125 -1.140625 -3.28125 -1.140625q-0.65625 0 -1.015625 0.015625q-0.359375 0.015625 -0.515625 0.03125l0 8.484375q0.15625 0.015625 0.515625 0.03125q0.359375 0.015625 1.015625 0.015625zm13.75177 -3.375q0.265625 0.328125 0.65625 0.84375q0.390625 0.515625 0.796875 1.15625q0.421875 0.625 0.828125 1.3125q0.40625 0.6875 0.703125 1.328125l-1.703125 0q-0.3125 -0.609375 -0.6875 -1.234375q-0.375 -0.625 -0.765625 -1.1875q-0.390625 -0.5625 -0.765625 -1.0625q-0.375 -0.5 -0.671875 -0.875q-0.21875 0.015625 -0.4375 0.015625q-0.203125 0 -0.4375 0l-1.390625 0l0 4.34375l-1.546875 0l0 -10.921875q0.65625 -0.171875 1.453125 -0.21875q0.8125 -0.0625 1.484375 -0.0625q2.34375 0 3.5625 0.890625q1.234375 0.875 1.234375 2.609375q0 1.109375 -0.59375 1.890625q-0.578125 0.78125 -1.71875 1.171875zm-2.34375 -5.203125q-1.0 0 -1.53125 0.046875l0 4.1875l1.109375 0q0.796875 0 1.4375 -0.078125q0.640625 -0.09375 1.078125 -0.3125q0.4375 -0.21875 0.671875 -0.625q0.25 -0.421875 0.25 -1.09375q0 -0.625 -0.25 -1.03125q-0.234375 -0.421875 -0.640625 -0.65625q-0.40625 -0.234375 -0.953125 -0.328125q-0.546875 -0.109375 -1.171875 -0.109375zm13.26004 8.734375q2.4375 0 2.4375 -1.65625q0 -0.515625 -0.21875 -0.875q-0.21875 -0.359375 -0.59375 -0.625q-0.359375 -0.265625 -0.84375 -0.453125q-0.46875 -0.1875 -0.984375 -0.390625q-0.609375 -0.203125 -1.15625 -0.46875q-0.546875 -0.265625 -0.953125 -0.625q-0.390625 -0.359375 -0.625 -0.84375q-0.234375 -0.5 -0.234375 -1.203125q0 -1.46875 0.984375 -2.28125q1.0 -0.8125 2.75 -0.8125q1.0 0 1.828125 0.21875q0.828125 0.21875 1.203125 0.46875l-0.484375 1.265625q-0.34375 -0.203125 -1.015625 -0.40625q-0.65625 -0.203125 -1.53125 -0.203125q-0.453125 0 -0.84375 0.09375q-0.375 0.09375 -0.671875 0.296875q-0.28125 0.1875 -0.453125 0.484375q-0.15625 0.296875 -0.15625 0.6875q0 0.453125 0.171875 0.765625q0.171875 0.296875 0.484375 0.53125q0.328125 0.234375 0.75 0.421875q0.421875 0.1875 0.9375 0.375q0.71875 0.296875 1.3125 0.59375q0.609375 0.28125 1.046875 0.6875q0.4375 0.390625 0.671875 0.953125q0.25 0.546875 0.25 1.328125q0 1.453125 -1.0625 2.234375q-1.0625 0.78125 -3.0 0.78125q-0.65625 0 -1.21875 -0.09375q-0.546875 -0.078125 -0.984375 -0.1875q-0.421875 -0.125 -0.734375 -0.265625q-0.3125 -0.140625 -0.484375 -0.234375l0.453125 -1.28125q0.375 0.21875 1.125 0.46875q0.75 0.25 1.84375 0.25zm11.996399 -6.40625q-0.671875 2.140625 -1.359375 3.96875q-0.6875 1.8125 -1.375 3.546875l-1.546875 0q-0.859375 -2.453125 -1.5 -5.171875q-0.640625 -2.71875 -1.203125 -5.921875l1.625 0q0.21875 1.25 0.453125 2.5q0.25 1.25 0.5 2.4375q0.265625 1.171875 0.515625 2.25q0.265625 1.0625 0.53125 1.96875q0.640625 -1.671875 1.359375 -3.671875q0.71875 -2.015625 1.34375 -4.171875l1.34375 0q0.625 2.15625 1.359375 4.171875q0.734375 2.0 1.375 3.671875q0.265625 -0.890625 0.515625 -1.953125q0.25 -1.078125 0.5 -2.25q0.25 -1.1875 0.484375 -2.4375q0.25 -1.265625 0.46875 -2.515625l1.59375 0q-0.578125 3.203125 -1.234375 5.921875q-0.640625 2.71875 -1.46875 5.171875l-1.5625 0q-0.703125 -1.734375 -1.375 -3.546875q-0.671875 -1.828125 -1.34375 -3.96875zm9.879669 2.734375q0 -2.046875 -0.59375 -3.78125q-0.59375 -1.75 -1.75 -3.25l1.0625 -0.71875q1.25 1.515625 2.0 3.5q0.765625 1.96875 0.765625 4.25q0 2.265625 -0.765625 4.25q-0.75 1.96875 -2.0 3.484375l-1.0625 -0.71875q1.15625 -1.484375 1.75 -3.21875q0.59375 -1.75 0.59375 -3.796875z" fill-rule="nonzero"/><path fill="#f5d0d0" d="m208.24278 33.227036l115.401566 0l0 63.1811l-115.401566 0z" fill-rule="evenodd"/><path stroke="#000000" stroke-width="1.0" stroke-linejoin="round" stroke-linecap="butt" d="m208.24278 33.227036l115.401566 0l0 63.1811l-115.401566 0z" fill-rule="evenodd"/><path fill="#000000" d="m229.64061 69.56821q2.4375 0 2.4375 -1.65625q0 -0.515625 -0.21875 -0.875q-0.21875 -0.359375 -0.59375 -0.625q-0.359375 -0.265625 -0.84375 -0.453125q-0.46875 -0.1875 -0.984375 -0.390625q-0.609375 -0.203125 -1.15625 -0.46875q-0.546875 -0.265625 -0.953125 -0.625q-0.390625 -0.359375 -0.625 -0.8437462q-0.234375 -0.5 -0.234375 -1.203125q0 -1.46875 0.984375 -2.28125q1.0 -0.8125 2.75 -0.8125q1.0 0 1.828125 0.21875q0.828125 0.21875 1.203125 0.46875l-0.484375 1.265625q-0.34375 -0.203125 -1.015625 -0.40625q-0.65625 -0.203125 -1.53125 -0.203125q-0.453125 0 -0.84375 0.09375q-0.375 0.09375 -0.671875 0.296875q-0.28125 0.1875 -0.453125 0.484375q-0.15625 0.296875 -0.15625 0.6875q0 0.453125 0.171875 0.765625q0.171875 0.296875 0.484375 0.53125q0.328125 0.234375 0.75 0.421875q0.421875 0.18749619 0.9375 0.3749962q0.71875 0.296875 1.3125 0.59375q0.609375 0.28125 1.046875 0.6875q0.4375 0.390625 0.671875 0.953125q0.25 0.546875 0.25 1.328125q0 1.453125 -1.0625 2.234375q-1.0625 0.78125 -3.0 0.78125q-0.65625 0 -1.21875 -0.09375q-0.546875 -0.078125 -0.984375 -0.1875q-0.421875 -0.125 -0.734375 -0.265625q-0.3125 -0.140625 -0.484375 -0.234375l0.453125 -1.28125q0.375 0.21875 1.125 0.46875q0.75 0.25 1.84375 0.25zm15.043274 -4.4375q0 1.4375 -0.453125 2.5q-0.453125 1.0625 -1.265625 1.765625q-0.8125 0.6875 -1.953125 1.03125q-1.125 0.34375 -2.5 0.34375q-0.671875 0 -1.484375 -0.0625q-0.796875 -0.046875 -1.453125 -0.203125l0 -10.749996q0.65625 -0.171875 1.453125 -0.21875q0.8125 -0.0625 1.484375 -0.0625q1.375 0 2.5 0.34375q1.140625 0.34375 1.953125 1.046875q0.8125 0.6875 1.265625 1.765625q0.453125 1.0625 0.453125 2.4999962zm-6.03125 4.28125q2.203125 0 3.28125 -1.125q1.09375 -1.125 1.09375 -3.15625q0 -2.0312462 -1.09375 -3.1562462q-1.078125 -1.140625 -3.28125 -1.140625q-0.65625 0 -1.015625 0.015625q-0.359375 0.015625 -0.515625 0.03125l0 8.484371q0.15625 0.015625 0.515625 0.03125q0.359375 0.015625 1.015625 0.015625zm13.75177 -3.375q0.265625 0.328125 0.65625 0.84375q0.390625 0.515625 0.796875 1.15625q0.421875 0.625 0.828125 1.3125q0.40625 0.6875 0.703125 1.328125l-1.703125 0q-0.3125 -0.609375 -0.6875 -1.234375q-0.375 -0.625 -0.765625 -1.1875q-0.390625 -0.5625 -0.765625 -1.0625q-0.375 -0.5 -0.671875 -0.875q-0.21875 0.015625 -0.4375 0.015625q-0.203125 0 -0.4375 0l-1.390625 0l0 4.34375l-1.546875 0l0 -10.921871q0.65625 -0.171875 1.453125 -0.21875q0.8125 -0.0625 1.484375 -0.0625q2.34375 0 3.5625 0.890625q1.234375 0.875 1.234375 2.609375q0 1.1093712 -0.59375 1.8906212q-0.578125 0.78125 -1.71875 1.171875zm-2.34375 -5.203121q-1.0 0 -1.53125 0.046875l0 4.187496l1.109375 0q0.796875 0 1.4375 -0.078125q0.640625 -0.09375 1.078125 -0.3125q0.4375 -0.21875 0.671875 -0.625q0.25 -0.4218712 0.25 -1.0937462q0 -0.625 -0.25 -1.03125q-0.234375 -0.421875 -0.640625 -0.65625q-0.40625 -0.234375 -0.953125 -0.328125q-0.546875 -0.109375 -1.171875 -0.109375zm15.96315 3.2812462q-0.265625 -0.21874619 -0.78125 -0.4218712q-0.515625 -0.21875 -1.125 -0.21875q-0.640625 0 -1.09375 0.234375q-0.453125 0.234375 -0.75 0.6406212q-0.28125 0.40625 -0.40625 0.96875q-0.125 0.5625 -0.125 1.203125q0 1.453125 0.71875 2.25q0.71875 0.78125 1.921875 0.78125q0.59375 0 1.0 -0.046875q0.421875 -0.0625 0.640625 -0.125l0 -5.265625zm0 -5.593746l1.484375 -0.265625l0 12.187496q-0.515625 0.140625 -1.3125 0.28125q-0.796875 0.140625 -1.84375 0.140625q-0.953125 0 -1.71875 -0.296875q-0.765625 -0.3125 -1.3125 -0.859375q-0.546875 -0.5625 -0.84375 -1.375q-0.296875 -0.8125 -0.296875 -1.8125q0 -0.96875 0.25 -1.765625q0.25 -0.7968712 0.71875 -1.3749962q0.484375 -0.578125 1.171875 -0.890625q0.703125 -0.328125 1.609375 -0.328125q0.71875 0 1.265625 0.203125q0.5625 0.1875 0.828125 0.359375l0 -4.203125zm3.5802917 8.015621q0 -1.109375 0.3125 -1.921875q0.328125 -0.8281212 0.859375 -1.3749962q0.53125 -0.546875 1.21875 -0.8125q0.6875 -0.28125 1.40625 -0.28125q1.671875 0 2.5625 1.046875q0.90625 1.0468712 0.90625 3.2031212q0 0.09375 0 0.25q0 0.140625 -0.015625 0.265625l-5.6875 0q0.09375 1.296875 0.75 1.96875q0.65625 0.671875 2.046875 0.671875q0.78125 0 1.3125 -0.125q0.546875 -0.140625 0.8125 -0.265625l0.203125 1.25q-0.265625 0.140625 -0.953125 0.296875q-0.671875 0.15625 -1.53125 0.15625q-1.09375 0 -1.890625 -0.328125q-0.78125 -0.328125 -1.296875 -0.890625q-0.515625 -0.578125 -0.765625 -1.375q-0.25 -0.796875 -0.25 -1.734375zm5.71875 -0.8125q0.015625 -1.015625 -0.515625 -1.65625q-0.515625 -0.6562462 -1.421875 -0.6562462q-0.515625 0 -0.90625 0.203125q-0.390625 0.203125 -0.671875 0.5312462q-0.265625 0.3125 -0.421875 0.734375q-0.140625 0.40625 -0.1875 0.84375l4.125 0zm10.194 -3.3593712q-0.625 2.3281212 -1.46875 4.468746q-0.84375 2.140625 -1.625 3.84375l-1.34375 0q-0.78125 -1.703125 -1.625 -3.84375q-0.84375 -2.140625 -1.46875 -4.468746l1.609375 0q0.1875 0.78125 0.453125 1.6718712q0.265625 0.875 0.5625 1.75q0.296875 0.875 0.59375 1.6875q0.3125 0.8125 0.578125 1.453125q0.265625 -0.640625 0.5625 -1.453125q0.3125 -0.8125 0.609375 -1.6875q0.296875 -0.875 0.5625 -1.75q0.265625 -0.8906212 0.453125 -1.6718712l1.546875 0zm3.016388 8.312496l-1.484375 0l0 -8.312496l1.484375 0l0 8.312496zm-0.75 -9.828121q-0.40625 0 -0.6875 -0.265625q-0.265625 -0.265625 -0.265625 -0.703125q0 -0.453125 0.265625 -0.71875q0.28125 -0.265625 0.6875 -0.265625q0.40625 0 0.671875 0.265625q0.28125 0.265625 0.28125 0.71875q0 0.4375 -0.28125 0.703125q-0.265625 0.265625 -0.671875 0.265625zm6.923004 10.015621q-1.0 0 -1.765625 -0.3125q-0.75 -0.328125 -1.28125 -0.890625q-0.515625 -0.578125 -0.78125 -1.375q-0.25 -0.796875 -0.25 -1.75q0 -0.96875 0.28125 -1.765625q0.28125 -0.7968712 0.796875 -1.3749962q0.515625 -0.59375 1.25 -0.921875q0.75 -0.328125 1.65625 -0.328125q0.5625 0 1.125 0.09375q0.5625 0.09375 1.0625 0.3125l-0.328125 1.265625q-0.34375 -0.171875 -0.78125 -0.265625q-0.4375 -0.09375 -0.9375 -0.09375q-1.234375 0 -1.90625 0.7968712q-0.65625 0.78125 -0.65625 2.28125q0 0.671875 0.140625 1.234375q0.15625 0.546875 0.484375 0.953125q0.328125 0.40625 0.84375 0.625q0.515625 0.203125 1.25 0.203125q0.59375 0 1.0625 -0.109375q0.484375 -0.109375 0.75 -0.234375l0.21875 1.25q-0.140625 0.078125 -0.375 0.15625q-0.234375 0.0625 -0.546875 0.109375q-0.296875 0.0625 -0.640625 0.09375q-0.34375 0.046875 -0.671875 0.046875zm3.361908 -4.328125q0 -1.109375 0.3125 -1.921875q0.328125 -0.8281212 0.859375 -1.3749962q0.53125 -0.546875 1.21875 -0.8125q0.6875 -0.28125 1.40625 -0.28125q1.671875 0 2.5625 1.046875q0.90625 1.0468712 0.90625 3.2031212q0 0.09375 0 0.25q0 0.140625 -0.015625 0.265625l-5.6875 0q0.09375 1.296875 0.75 1.96875q0.65625 0.671875 2.046875 0.671875q0.78125 0 1.3125 -0.125q0.546875 -0.140625 0.8125 -0.265625l0.203125 1.25q-0.265625 0.140625 -0.953125 0.296875q-0.671875 0.15625 -1.53125 0.15625q-1.09375 0 -1.890625 -0.328125q-0.78125 -0.328125 -1.296875 -0.890625q-0.515625 -0.578125 -0.765625 -1.375q-0.25 -0.796875 -0.25 -1.734375zm5.71875 -0.8125q0.015625 -1.015625 -0.515625 -1.65625q-0.515625 -0.6562462 -1.421875 -0.6562462q-0.515625 0 -0.90625 0.203125q-0.390625 0.203125 -0.671875 0.5312462q-0.265625 0.3125 -0.421875 0.734375q-0.140625 0.40625 -0.1875 0.84375l4.125 0z" fill-rule="nonzero"/><path fill="#000000" fill-opacity="0.0" d="m323.64435 64.81759l65.480316 0" fill-rule="evenodd"/><path stroke="#000000" stroke-width="1.0" stroke-linejoin="round" stroke-linecap="butt" d="m323.64435 64.81759l59.480316 0" fill-rule="evenodd"/><path fill="#000000" stroke="#000000" stroke-width="1.0" stroke-linecap="butt" d="m383.12466 66.469315l4.5381165 -1.6517258l-4.5381165 -1.6517372z" fill-rule="evenodd"/><path fill="#f3f3f3" d="m27.362206 33.227036l115.40157 0l0 63.1811l-115.40157 0z" fill-rule="evenodd"/><path stroke="#000000" stroke-width="1.0" stroke-linejoin="round" stroke-linecap="butt" d="m27.362206 33.227036l115.40157 0l0 63.1811l-115.40157 0z" fill-rule="evenodd"/><path fill="#000000" d="m61.202435 54.365086q2.40625 0.09375 3.5312462 1.0625q1.140625 0.953125 1.140625 2.59375q0 0.734375 -0.25 1.359375q-0.25 0.625 -0.75 1.078125q-0.5 0.453125 -1.2812462 0.703125q-0.765625 0.25 -1.8125 0.25q-0.421875 0 -0.859375 -0.0625q-0.421875 -0.0625 -0.796875 -0.15625q-0.359375 -0.09375 -0.65625 -0.1875q-0.28125 -0.09375 -0.40625 -0.171875l0.28125 -1.28125q0.265625 0.125 0.875 0.328125q0.625 0.203125 1.53125 0.203125q0.71875 0 1.203125 -0.15625q0.484375 -0.15625 0.78125 -0.421875q0.3124962 -0.28125 0.4374962 -0.640625q0.140625 -0.359375 0.140625 -0.765625q0 -0.609375 -0.203125 -1.078125q-0.20312119 -0.46875 -0.7343712 -0.78125q-0.53125 -0.328125 -1.40625 -0.484375q-0.875 -0.171875 -2.21875 -0.171875q0.09375 -0.796875 0.140625 -1.484375q0.0625 -0.6875 0.109375 -1.34375q0.046875 -0.65625 0.078125 -1.296875q0.03125 -0.65625 0.0625 -1.375l5.343746 0l0 1.265625l-4.046871 0q-0.015625 0.25 -0.046875 0.65625q-0.03125 0.40625 -0.0625 0.84375q-0.03125 0.4375 -0.0625 0.859375q-0.03125 0.40625 -0.0625 0.65625zm6.6333885 1.265625q0 -2.796875 0.984375 -4.296875q0.984375 -1.5 2.734375 -1.5q1.734375 0 2.71875 1.5q0.984375 1.5 0.984375 4.296875q0 2.78125 -0.984375 4.28125q-0.984375 1.5 -2.71875 1.5q-1.75 0 -2.734375 -1.5q-0.984375 -1.5 -0.984375 -4.28125zm5.859375 0q0 -0.921875 -0.109375 -1.734375q-0.09375 -0.8125 -0.34375 -1.421875q-0.25 -0.609375 -0.671875 -0.96875q-0.40625 -0.359375 -1.015625 -0.359375q-0.609375 0 -1.03125 0.359375q-0.40625 0.359375 -0.65625 0.96875q-0.25 0.609375 -0.359375 1.421875q-0.09375 0.8125 -0.09375 1.734375q0 0.90625 0.09375 1.71875q0.109375 0.8125 0.359375 1.421875q0.25 0.609375 0.65625 0.96875q0.421875 0.359375 1.03125 0.359375q0.609375 0 1.015625 -0.359375q0.421875 -0.359375 0.671875 -0.96875q0.25 -0.609375 0.34375 -1.421875q0.109375 -0.8125 0.109375 -1.71875zm14.688782 1.390625q0 0.984375 -0.296875 1.796875q-0.28125 0.796875 -0.796875 1.375q-0.515625 0.5625 -1.25 0.875q-0.71875 0.3125 -1.5625 0.3125q-0.84375 0 -1.5625 -0.3125q-0.71875 -0.3125 -1.25 -0.875q-0.515625 -0.578125 -0.8125 -1.375q-0.28125 -0.8125 -0.28125 -1.796875q0 -0.984375 0.28125 -1.78125q0.296875 -0.8125 0.8125 -1.390625q0.53125 -0.578125 1.25 -0.890625q0.71875 -0.3125 1.5625 -0.3125q0.84375 0 1.5625 0.3125q0.734375 0.3125 1.25 0.890625q0.515625 0.578125 0.796875 1.390625q0.296875 0.796875 0.296875 1.78125zm-1.546875 0q0 -1.40625 -0.640625 -2.234375q-0.625 -0.828125 -1.71875 -0.828125q-1.09375 0 -1.71875 0.828125q-0.625 0.828125 -0.625 2.234375q0 1.40625 0.625 2.234375q0.625 0.8125 1.71875 0.8125q1.09375 0 1.71875 -0.8125q0.640625 -0.828125 0.640625 -2.234375zm3.6431427 4.15625l0 -12.15625l1.484375 -0.265625l0 4.265625q0.421875 -0.15625 0.890625 -0.25q0.46875 -0.09375 0.9375 -0.09375q0.984375 0 1.640625 0.28125q0.65625 0.28125 1.046875 0.796875q0.40625 0.5 0.5625 1.203125q0.15625 0.703125 0.15625 1.546875l0 4.671875l-1.484375 0l0 -4.359375q0 -0.765625 -0.109375 -1.296875q-0.109375 -0.546875 -0.34375 -0.875q-0.234375 -0.34375 -0.640625 -0.5q-0.390625 -0.15625 -0.984375 -0.15625q-0.25 0 -0.5 0.03125q-0.25 0.03125 -0.484375 0.078125q-0.234375 0.03125 -0.421875 0.09375q-0.1875 0.046875 -0.265625 0.078125l0 6.90625l-1.484375 0zm9.136017 -8.078125q0.515625 -0.125 1.34375 -0.265625q0.84375 -0.15625 1.953125 -0.15625q0.796875 0 1.34375 0.21875q0.546875 0.21875 0.90625 0.640625q0.109375 -0.09375 0.34375 -0.234375q0.25 -0.140625 0.59375 -0.265625q0.359375 -0.140625 0.78125 -0.25q0.4375 -0.109375 0.9375 -0.109375q0.96875 0 1.5625 0.28125q0.609375 0.28125 0.953125 0.796875q0.359375 0.515625 0.46875 1.21875q0.125 0.703125 0.125 1.53125l0 4.671875l-1.484375 0l0 -4.359375q0 -0.734375 -0.078125 -1.25q-0.078125 -0.53125 -0.28125 -0.875q-0.1875 -0.359375 -0.53125 -0.53125q-0.34375 -0.171875 -0.890625 -0.171875q-0.75 0 -1.25 0.203125q-0.484375 0.203125 -0.65625 0.359375q0.125 0.421875 0.1875 0.921875q0.078125 0.484375 0.078125 1.03125l0 4.671875l-1.5 0l0 -4.359375q0 -0.734375 -0.078125 -1.25q-0.078125 -0.53125 -0.28125 -0.875q-0.203125 -0.359375 -0.546875 -0.53125q-0.34375 -0.171875 -0.859375 -0.171875q-0.234375 0 -0.484375 0.015625q-0.25 0.015625 -0.484375 0.046875q-0.234375 0.015625 -0.4375 0.046875q-0.1875 0.03125 -0.25 0.046875l0 7.03125l-1.484375 0l0 -8.078125z" fill-rule="nonzero"/><path fill="#000000" d="m48.446796 71.86508l3.15625 0l0 1.234375l-3.15625 0l0 3.84375q0 0.625 0.09375 1.03125q0.09375 0.40625 0.28125 0.640625q0.203125 0.234375 0.484375 0.328125q0.296875 0.09375 0.671875 0.09375q0.671875 0 1.078125 -0.140625q0.421875 -0.15625 0.578125 -0.21875l0.28125 1.234375q-0.21875 0.109375 -0.78125 0.265625q-0.5625 0.171875 -1.28125 0.171875q-0.84375 0 -1.40625 -0.203125q-0.546875 -0.21875 -0.890625 -0.65625q-0.328125 -0.4375 -0.46875 -1.0625q-0.125 -0.640625 -0.125 -1.46875l0 -7.421875l1.484375 -0.25l0 2.578125zm4.412628 4.171875q0 -1.109375 0.3125 -1.921875q0.328125 -0.828125 0.859375 -1.375q0.53125 -0.546875 1.21875 -0.8125q0.6875 -0.28125 1.40625 -0.28125q1.671875 0 2.5625 1.046875q0.90625 1.046875 0.90625 3.203125q0 0.09375 0 0.25q0 0.140625 -0.015625 0.265625l-5.6875 0q0.09375 1.296875 0.75 1.96875q0.65625 0.671875 2.046875 0.671875q0.78125 0 1.3125 -0.125q0.546875 -0.140625 0.8125 -0.265625l0.203125 1.25q-0.265625 0.140625 -0.953125 0.296875q-0.671875 0.15625 -1.53125 0.15625q-1.09375 0 -1.890625 -0.328125q-0.78125 -0.328125 -1.296875 -0.890625q-0.515625 -0.578125 -0.765625 -1.375q-0.25 -0.796875 -0.25 -1.734375zm5.71875 -0.8125q0.015625 -1.015625 -0.515625 -1.65625q-0.515625 -0.65625 -1.421875 -0.65625q-0.515625 0 -0.90625 0.203125q-0.390625 0.203125 -0.671875 0.53125q-0.265625 0.3125 -0.421875 0.734375q-0.140625 0.40625 -0.1875 0.84375l4.125 0zm6.7721367 -3.546875q0.1875 0 0.4375 0.03125q0.25 0.015625 0.484375 0.0625q0.234375 0.03125 0.4375 0.078125q0.203125 0.046875 0.296875 0.078125l-0.25 1.296875q-0.1875 -0.078125 -0.59375 -0.15625q-0.40625 -0.09375 -1.046875 -0.09375q-0.40625 0 -0.828125 0.09375q-0.4062462 0.078125 -0.5312462 0.125l0 6.984375l-1.484375 0l0 -7.96875q0.53125 -0.1875 1.3125 -0.359375q0.7812462 -0.171875 1.7656212 -0.171875zm3.0978851 0.421875q0.515625 -0.125 1.34375 -0.265625q0.84375 -0.15625 1.953125 -0.15625q0.796875 0 1.34375 0.21875q0.546875 0.21875 0.90625 0.640625q0.109375 -0.09375 0.34375 -0.234375q0.25 -0.140625 0.59375 -0.265625q0.359375 -0.140625 0.78125 -0.25q0.4375 -0.109375 0.9375 -0.109375q0.96875 0 1.5625 0.28125q0.609375 0.28125 0.953125 0.796875q0.359375 0.515625 0.46875 1.21875q0.125 0.703125 0.125 1.53125l0 4.671875l-1.484375 0l0 -4.359375q0 -0.734375 -0.078125 -1.25q-0.078125 -0.53125 -0.28125 -0.875q-0.1875 -0.359375 -0.53125 -0.53125q-0.34375 -0.171875 -0.890625 -0.171875q-0.75 0 -1.25 0.203125q-0.484375 0.203125 -0.65625 0.359375q0.125 0.421875 0.1875 0.921875q0.078125 0.484375 0.078125 1.03125l0 4.671875l-1.5 0l0 -4.359375q0 -0.734375 -0.078125 -1.25q-0.078125 -0.53125 -0.28125 -0.875q-0.203125 -0.359375 -0.546875 -0.53125q-0.34375 -0.171875 -0.859375 -0.171875q-0.234375 0 -0.484375 0.015625q-0.25 0.015625 -0.484375 0.046875q-0.234375 0.015625 -0.4375 0.046875q-0.1875 0.03125 -0.25 0.046875l0 7.03125l-1.484375 0l0 -8.078125zm15.2604065 8.078125l-1.484375 0l0 -8.3125l1.484375 0l0 8.3125zm-0.75 -9.828125q-0.40625 0 -0.6875 -0.265625q-0.265625 -0.265625 -0.265625 -0.703125q0 -0.453125 0.265625 -0.71875q0.28125 -0.265625 0.6875 -0.265625q0.40625 0 0.671875 0.265625q0.28125 0.265625 0.28125 0.71875q0 0.4375 -0.28125 0.703125q-0.265625 0.265625 -0.671875 0.265625zm3.3136292 1.75q0.515625 -0.125 1.359375 -0.265625q0.84375 -0.15625 1.953125 -0.15625q0.984375 0 1.640625 0.28125q0.6562576 0.28125 1.0468826 0.796875q0.40625 0.5 0.5625 1.203125q0.15625 0.703125 0.15625 1.546875l0 4.671875l-1.484375 0l0 -4.359375q0 -0.765625 -0.109375 -1.296875q-0.10938263 -0.546875 -0.34375763 -0.875q-0.234375 -0.34375 -0.640625 -0.5q-0.390625 -0.15625 -0.984375 -0.15625q-0.25 0 -0.5 0.015625q-0.25 0.015625 -0.484375 0.046875q-0.234375 0.015625 -0.421875 0.046875q-0.1875 0.03125 -0.265625 0.046875l0 7.03125l-1.484375 0l0 -8.078125zm11.996529 7.0q0.53125 0 0.9375 -0.015625q0.40625 -0.03125 0.6875 -0.09375l0 -2.46875q-0.171875 -0.09375 -0.53125 -0.140625q-0.359375 -0.0625 -0.875 -0.0625q-0.328125 0 -0.703125 0.046875q-0.375 0.046875 -0.6875 0.203125q-0.3125 0.15625 -0.53125 0.421875q-0.203125 0.265625 -0.203125 0.6875q0 0.796875 0.515625 1.109375q0.515625 0.3125 1.390625 0.3125zm-0.125 -7.453125q0.890625 0 1.5 0.234375q0.625 0.234375 1.0 0.65625q0.375 0.421875 0.53125 1.015625q0.171875 0.578125 0.171875 1.28125l0 5.203125q-0.203125 0.03125 -0.546875 0.09375q-0.34375 0.046875 -0.78125 0.09375q-0.421875 0.046875 -0.921875 0.078125q-0.5 0.046875 -1.0 0.046875q-0.703125 0 -1.296875 -0.140625q-0.59375 -0.140625 -1.03125 -0.453125q-0.421875 -0.3125 -0.671875 -0.828125q-0.234375 -0.515625 -0.234375 -1.234375q0 -0.6875 0.28125 -1.171875q0.28125 -0.5 0.75 -0.796875q0.484375 -0.3125 1.125 -0.453125q0.640625 -0.15625 1.34375 -0.15625q0.234375 0 0.46875 0.03125q0.234375 0.015625 0.453125 0.0625q0.21875 0.046875 0.375 0.078125q0.15625 0.03125 0.234375 0.046875l0 -0.421875q0 -0.359375 -0.09375 -0.71875q-0.078125 -0.375 -0.28125 -0.640625q-0.203125 -0.28125 -0.5625 -0.453125q-0.359375 -0.171875 -0.9375 -0.171875q-0.734375 0 -1.296875 0.109375q-0.546875 0.09375 -0.8125 0.21875l-0.1875 -1.234375q0.296875 -0.125 0.96875 -0.25q0.671875 -0.125 1.453125 -0.125zm7.0551453 0.21875l3.15625 0l0 1.234375l-3.15625 0l0 3.84375q0 0.625 0.09375 1.03125q0.09375 0.40625 0.28125 0.640625q0.203125 0.234375 0.484375 0.328125q0.296875 0.09375 0.671875 0.09375q0.671875 0 1.078125 -0.140625q0.421875 -0.15625 0.578125 -0.21875l0.28125 1.234375q-0.21875 0.109375 -0.78125 0.265625q-0.5625 0.171875 -1.28125 0.171875q-0.84375 0 -1.40625 -0.203125q-0.546875 -0.21875 -0.890625 -0.65625q-0.328125 -0.4375 -0.46875 -1.0625q-0.125 -0.640625 -0.125 -1.46875l0 -7.421875l1.484375 -0.25l0 2.578125zm12.161133 4.15625q0 0.984375 -0.296875 1.796875q-0.28125 0.796875 -0.796875 1.375q-0.515625 0.5625 -1.25 0.875q-0.71875 0.3125 -1.5625 0.3125q-0.84375 0 -1.5625 -0.3125q-0.71875 -0.3125 -1.25 -0.875q-0.515625 -0.578125 -0.8125 -1.375q-0.28125 -0.8125 -0.28125 -1.796875q0 -0.984375 0.28125 -1.78125q0.296875 -0.8125 0.8125 -1.390625q0.53125 -0.578125 1.25 -0.890625q0.71875 -0.3125 1.5625 -0.3125q0.84375 0 1.5625 0.3125q0.734375 0.3125 1.25 0.890625q0.515625 0.578125 0.796875 1.390625q0.296875 0.796875 0.296875 1.78125zm-1.546875 0q0 -1.40625 -0.640625 -2.234375q-0.625 -0.828125 -1.71875 -0.828125q-1.09375 0 -1.71875 0.828125q-0.625 0.828125 -0.625 2.234375q0 1.40625 0.625 2.234375q0.625 0.8125 1.71875 0.8125q1.09375 0 1.71875 -0.8125q0.640625 -0.828125 0.640625 -2.234375zm6.7212677 -4.34375q0.1875 0 0.4375 0.03125q0.25 0.015625 0.484375 0.0625q0.234375 0.03125 0.4375 0.078125q0.203125 0.046875 0.296875 0.078125l-0.25 1.296875q-0.1875 -0.078125 -0.59375 -0.15625q-0.40625 -0.09375 -1.046875 -0.09375q-0.40625 0 -0.828125 0.09375q-0.40625 0.078125 -0.53125 0.125l0 6.984375l-1.484375 0l0 -7.96875q0.53125 -0.1875 1.3125 -0.359375q0.78125 -0.171875 1.765625 -0.171875z" fill-rule="nonzero"/><path fill="#000000" fill-opacity="0.0" d="m142.76378 64.81759l65.480316 0" fill-rule="evenodd"/><path stroke="#000000" stroke-width="1.0" stroke-linejoin="round" stroke-linecap="butt" d="m142.76378 64.81759l59.480316 0" fill-rule="evenodd"/><path fill="#000000" stroke="#000000" stroke-width="1.0" stroke-linecap="butt" d="m202.2441 66.469315l4.538101 -1.6517258l-4.538101 -1.6517372z" fill-rule="evenodd"/></g></svg>